<?xml version="1.0" encoding="UTF-8" standalone="no"?>
<!DOCTYPE svg PUBLIC "-//W3C//DTD SVG 1.1//EN"
 "http://www.w3.org/Graphics/SVG/1.1/DTD/svg11.dtd">
<!-- Generated by graphviz version 2.38.0 (20140413.2041)
 -->
<!-- Title: attitudesensor.cpp Pages: 1 -->
<svg width="284pt" height="196pt"
 viewBox="0.00 0.00 284.00 196.00" xmlns="http://www.w3.org/2000/svg" xmlns:xlink="http://www.w3.org/1999/xlink">
<g id="graph0" class="graph" transform="scale(1 1) rotate(0) translate(4 192)">
<title>attitudesensor.cpp</title>
<!-- Node1 -->
<g id="node1" class="node"><title>Node1</title>
<polygon fill="#bfbfbf" stroke="black" points="94.5,-168.5 94.5,-187.5 191.5,-187.5 191.5,-168.5 94.5,-168.5"/>
<text text-anchor="middle" x="143" y="-175.5" font-family="Helvetica,sans-Serif" font-size="10.00">attitudesensor.cpp</text>
</g>
<!-- Node2 -->
<g id="node2" class="node"><title>Node2</title>
<g id="a_node2"><a xlink:href="attitudesensor_8h.html" target="_top" xlink:title="attitudesensor.h">
<polygon fill="none" stroke="black" points="0,-112.5 0,-131.5 86,-131.5 86,-112.5 0,-112.5"/>
<text text-anchor="middle" x="43" y="-119.5" font-family="Helvetica,sans-Serif" font-size="10.00">attitudesensor.h</text>
</a>
</g>
</g>
<!-- Node1&#45;&gt;Node2 -->
<g id="edge1" class="edge"><title>Node1&#45;&gt;Node2</title>
<path fill="none" stroke="midnightblue" d="M126.933,-168.324C111.042,-159.743 86.4926,-146.486 68.0415,-136.522"/>
<polygon fill="midnightblue" stroke="midnightblue" points="69.489,-133.326 59.0269,-131.655 66.1629,-139.486 69.489,-133.326"/>
</g>
<!-- Node4 -->
<g id="node4" class="node"><title>Node4</title>
<polygon fill="none" stroke="#bfbfbf" points="60,-0.5 60,-19.5 104,-19.5 104,-0.5 60,-0.5"/>
<text text-anchor="middle" x="82" y="-7.5" font-family="Helvetica,sans-Serif" font-size="10.00">vector</text>
</g>
<!-- Node1&#45;&gt;Node4 -->
<g id="edge6" class="edge"><title>Node1&#45;&gt;Node4</title>
<path fill="none" stroke="midnightblue" d="M139.72,-168.075C130.077,-141.832 101.676,-64.5453 88.6573,-29.1165"/>
<polygon fill="midnightblue" stroke="midnightblue" points="91.883,-27.7472 85.1485,-19.5681 85.3126,-30.1617 91.883,-27.7472"/>
</g>
<!-- Node5 -->
<g id="node5" class="node"><title>Node5</title>
<polygon fill="none" stroke="#bfbfbf" points="142,-112.5 142,-131.5 204,-131.5 204,-112.5 142,-112.5"/>
<text text-anchor="middle" x="173" y="-119.5" font-family="Helvetica,sans-Serif" font-size="10.00">v_repLib.h</text>
</g>
<!-- Node1&#45;&gt;Node5 -->
<g id="edge4" class="edge"><title>Node1&#45;&gt;Node5</title>
<path fill="none" stroke="midnightblue" d="M147.954,-168.083C152.104,-160.613 158.153,-149.724 163.267,-140.52"/>
<polygon fill="midnightblue" stroke="midnightblue" points="166.341,-142.192 168.138,-131.751 160.222,-138.793 166.341,-142.192"/>
</g>
<!-- Node6 -->
<g id="node6" class="node"><title>Node6</title>
<polygon fill="none" stroke="#bfbfbf" points="222,-112.5 222,-131.5 276,-131.5 276,-112.5 222,-112.5"/>
<text text-anchor="middle" x="249" y="-119.5" font-family="Helvetica,sans-Serif" font-size="10.00">iostream</text>
</g>
<!-- Node1&#45;&gt;Node6 -->
<g id="edge5" class="edge"><title>Node1&#45;&gt;Node6</title>
<path fill="none" stroke="midnightblue" d="M160.031,-168.324C177.03,-159.664 203.376,-146.242 222.993,-136.249"/>
<polygon fill="midnightblue" stroke="midnightblue" points="224.69,-139.312 232.012,-131.655 221.512,-133.075 224.69,-139.312"/>
</g>
<!-- Node3 -->
<g id="node3" class="node"><title>Node3</title>
<g id="a_node3"><a xlink:href="sensor_8h.html" target="_top" xlink:title="sensor.h">
<polygon fill="none" stroke="black" points="24,-56.5 24,-75.5 78,-75.5 78,-56.5 24,-56.5"/>
<text text-anchor="middle" x="51" y="-63.5" font-family="Helvetica,sans-Serif" font-size="10.00">sensor.h</text>
</a>
</g>
</g>
<!-- Node2&#45;&gt;Node3 -->
<g id="edge2" class="edge"><title>Node2&#45;&gt;Node3</title>
<path fill="none" stroke="midnightblue" d="M44.321,-112.083C45.3811,-104.927 46.9059,-94.6353 48.2309,-85.6911"/>
<polygon fill="midnightblue" stroke="midnightblue" points="51.7002,-86.1561 49.7035,-75.7511 44.7758,-85.1302 51.7002,-86.1561"/>
</g>
<!-- Node3&#45;&gt;Node4 -->
<g id="edge3" class="edge"><title>Node3&#45;&gt;Node4</title>
<path fill="none" stroke="midnightblue" d="M56.119,-56.083C60.4075,-48.6127 66.6582,-37.7244 71.9423,-28.5199"/>
<polygon fill="midnightblue" stroke="midnightblue" points="75.0329,-30.1662 76.9762,-19.7511 68.9621,-26.6811 75.0329,-30.1662"/>
</g>
</g>
</svg>
