<?xml version="1.0" encoding="UTF-8" standalone="no"?>
<!DOCTYPE svg PUBLIC "-//W3C//DTD SVG 1.1//EN"
 "http://www.w3.org/Graphics/SVG/1.1/DTD/svg11.dtd">
<!-- Generated by graphviz version 2.38.0 (20140413.2041)
 -->
<!-- Title: Finken::addSensor Pages: 1 -->
<svg width="330pt" height="66pt"
 viewBox="0.00 0.00 330.00 66.00" xmlns="http://www.w3.org/2000/svg" xmlns:xlink="http://www.w3.org/1999/xlink">
<g id="graph0" class="graph" transform="scale(1 1) rotate(0) translate(4 62)">
<title>Finken::addSensor</title>
<!-- Node1 -->
<g id="node1" class="node"><title>Node1</title>
<polygon fill="#bfbfbf" stroke="black" points="0,-19.5 0,-38.5 98,-38.5 98,-19.5 0,-19.5"/>
<text text-anchor="middle" x="49" y="-26.5" font-family="Helvetica,sans-Serif" font-size="10.00">Finken::addSensor</text>
</g>
<!-- Node2 -->
<g id="node2" class="node"><title>Node2</title>
<g id="a_node2"><a xlink:href="finken_8h.html#ab8920c514423348469521fe0063534c4" target="_top" xlink:title="Constructs a complete FINken from an empty FINken object using its handle. ">
<polygon fill="none" stroke="black" points="134,-19.5 134,-38.5 200,-38.5 200,-19.5 134,-19.5"/>
<text text-anchor="middle" x="167" y="-26.5" font-family="Helvetica,sans-Serif" font-size="10.00">buildFinken</text>
</a>
</g>
</g>
<!-- Node1&#45;&gt;Node2 -->
<g id="edge1" class="edge"><title>Node1&#45;&gt;Node2</title>
<path fill="none" stroke="midnightblue" d="M108.466,-29C117.258,-29 126.036,-29 133.992,-29"/>
<polygon fill="midnightblue" stroke="midnightblue" points="108.187,-25.5001 98.1867,-29 108.187,-32.5001 108.187,-25.5001"/>
</g>
<!-- Node3 -->
<g id="node3" class="node"><title>Node3</title>
<g id="a_node3"><a xlink:href="classFinken.html#ae3c3abbf571407e210f4b03b68cada9d" target="_top" xlink:title="Main function containing the Paparazzi&#45;V&#45;REP communication loop. ">
<polygon fill="none" stroke="black" points="246.5,-38.5 246.5,-57.5 311.5,-57.5 311.5,-38.5 246.5,-38.5"/>
<text text-anchor="middle" x="279" y="-45.5" font-family="Helvetica,sans-Serif" font-size="10.00">Finken::run</text>
</a>
</g>
</g>
<!-- Node2&#45;&gt;Node3 -->
<g id="edge2" class="edge"><title>Node2&#45;&gt;Node3</title>
<path fill="none" stroke="midnightblue" d="M210.004,-36.2552C222.094,-38.3435 235.073,-40.5853 246.417,-42.5448"/>
<polygon fill="midnightblue" stroke="midnightblue" points="210.562,-32.7999 200.112,-34.5467 209.371,-39.6977 210.562,-32.7999"/>
</g>
<!-- Node4 -->
<g id="node4" class="node"><title>Node4</title>
<g id="a_node4"><a xlink:href="classFinken.html#aa4779668e3bf85253e371b30e0da808a" target="_top" xlink:title="Called in the accept handler, this function passes the incoming connection to the corresponding finke...">
<polygon fill="none" stroke="black" points="236,-0.5 236,-19.5 322,-19.5 322,-0.5 236,-0.5"/>
<text text-anchor="middle" x="279" y="-7.5" font-family="Helvetica,sans-Serif" font-size="10.00">Finken::connect</text>
</a>
</g>
</g>
<!-- Node2&#45;&gt;Node4 -->
<g id="edge3" class="edge"><title>Node2&#45;&gt;Node4</title>
<path fill="none" stroke="midnightblue" d="M210.117,-21.7252C218.54,-20.2704 227.39,-18.7417 235.815,-17.2865"/>
<polygon fill="midnightblue" stroke="midnightblue" points="209.371,-18.3023 200.112,-23.4533 210.562,-25.2001 209.371,-18.3023"/>
</g>
</g>
</svg>
