<?xml version="1.0" encoding="UTF-8" standalone="no"?>
<!DOCTYPE svg PUBLIC "-//W3C//DTD SVG 1.1//EN"
 "http://www.w3.org/Graphics/SVG/1.1/DTD/svg11.dtd">
<!-- Generated by graphviz version 2.38.0 (20140413.2041)
 -->
<!-- Title: Finken::getSensors Pages: 1 -->
<svg width="344pt" height="28pt"
 viewBox="0.00 0.00 344.00 28.00" xmlns="http://www.w3.org/2000/svg" xmlns:xlink="http://www.w3.org/1999/xlink">
<g id="graph0" class="graph" transform="scale(1 1) rotate(0) translate(4 24)">
<title>Finken::getSensors</title>
<!-- Node1 -->
<g id="node1" class="node"><title>Node1</title>
<polygon fill="#bfbfbf" stroke="black" points="0,-0.5 0,-19.5 101,-19.5 101,-0.5 0,-0.5"/>
<text text-anchor="middle" x="50.5" y="-7.5" font-family="Helvetica,sans-Serif" font-size="10.00">Finken::getSensors</text>
</g>
<!-- Node2 -->
<g id="node2" class="node"><title>Node2</title>
<g id="a_node2"><a xlink:href="classFinken.html#afddc56af42f000ff17c4a00779b4ad6a" target="_top" xlink:title="updates the values for copter position and attitude, namely the copter state vectors ...">
<polygon fill="none" stroke="black" points="137,-0.5 137,-19.5 235,-19.5 235,-0.5 137,-0.5"/>
<text text-anchor="middle" x="186" y="-7.5" font-family="Helvetica,sans-Serif" font-size="10.00">Finken::updatePos</text>
</a>
</g>
</g>
<!-- Node1&#45;&gt;Node2 -->
<g id="edge1" class="edge"><title>Node1&#45;&gt;Node2</title>
<path fill="none" stroke="midnightblue" d="M111.386,-10C119.818,-10 128.398,-10 136.579,-10"/>
<polygon fill="midnightblue" stroke="midnightblue" points="111.211,-6.5001 101.21,-10 111.21,-13.5001 111.211,-6.5001"/>
</g>
<!-- Node3 -->
<g id="node3" class="node"><title>Node3</title>
<g id="a_node3"><a xlink:href="classFinken.html#ae3c3abbf571407e210f4b03b68cada9d" target="_top" xlink:title="Main function containing the Paparazzi&#45;V&#45;REP communication loop. ">
<polygon fill="none" stroke="black" points="271,-0.5 271,-19.5 336,-19.5 336,-0.5 271,-0.5"/>
<text text-anchor="middle" x="303.5" y="-7.5" font-family="Helvetica,sans-Serif" font-size="10.00">Finken::run</text>
</a>
</g>
</g>
<!-- Node2&#45;&gt;Node3 -->
<g id="edge2" class="edge"><title>Node2&#45;&gt;Node3</title>
<path fill="none" stroke="midnightblue" d="M245.516,-10C254.24,-10 262.94,-10 270.82,-10"/>
<polygon fill="midnightblue" stroke="midnightblue" points="245.313,-6.5001 235.313,-10 245.313,-13.5001 245.313,-6.5001"/>
</g>
</g>
</svg>
