<?xml version="1.0" encoding="UTF-8" standalone="no"?>
<!DOCTYPE svg PUBLIC "-//W3C//DTD SVG 1.1//EN"
 "http://www.w3.org/Graphics/SVG/1.1/DTD/svg11.dtd">
<!-- Generated by graphviz version 2.38.0 (20140413.2041)
 -->
<!-- Title: FinkenPlugin::sceneLoad Pages: 1 -->
<svg width="571pt" height="39pt"
 viewBox="0.00 0.00 571.00 39.00" xmlns="http://www.w3.org/2000/svg" xmlns:xlink="http://www.w3.org/1999/xlink">
<g id="graph0" class="graph" transform="scale(1 1) rotate(0) translate(4 35)">
<title>FinkenPlugin::sceneLoad</title>
<!-- Node1 -->
<g id="node1" class="node"><title>Node1</title>
<polygon fill="#bfbfbf" stroke="black" points="0,-6 0,-25 126,-25 126,-6 0,-6"/>
<text text-anchor="middle" x="63" y="-13" font-family="Helvetica,sans-Serif" font-size="10.00">FinkenPlugin::sceneLoad</text>
</g>
<!-- Node2 -->
<g id="node2" class="node"><title>Node2</title>
<g id="a_node2"><a xlink:href="classAsync__Server.html#a33e192d098956111828840a354da0891" target="_top" xlink:title="Server constructor. ">
<polygon fill="none" stroke="black" points="162,-0.5 162,-30.5 274,-30.5 274,-0.5 162,-0.5"/>
<text text-anchor="start" x="170" y="-18.5" font-family="Helvetica,sans-Serif" font-size="10.00">Async_Server::Async</text>
<text text-anchor="middle" x="218" y="-7.5" font-family="Helvetica,sans-Serif" font-size="10.00">_Server</text>
</a>
</g>
</g>
<!-- Node1&#45;&gt;Node2 -->
<g id="edge1" class="edge"><title>Node1&#45;&gt;Node2</title>
<path fill="none" stroke="midnightblue" d="M126.231,-15.5C134.583,-15.5 143.17,-15.5 151.575,-15.5"/>
<polygon fill="midnightblue" stroke="midnightblue" points="151.709,-19.0001 161.709,-15.5 151.709,-12.0001 151.709,-19.0001"/>
</g>
<!-- Node3 -->
<g id="node3" class="node"><title>Node3</title>
<g id="a_node3"><a xlink:href="classAsync__Server.html#a475dc9277092d67f647cdfeeb91f2943" target="_top" xlink:title="Function waiting for new connections to accept. ">
<polygon fill="none" stroke="black" points="310,-0.5 310,-30.5 414,-30.5 414,-0.5 310,-0.5"/>
<text text-anchor="start" x="318" y="-18.5" font-family="Helvetica,sans-Serif" font-size="10.00">Async_Server::start</text>
<text text-anchor="middle" x="362" y="-7.5" font-family="Helvetica,sans-Serif" font-size="10.00">_accept</text>
</a>
</g>
</g>
<!-- Node2&#45;&gt;Node3 -->
<g id="edge2" class="edge"><title>Node2&#45;&gt;Node3</title>
<path fill="none" stroke="midnightblue" d="M274.308,-15.5C282.612,-15.5 291.218,-15.5 299.64,-15.5"/>
<polygon fill="midnightblue" stroke="midnightblue" points="299.788,-19.0001 309.788,-15.5 299.788,-12.0001 299.788,-19.0001"/>
</g>
<!-- Node4 -->
<g id="node4" class="node"><title>Node4</title>
<g id="a_node4"><a xlink:href="classAsync__Server.html#ab012fb8893a186c937c9287bdf10da03" target="_top" xlink:title="Function handling any new connection. ">
<polygon fill="none" stroke="black" points="450,-0.5 450,-30.5 563,-30.5 563,-0.5 450,-0.5"/>
<text text-anchor="start" x="458" y="-18.5" font-family="Helvetica,sans-Serif" font-size="10.00">Async_Server::handle</text>
<text text-anchor="middle" x="506.5" y="-7.5" font-family="Helvetica,sans-Serif" font-size="10.00">_accept</text>
</a>
</g>
</g>
<!-- Node3&#45;&gt;Node4 -->
<g id="edge3" class="edge"><title>Node3&#45;&gt;Node4</title>
<path fill="none" stroke="midnightblue" d="M414.043,-8.9973C422.424,-8.78697 431.211,-8.71081 439.886,-8.7688"/>
<polygon fill="midnightblue" stroke="midnightblue" points="439.942,-12.2697 449.987,-8.89851 440.032,-5.2703 439.942,-12.2697"/>
</g>
<!-- Node4&#45;&gt;Node3 -->
<g id="edge4" class="edge"><title>Node4&#45;&gt;Node3</title>
<path fill="none" stroke="midnightblue" d="M449.987,-22.1015C441.571,-22.2627 432.848,-22.2927 424.318,-22.1914"/>
<polygon fill="midnightblue" stroke="midnightblue" points="424.106,-18.687 414.043,-22.0027 423.977,-25.6858 424.106,-18.687"/>
</g>
</g>
</svg>
