<?xml version="1.0" encoding="UTF-8" standalone="no"?>
<!DOCTYPE svg PUBLIC "-//W3C//DTD SVG 1.1//EN"
 "http://www.w3.org/Graphics/SVG/1.1/DTD/svg11.dtd">
<!-- Generated by graphviz version 2.38.0 (20140413.2041)
 -->
<!-- Title: FinkenPlugin Pages: 1 -->
<svg width="274pt" height="173pt"
 viewBox="0.00 0.00 273.50 173.00" xmlns="http://www.w3.org/2000/svg" xmlns:xlink="http://www.w3.org/1999/xlink">
<g id="graph0" class="graph" transform="scale(1 1) rotate(0) translate(4 169)">
<title>FinkenPlugin</title>
<!-- Node1 -->
<g id="node1" class="node"><title>Node1</title>
<polygon fill="#bfbfbf" stroke="black" points="101,-0.5 101,-19.5 174,-19.5 174,-0.5 101,-0.5"/>
<text text-anchor="middle" x="137.5" y="-7.5" font-family="Helvetica,sans-Serif" font-size="10.00">FinkenPlugin</text>
</g>
<!-- Node2 -->
<g id="node2" class="node"><title>Node2</title>
<g id="a_node2"><a xlink:href="classVREPPlugin.html" target="_top" xlink:title="Base vrepplugin class. ">
<polygon fill="none" stroke="black" points="0,-73 0,-92 71,-92 71,-73 0,-73"/>
<text text-anchor="middle" x="35.5" y="-80" font-family="Helvetica,sans-Serif" font-size="10.00">VREPPlugin</text>
</a>
</g>
</g>
<!-- Node2&#45;&gt;Node1 -->
<g id="edge1" class="edge"><title>Node2&#45;&gt;Node1</title>
<path fill="none" stroke="midnightblue" d="M56.4023,-67.0528C76.9953,-52.8194 107.783,-31.5399 124.89,-19.7154"/>
<polygon fill="midnightblue" stroke="midnightblue" points="54.2434,-64.2903 48.0072,-72.8553 58.2235,-70.0487 54.2434,-64.2903"/>
</g>
<!-- Node2&#45;&gt;Node2 -->
<g id="edge2" class="edge"><title>Node2&#45;&gt;Node2</title>
<path fill="none" stroke="#9a32cd" stroke-dasharray="5,2" d="M81.2805,-88.3745C85.9895,-87.2182 89,-85.26 89,-82.5 89,-78.084 81.2932,-75.7207 71.2532,-75.4102"/>
<polygon fill="#9a32cd" stroke="#9a32cd" points="80.7594,-84.9119 71.2532,-89.5898 81.6017,-91.8611 80.7594,-84.9119"/>
<text text-anchor="middle" x="109" y="-80" font-family="Helvetica,sans-Serif" font-size="10.00"> instance</text>
</g>
<!-- Node3 -->
<g id="node3" class="node"><title>Node3</title>
<polygon fill="none" stroke="#bfbfbf" points="147.5,-67.5 147.5,-97.5 265.5,-97.5 265.5,-67.5 147.5,-67.5"/>
<text text-anchor="start" x="155.5" y="-85.5" font-family="Helvetica,sans-Serif" font-size="10.00">std::unique_ptr&lt; Async</text>
<text text-anchor="middle" x="206.5" y="-74.5" font-family="Helvetica,sans-Serif" font-size="10.00">_Server &gt;</text>
</g>
<!-- Node3&#45;&gt;Node1 -->
<g id="edge3" class="edge"><title>Node3&#45;&gt;Node1</title>
<path fill="none" stroke="#9a32cd" stroke-dasharray="5,2" d="M185.224,-59.7615C172.092,-46.3439 155.948,-29.8487 146.204,-19.8932"/>
<polygon fill="#9a32cd" stroke="#9a32cd" points="183.041,-62.5347 192.537,-67.2333 188.044,-57.6384 183.041,-62.5347"/>
<text text-anchor="middle" x="204.5" y="-41" font-family="Helvetica,sans-Serif" font-size="10.00"> async_server</text>
</g>
<!-- Node4 -->
<g id="node4" class="node"><title>Node4</title>
<g id="a_node4"><a xlink:href="classAsync__Server.html" target="_top" xlink:title="Asynchronous (boost::Asio) Server class to accept new paparazzi connections and pair them with a vrep...">
<polygon fill="none" stroke="black" points="167.5,-145.5 167.5,-164.5 245.5,-164.5 245.5,-145.5 167.5,-145.5"/>
<text text-anchor="middle" x="206.5" y="-152.5" font-family="Helvetica,sans-Serif" font-size="10.00">Async_Server</text>
</a>
</g>
</g>
<!-- Node4&#45;&gt;Node3 -->
<g id="edge4" class="edge"><title>Node4&#45;&gt;Node3</title>
<path fill="none" stroke="#9a32cd" stroke-dasharray="5,2" d="M206.5,-135.236C206.5,-123.408 206.5,-108.383 206.5,-97.5762"/>
<polygon fill="#9a32cd" stroke="#9a32cd" points="203,-135.355 206.5,-145.355 210,-135.355 203,-135.355"/>
<text text-anchor="middle" x="214" y="-119" font-family="Helvetica,sans-Serif" font-size="10.00"> ptr</text>
</g>
</g>
</svg>
