<?xml version="1.0" encoding="UTF-8" standalone="no"?>
<!DOCTYPE svg PUBLIC "-//W3C//DTD SVG 1.1//EN"
 "http://www.w3.org/Graphics/SVG/1.1/DTD/svg11.dtd">
<!-- Generated by graphviz version 2.38.0 (20140413.2041)
 -->
<!-- Title: Async_Server::start_accept Pages: 1 -->
<svg width="423pt" height="88pt"
 viewBox="0.00 0.00 423.00 88.00" xmlns="http://www.w3.org/2000/svg" xmlns:xlink="http://www.w3.org/1999/xlink">
<g id="graph0" class="graph" transform="scale(1 1) rotate(0) translate(4 84)">
<title>Async_Server::start_accept</title>
<!-- Node1 -->
<g id="node1" class="node"><title>Node1</title>
<polygon fill="#bfbfbf" stroke="black" points="0,-0.5 0,-30.5 104,-30.5 104,-0.5 0,-0.5"/>
<text text-anchor="start" x="8" y="-18.5" font-family="Helvetica,sans-Serif" font-size="10.00">Async_Server::start</text>
<text text-anchor="middle" x="52" y="-7.5" font-family="Helvetica,sans-Serif" font-size="10.00">_accept</text>
</g>
<!-- Node2 -->
<g id="node2" class="node"><title>Node2</title>
<g id="a_node2"><a xlink:href="classAsync__Server.html#a33e192d098956111828840a354da0891" target="_top" xlink:title="Server constructor. ">
<polygon fill="none" stroke="black" points="140.5,-49.5 140.5,-79.5 252.5,-79.5 252.5,-49.5 140.5,-49.5"/>
<text text-anchor="start" x="148.5" y="-67.5" font-family="Helvetica,sans-Serif" font-size="10.00">Async_Server::Async</text>
<text text-anchor="middle" x="196.5" y="-56.5" font-family="Helvetica,sans-Serif" font-size="10.00">_Server</text>
</a>
</g>
</g>
<!-- Node1&#45;&gt;Node2 -->
<g id="edge1" class="edge"><title>Node1&#45;&gt;Node2</title>
<path fill="none" stroke="midnightblue" d="M106.48,-33.8896C121.317,-38.9916 137.253,-44.4711 151.482,-49.3641"/>
<polygon fill="midnightblue" stroke="midnightblue" points="107.512,-30.5434 96.9175,-30.6014 105.236,-37.163 107.512,-30.5434"/>
</g>
<!-- Node4 -->
<g id="node4" class="node"><title>Node4</title>
<g id="a_node4"><a xlink:href="classAsync__Server.html#ab012fb8893a186c937c9287bdf10da03" target="_top" xlink:title="Function handling any new connection. ">
<polygon fill="none" stroke="black" points="140,-0.5 140,-30.5 253,-30.5 253,-0.5 140,-0.5"/>
<text text-anchor="start" x="148" y="-18.5" font-family="Helvetica,sans-Serif" font-size="10.00">Async_Server::handle</text>
<text text-anchor="middle" x="196.5" y="-7.5" font-family="Helvetica,sans-Serif" font-size="10.00">_accept</text>
</a>
</g>
</g>
<!-- Node1&#45;&gt;Node4 -->
<g id="edge3" class="edge"><title>Node1&#45;&gt;Node4</title>
<path fill="none" stroke="midnightblue" d="M114.318,-8.80863C122.848,-8.70733 131.571,-8.73729 139.987,-8.89851"/>
<polygon fill="midnightblue" stroke="midnightblue" points="113.977,-5.3142 104.043,-8.9973 114.106,-12.313 113.977,-5.3142"/>
</g>
<!-- Node3 -->
<g id="node3" class="node"><title>Node3</title>
<g id="a_node3"><a xlink:href="classFinkenPlugin.html#a82c0cd5fa1b9fdb5f5a625458a9b545b" target="_top" xlink:title="Called once on the loading of any scene, it checks for the presence of a Dummy object &quot;ScriptLoader&quot; ...">
<polygon fill="none" stroke="black" points="289,-55 289,-74 415,-74 415,-55 289,-55"/>
<text text-anchor="middle" x="352" y="-62" font-family="Helvetica,sans-Serif" font-size="10.00">FinkenPlugin::sceneLoad</text>
</a>
</g>
</g>
<!-- Node2&#45;&gt;Node3 -->
<g id="edge2" class="edge"><title>Node2&#45;&gt;Node3</title>
<path fill="none" stroke="midnightblue" d="M263.195,-64.5C271.721,-64.5 280.433,-64.5 288.898,-64.5"/>
<polygon fill="midnightblue" stroke="midnightblue" points="262.917,-61.0001 252.917,-64.5 262.917,-68.0001 262.917,-61.0001"/>
</g>
<!-- Node4&#45;&gt;Node1 -->
<g id="edge4" class="edge"><title>Node4&#45;&gt;Node1</title>
<path fill="none" stroke="midnightblue" d="M129.886,-22.2312C121.211,-22.2892 112.424,-22.213 104.043,-22.0027"/>
<polygon fill="midnightblue" stroke="midnightblue" points="130.032,-25.7297 139.987,-22.1015 129.942,-18.7303 130.032,-25.7297"/>
</g>
</g>
</svg>
