<?xml version="1.0" encoding="UTF-8" standalone="no"?>
<!DOCTYPE svg PUBLIC "-//W3C//DTD SVG 1.1//EN"
 "http://www.w3.org/Graphics/SVG/1.1/DTD/svg11.dtd">
<!-- Generated by graphviz version 2.38.0 (20140413.2041)
 -->
<!-- Title: Finken Pages: 1 -->
<!--zoomable 224 -->
<svg id="main" version="1.1" xmlns="http://www.w3.org/2000/svg" xmlns:xlink="http://www.w3.org/1999/xlink" xml:space="preserve" onload="init(evt)">
<style type="text/css"><![CDATA[
.edge:hover path { stroke: red; }
.edge:hover polygon { stroke: red; fill: red; }
]]></style>
<script type="text/javascript"><![CDATA[
var edges = document.getElementsByTagName('g');
if (edges && edges.length) {
  for (var i=0;i<edges.length;i++) {
    if (edges[i].id.substr(0,4)=='edge') {
      edges[i].setAttribute('class','edge');
    }
  }
}
]]></script>
        <defs>
                <circle id="rim" cx="0" cy="0" r="7"/>
                <circle id="rim2" cx="0" cy="0" r="3.5"/>
                <g id="zoomPlus">
                        <use xlink:href="#rim" fill="#404040">
                                <set attributeName="fill" to="#808080" begin="zoomplus.mouseover" end="zoomplus.mouseout"/>
                        </use>
                        <path d="M-4,0h8M0,-4v8" fill="none" stroke="white" stroke-width="1.5" pointer-events="none"/>
                </g>
                <g id="zoomMin">
                        <use xlink:href="#rim" fill="#404040">
                                <set attributeName="fill" to="#808080" begin="zoomminus.mouseover" end="zoomminus.mouseout"/>
                        </use>
                        <path d="M-4,0h8" fill="none" stroke="white" stroke-width="1.5" pointer-events="none"/>
                </g>
                <g id="dirArrow">
                        <path fill="none" stroke="white" stroke-width="1.5" d="M0,-3.0v7 M-2.5,-0.5L0,-3.0L2.5,-0.5"/>
                </g>
               <g id="resetDef">
                       <use xlink:href="#rim2" fill="#404040">
                               <set attributeName="fill" to="#808080" begin="reset.mouseover" end="reset.mouseout"/>
                       </use>
               </g>
        </defs>

<script type="text/javascript">
var viewWidth = 569;
var viewHeight = 224;
var sectionId = 'dynsection-0';
</script>
<script xlink:href="svgpan.js"/>
<svg id="graph" class="graph">
<g id="viewport">
<title>Finken</title>
<!-- Node1 -->
<g id="node1" class="node"><title>Node1</title>
<polygon fill="#bfbfbf" stroke="black" points="515,-118.5 515,-137.5 561,-137.5 561,-118.5 515,-118.5"/>
<text text-anchor="middle" x="538" y="-125.5" font-family="Helvetica,sans-Serif" font-size="10.00">Finken</text>
</g>
<!-- Node2 -->
<g id="node2" class="node"><title>Node2</title>
<polygon fill="none" stroke="#bfbfbf" points="307,-185 307,-215 427,-215 427,-185 307,-185"/>
<text text-anchor="start" x="315" y="-203" font-family="Helvetica,sans-Serif" font-size="10.00">std::vector&lt; std::unique</text>
<text text-anchor="middle" x="367" y="-192" font-family="Helvetica,sans-Serif" font-size="10.00">_ptr&lt; Sensor &gt; &gt;</text>
</g>
<!-- Node2&#45;&gt;Node1 -->
<g id="edge1" class="edge"><title>Node2&#45;&gt;Node1</title>
<path fill="none" stroke="#9a32cd" stroke-dasharray="5,2" d="M430.735,-181.733C452.239,-174.532 476.13,-165.462 497,-155 506.737,-150.119 516.9,-143.232 524.545,-137.636"/>
<polygon fill="#9a32cd" stroke="#9a32cd" points="429.455,-178.469 421.042,-184.908 431.635,-185.121 429.455,-178.469"/>
<text text-anchor="middle" x="471" y="-179" font-family="Helvetica,sans-Serif" font-size="10.00"> sensors</text>
</g>
<!-- Node3 -->
<g id="node3" class="node"><title>Node3</title>
<polygon fill="none" stroke="#bfbfbf" points="98,-190.5 98,-209.5 228,-209.5 228,-190.5 98,-190.5"/>
<text text-anchor="middle" x="163" y="-197.5" font-family="Helvetica,sans-Serif" font-size="10.00">std::unique_ptr&lt; Sensor &gt;</text>
</g>
<!-- Node3&#45;&gt;Node2 -->
<g id="edge2" class="edge"><title>Node3&#45;&gt;Node2</title>
<path fill="none" stroke="#9a32cd" stroke-dasharray="5,2" d="M238.395,-200C260.934,-200 285.375,-200 306.778,-200"/>
<polygon fill="#9a32cd" stroke="#9a32cd" points="238.192,-196.5 228.192,-200 238.192,-203.5 238.192,-196.5"/>
<text text-anchor="middle" x="267.5" y="-203" font-family="Helvetica,sans-Serif" font-size="10.00"> elements</text>
</g>
<!-- Node4 -->
<g id="node4" class="node"><title>Node4</title>
<g id="a_node4"><a xlink:href="classSensor.html" target="_top" xlink:title="base Sensor class, all sensors should inherit from this ">
<polygon fill="none" stroke="black" points="0,-190.5 0,-209.5 47,-209.5 47,-190.5 0,-190.5"/>
<text text-anchor="middle" x="23.5" y="-197.5" font-family="Helvetica,sans-Serif" font-size="10.00">Sensor</text>
</a>
</g>
</g>
<!-- Node4&#45;&gt;Node3 -->
<g id="edge3" class="edge"><title>Node4&#45;&gt;Node3</title>
<path fill="none" stroke="#9a32cd" stroke-dasharray="5,2" d="M57.2962,-200C69.4575,-200 83.7076,-200 97.7098,-200"/>
<polygon fill="#9a32cd" stroke="#9a32cd" points="57.2054,-196.5 47.2053,-200 57.2053,-203.5 57.2054,-196.5"/>
<text text-anchor="middle" x="72.5" y="-203" font-family="Helvetica,sans-Serif" font-size="10.00"> ptr</text>
</g>
<!-- Node5 -->
<g id="node5" class="node"><title>Node5</title>
<polygon fill="none" stroke="#bfbfbf" points="307,-136 307,-166 427,-166 427,-136 307,-136"/>
<text text-anchor="start" x="315" y="-154" font-family="Helvetica,sans-Serif" font-size="10.00">std::vector&lt; std::unique</text>
<text text-anchor="middle" x="367" y="-143" font-family="Helvetica,sans-Serif" font-size="10.00">_ptr&lt; Rotor &gt; &gt;</text>
</g>
<!-- Node5&#45;&gt;Node1 -->
<g id="edge4" class="edge"><title>Node5&#45;&gt;Node1</title>
<path fill="none" stroke="#9a32cd" stroke-dasharray="5,2" d="M437.189,-141.584C464.893,-137.813 494.868,-133.734 514.662,-131.04"/>
<polygon fill="#9a32cd" stroke="#9a32cd" points="436.545,-138.139 427.108,-142.956 437.489,-145.075 436.545,-138.139"/>
<text text-anchor="middle" x="471" y="-143" font-family="Helvetica,sans-Serif" font-size="10.00"> rotors</text>
</g>
<!-- Node6 -->
<g id="node6" class="node"><title>Node6</title>
<polygon fill="none" stroke="#bfbfbf" points="101.5,-141.5 101.5,-160.5 224.5,-160.5 224.5,-141.5 101.5,-141.5"/>
<text text-anchor="middle" x="163" y="-148.5" font-family="Helvetica,sans-Serif" font-size="10.00">std::unique_ptr&lt; Rotor &gt;</text>
</g>
<!-- Node6&#45;&gt;Node5 -->
<g id="edge5" class="edge"><title>Node6&#45;&gt;Node5</title>
<path fill="none" stroke="#9a32cd" stroke-dasharray="5,2" d="M234.868,-151C258.38,-151 284.29,-151 306.826,-151"/>
<polygon fill="#9a32cd" stroke="#9a32cd" points="234.607,-147.5 224.607,-151 234.607,-154.5 234.607,-147.5"/>
<text text-anchor="middle" x="267.5" y="-154" font-family="Helvetica,sans-Serif" font-size="10.00"> elements</text>
</g>
<!-- Node7 -->
<g id="node7" class="node"><title>Node7</title>
<g id="a_node7"><a xlink:href="classRotor.html" target="_top" xlink:title="Implementation of a force sensor as a rotor. ">
<polygon fill="none" stroke="black" points="3,-141.5 3,-160.5 44,-160.5 44,-141.5 3,-141.5"/>
<text text-anchor="middle" x="23.5" y="-148.5" font-family="Helvetica,sans-Serif" font-size="10.00">Rotor</text>
</a>
</g>
</g>
<!-- Node7&#45;&gt;Node6 -->
<g id="edge6" class="edge"><title>Node7&#45;&gt;Node6</title>
<path fill="none" stroke="#9a32cd" stroke-dasharray="5,2" d="M54.4902,-151C68.228,-151 85.0325,-151 101.237,-151"/>
<polygon fill="#9a32cd" stroke="#9a32cd" points="54.2004,-147.5 44.2004,-151 54.2004,-154.5 54.2004,-147.5"/>
<text text-anchor="middle" x="72.5" y="-154" font-family="Helvetica,sans-Serif" font-size="10.00"> ptr</text>
</g>
<!-- Node8 -->
<g id="node8" class="node"><title>Node8</title>
<g id="a_node8"><a xlink:title="STL class. ">
<polygon fill="none" stroke="#bfbfbf" points="335.5,-97.5 335.5,-116.5 398.5,-116.5 398.5,-97.5 335.5,-97.5"/>
<text text-anchor="middle" x="367" y="-104.5" font-family="Helvetica,sans-Serif" font-size="10.00">std::thread</text>
</a>
</g>
</g>
<!-- Node8&#45;&gt;Node1 -->
<g id="edge7" class="edge"><title>Node8&#45;&gt;Node1</title>
<path fill="none" stroke="#9a32cd" stroke-dasharray="5,2" d="M408.659,-105.668C434.258,-105.62 467.854,-107.012 497,-113 503.103,-114.254 509.507,-116.3 515.358,-118.483"/>
<polygon fill="#9a32cd" stroke="#9a32cd" points="408.533,-102.169 398.566,-105.762 408.598,-109.169 408.533,-102.169"/>
<text text-anchor="middle" x="471" y="-116" font-family="Helvetica,sans-Serif" font-size="10.00"> runThread</text>
</g>
<!-- Node9 -->
<g id="node9" class="node"><title>Node9</title>
<polygon fill="none" stroke="#bfbfbf" points="312,-0.5 312,-19.5 422,-19.5 422,-0.5 312,-0.5"/>
<text text-anchor="middle" x="367" y="-7.5" font-family="Helvetica,sans-Serif" font-size="10.00">std::vector&lt; double &gt;</text>
</g>
<!-- Node9&#45;&gt;Node1 -->
<g id="edge8" class="edge"><title>Node9&#45;&gt;Node1</title>
<path fill="none" stroke="#9a32cd" stroke-dasharray="5,2" d="M432.214,-5.08193C454.696,-6.48606 478.837,-11.8971 497,-26 526.747,-49.0983 534.408,-97.4834 536.352,-118.222"/>
<polygon fill="#9a32cd" stroke="#9a32cd" points="432.151,-1.57726 422.028,-4.70192 431.89,-8.57239 432.151,-1.57726"/>
<text text-anchor="middle" x="471" y="-95" font-family="Helvetica,sans-Serif" font-size="10.00"> commands</text>
<text text-anchor="middle" x="471" y="-84" font-family="Helvetica,sans-Serif" font-size="10.00">accel</text>
<text text-anchor="middle" x="471" y="-73" font-family="Helvetica,sans-Serif" font-size="10.00">rotAccel</text>
<text text-anchor="middle" x="471" y="-62" font-family="Helvetica,sans-Serif" font-size="10.00">vel</text>
<text text-anchor="middle" x="471" y="-51" font-family="Helvetica,sans-Serif" font-size="10.00">quat</text>
<text text-anchor="middle" x="471" y="-40" font-family="Helvetica,sans-Serif" font-size="10.00">rotVel</text>
<text text-anchor="middle" x="471" y="-29" font-family="Helvetica,sans-Serif" font-size="10.00">pos</text>
</g>
</g>
</svg>
        <g id="navigator" transform="translate(0 0)" fill="#404254">
                <rect fill="#f2f5e9" fill-opacity="0.5" stroke="#606060" stroke-width=".5" x="0" y="0" width="60" height="60"/>
                <use id="zoomplus" xlink:href="#zoomPlus" x="17" y="9" onmousedown="handleZoom(evt,'in')"/>
                <use id="zoomminus" xlink:href="#zoomMin" x="42" y="9" onmousedown="handleZoom(evt,'out')"/>
                <use id="reset" xlink:href="#resetDef" x="30" y="36" onmousedown="handleReset()"/>
                <g id="arrowUp" xlink:href="#dirArrow" transform="translate(30 24)" onmousedown="handlePan(0,-1)">
                  <use xlink:href="#rim" fill="#404040">
                        <set attributeName="fill" to="#808080" begin="arrowUp.mouseover" end="arrowUp.mouseout"/>
                  </use>
                  <path fill="none" stroke="white" stroke-width="1.5" d="M0,-3.0v7 M-2.5,-0.5L0,-3.0L2.5,-0.5"/>
                </g>
                <g id="arrowRight" xlink:href="#dirArrow" transform="rotate(90) translate(36 -43)" onmousedown="handlePan(1,0)">
                  <use xlink:href="#rim" fill="#404040">
                        <set attributeName="fill" to="#808080" begin="arrowRight.mouseover" end="arrowRight.mouseout"/>
                  </use>
                  <path fill="none" stroke="white" stroke-width="1.5" d="M0,-3.0v7 M-2.5,-0.5L0,-3.0L2.5,-0.5"/>
                </g>
                <g id="arrowDown" xlink:href="#dirArrow" transform="rotate(180) translate(-30 -48)" onmousedown="handlePan(0,1)">
                  <use xlink:href="#rim" fill="#404040">
                        <set attributeName="fill" to="#808080" begin="arrowDown.mouseover" end="arrowDown.mouseout"/>
                  </use>
                  <path fill="none" stroke="white" stroke-width="1.5" d="M0,-3.0v7 M-2.5,-0.5L0,-3.0L2.5,-0.5"/>
                </g>
                <g id="arrowLeft" xlink:href="#dirArrow" transform="rotate(270) translate(-36 17)" onmousedown="handlePan(-1,0)">
                  <use xlink:href="#rim" fill="#404040">
                        <set attributeName="fill" to="#808080" begin="arrowLeft.mouseover" end="arrowLeft.mouseout"/>
                  </use>
                  <path fill="none" stroke="white" stroke-width="1.5" d="M0,-3.0v7 M-2.5,-0.5L0,-3.0L2.5,-0.5"/>
                </g>
        </g>
        <svg viewBox="0 0 15 15" width="100%" height="30px" preserveAspectRatio="xMaxYMin meet">
         <g id="arrow_out" transform="scale(0.3 0.3)">
          <a xlink:href="classFinken__coll__graph_org.svg" target="_base">
           <rect id="button" ry="5" rx="5" y="6" x="6" height="38" width="38"
                fill="#f2f5e9" fill-opacity="0.5" stroke="#606060" stroke-width="1.0"/>
           <path id="arrow"
             d="M 11.500037,31.436501 C 11.940474,20.09759 22.043105,11.32322 32.158766,21.979434 L 37.068811,17.246167 C 37.068811,17.246167 37.088388,32 37.088388,32 L 22.160133,31.978069 C 22.160133,31.978069 26.997745,27.140456 26.997745,27.140456 C 18.528582,18.264221 13.291696,25.230495 11.500037,31.436501 z"
             style="fill:#404040;"/>
          </a>
         </g>
        </svg>
</svg>
