<?xml version="1.0" encoding="UTF-8" standalone="no"?>
<!DOCTYPE svg PUBLIC "-//W3C//DTD SVG 1.1//EN"
 "http://www.w3.org/Graphics/SVG/1.1/DTD/svg11.dtd">
<!-- Generated by graphviz version 2.38.0 (20140413.2041)
 -->
<!-- Title: Log Pages: 1 -->
<svg width="230pt" height="288pt"
 viewBox="0.00 0.00 229.50 288.00" xmlns="http://www.w3.org/2000/svg" xmlns:xlink="http://www.w3.org/1999/xlink">
<g id="graph0" class="graph" transform="scale(1 1) rotate(0) translate(4 284)">
<title>Log</title>
<!-- Node1 -->
<g id="node1" class="node"><title>Node1</title>
<polygon fill="#bfbfbf" stroke="black" points="86.5,-0.5 86.5,-19.5 118.5,-19.5 118.5,-0.5 86.5,-0.5"/>
<text text-anchor="middle" x="102.5" y="-7.5" font-family="Helvetica,sans-Serif" font-size="10.00">Log</text>
</g>
<!-- Node2 -->
<g id="node2" class="node"><title>Node2</title>
<g id="a_node2"><a xlink:title="STL class. ">
<polygon fill="none" stroke="#bfbfbf" points="25.5,-78.5 25.5,-97.5 85.5,-97.5 85.5,-78.5 25.5,-78.5"/>
<text text-anchor="middle" x="55.5" y="-85.5" font-family="Helvetica,sans-Serif" font-size="10.00">std::string</text>
</a>
</g>
</g>
<!-- Node2&#45;&gt;Node1 -->
<g id="edge1" class="edge"><title>Node2&#45;&gt;Node1</title>
<path fill="none" stroke="#9a32cd" stroke-dasharray="5,2" d="M61.0983,-68.4676C64.4584,-58.9146 69.2932,-47.3414 75.5,-38 80.0492,-31.1534 86.526,-24.6048 91.9958,-19.6717"/>
<polygon fill="#9a32cd" stroke="#9a32cd" points="57.7078,-67.5759 57.9368,-78.1682 64.3633,-69.745 57.7078,-67.5759"/>
<text text-anchor="middle" x="94.5" y="-46.5" font-family="Helvetica,sans-Serif" font-size="10.00"> mName</text>
</g>
<!-- Node3 -->
<g id="node3" class="node"><title>Node3</title>
<g id="a_node3"><a xlink:title="STL class. ">
<polygon fill="none" stroke="#bfbfbf" points="0,-135.5 0,-165.5 95,-165.5 95,-135.5 0,-135.5"/>
<text text-anchor="start" x="8" y="-153.5" font-family="Helvetica,sans-Serif" font-size="10.00">std::basic_string&lt;</text>
<text text-anchor="middle" x="47.5" y="-142.5" font-family="Helvetica,sans-Serif" font-size="10.00"> char &gt;</text>
</a>
</g>
</g>
<!-- Node3&#45;&gt;Node2 -->
<g id="edge2" class="edge"><title>Node3&#45;&gt;Node2</title>
<path fill="none" stroke="midnightblue" d="M50.6931,-125.352C51.9941,-115.513 53.414,-104.775 54.3708,-97.5399"/>
<polygon fill="midnightblue" stroke="midnightblue" points="47.1967,-125.095 49.3555,-135.468 54.1363,-126.013 47.1967,-125.095"/>
</g>
<!-- Node4 -->
<g id="node4" class="node"><title>Node4</title>
<g id="a_node4"><a xlink:title="STL class. ">
<polygon fill="none" stroke="#bfbfbf" points="108,-78.5 108,-97.5 179,-97.5 179,-78.5 108,-78.5"/>
<text text-anchor="middle" x="143.5" y="-85.5" font-family="Helvetica,sans-Serif" font-size="10.00">std::ostream</text>
</a>
</g>
</g>
<!-- Node4&#45;&gt;Node1 -->
<g id="edge3" class="edge"><title>Node4&#45;&gt;Node1</title>
<path fill="none" stroke="#9a32cd" stroke-dasharray="5,2" d="M133.855,-69.1216C125.444,-53.5297 113.606,-31.5862 107.148,-19.6165"/>
<polygon fill="#9a32cd" stroke="#9a32cd" points="130.968,-71.1426 138.797,-78.2818 137.129,-67.819 130.968,-71.1426"/>
<text text-anchor="middle" x="155.5" y="-52" font-family="Helvetica,sans-Serif" font-size="10.00"> mErrStream</text>
<text text-anchor="middle" x="155.5" y="-41" font-family="Helvetica,sans-Serif" font-size="10.00">mOutStream</text>
</g>
<!-- Node5 -->
<g id="node5" class="node"><title>Node5</title>
<g id="a_node5"><a xlink:title="STL class. ">
<polygon fill="none" stroke="#bfbfbf" points="113.5,-135.5 113.5,-165.5 213.5,-165.5 213.5,-135.5 113.5,-135.5"/>
<text text-anchor="start" x="121.5" y="-153.5" font-family="Helvetica,sans-Serif" font-size="10.00">std::basic_ostream</text>
<text text-anchor="middle" x="163.5" y="-142.5" font-family="Helvetica,sans-Serif" font-size="10.00">&lt; char &gt;</text>
</a>
</g>
</g>
<!-- Node5&#45;&gt;Node4 -->
<g id="edge4" class="edge"><title>Node5&#45;&gt;Node4</title>
<path fill="none" stroke="midnightblue" d="M155.621,-125.666C152.34,-115.742 148.74,-104.852 146.323,-97.5399"/>
<polygon fill="midnightblue" stroke="midnightblue" points="152.399,-127.072 158.861,-135.468 159.046,-124.875 152.399,-127.072"/>
</g>
<!-- Node6 -->
<g id="node6" class="node"><title>Node6</title>
<g id="a_node6"><a xlink:title="STL class. ">
<polygon fill="none" stroke="#bfbfbf" points="105.5,-203.5 105.5,-222.5 221.5,-222.5 221.5,-203.5 105.5,-203.5"/>
<text text-anchor="middle" x="163.5" y="-210.5" font-family="Helvetica,sans-Serif" font-size="10.00">std::basic_ios&lt; Char &gt;</text>
</a>
</g>
</g>
<!-- Node6&#45;&gt;Node5 -->
<g id="edge5" class="edge"><title>Node6&#45;&gt;Node5</title>
<path fill="none" stroke="midnightblue" d="M163.5,-193.215C163.5,-184.356 163.5,-173.958 163.5,-165.759"/>
<polygon fill="midnightblue" stroke="midnightblue" points="160,-193.332 163.5,-203.332 167,-193.332 160,-193.332"/>
</g>
<!-- Node7 -->
<g id="node7" class="node"><title>Node7</title>
<g id="a_node7"><a xlink:title="STL class. ">
<polygon fill="none" stroke="#bfbfbf" points="126,-260.5 126,-279.5 201,-279.5 201,-260.5 126,-260.5"/>
<text text-anchor="middle" x="163.5" y="-267.5" font-family="Helvetica,sans-Serif" font-size="10.00">std::ios_base</text>
</a>
</g>
</g>
<!-- Node7&#45;&gt;Node6 -->
<g id="edge6" class="edge"><title>Node7&#45;&gt;Node6</title>
<path fill="none" stroke="midnightblue" d="M163.5,-250.117C163.5,-240.817 163.5,-230.056 163.5,-222.715"/>
<polygon fill="midnightblue" stroke="midnightblue" points="160,-250.406 163.5,-260.406 167,-250.406 160,-250.406"/>
</g>
</g>
</svg>
