<?xml version="1.0" encoding="UTF-8" standalone="no"?>
<!DOCTYPE svg PUBLIC "-//W3C//DTD SVG 1.1//EN"
 "http://www.w3.org/Graphics/SVG/1.1/DTD/svg11.dtd">
<!-- Generated by graphviz version 2.38.0 (20140413.2041)
 -->
<!-- Title: Log::out Pages: 1 -->
<svg width="203pt" height="66pt"
 viewBox="0.00 0.00 203.00 66.00" xmlns="http://www.w3.org/2000/svg" xmlns:xlink="http://www.w3.org/1999/xlink">
<g id="graph0" class="graph" transform="scale(1 1) rotate(0) translate(4 62)">
<title>Log::out</title>
<!-- Node1 -->
<g id="node1" class="node"><title>Node1</title>
<polygon fill="#bfbfbf" stroke="black" points="0,-19.5 0,-38.5 52,-38.5 52,-19.5 0,-19.5"/>
<text text-anchor="middle" x="26" y="-26.5" font-family="Helvetica,sans-Serif" font-size="10.00">Log::out</text>
</g>
<!-- Node2 -->
<g id="node2" class="node"><title>Node2</title>
<g id="a_node2"><a xlink:href="classFinkenPlugin.html#afbe5d82635afe4b0c407de4724e8ee14" target="_top" xlink:title="Loads the plugin into V&#45;REP. ">
<polygon fill="none" stroke="black" points="93,-38.5 93,-57.5 190,-57.5 190,-38.5 93,-38.5"/>
<text text-anchor="middle" x="141.5" y="-45.5" font-family="Helvetica,sans-Serif" font-size="10.00">FinkenPlugin::load</text>
</a>
</g>
</g>
<!-- Node1&#45;&gt;Node2 -->
<g id="edge1" class="edge"><title>Node1&#45;&gt;Node2</title>
<path fill="none" stroke="midnightblue" d="M62.1702,-34.8875C71.7782,-36.4959 82.3558,-38.2666 92.5457,-39.9724"/>
<polygon fill="midnightblue" stroke="midnightblue" points="62.63,-31.4159 52.1893,-33.2167 61.4742,-38.3198 62.63,-31.4159"/>
</g>
<!-- Node3 -->
<g id="node3" class="node"><title>Node3</title>
<g id="a_node3"><a xlink:href="classFinkenPlugin.html#ae9c984b362c6a828206fa6201291851c" target="_top" xlink:title="unloads the plugin ">
<polygon fill="none" stroke="black" points="88,-0.5 88,-19.5 195,-19.5 195,-0.5 88,-0.5"/>
<text text-anchor="middle" x="141.5" y="-7.5" font-family="Helvetica,sans-Serif" font-size="10.00">FinkenPlugin::unload</text>
</a>
</g>
</g>
<!-- Node1&#45;&gt;Node3 -->
<g id="edge2" class="edge"><title>Node1&#45;&gt;Node3</title>
<path fill="none" stroke="midnightblue" d="M62.1163,-23.1215C70.3014,-21.7513 79.1927,-20.2629 87.9498,-18.7969"/>
<polygon fill="midnightblue" stroke="midnightblue" points="61.4742,-19.6802 52.1893,-24.7833 62.63,-26.5841 61.4742,-19.6802"/>
</g>
</g>
</svg>
