<?xml version="1.0" encoding="UTF-8" standalone="no"?>
<!DOCTYPE svg PUBLIC "-//W3C//DTD SVG 1.1//EN"
 "http://www.w3.org/Graphics/SVG/1.1/DTD/svg11.dtd">
<!-- Generated by graphviz version 2.38.0 (20140413.2041)
 -->
<!-- Title: VREPPlugin::name Pages: 1 -->
<svg width="225pt" height="104pt"
 viewBox="0.00 0.00 225.00 104.00" xmlns="http://www.w3.org/2000/svg" xmlns:xlink="http://www.w3.org/1999/xlink">
<g id="graph0" class="graph" transform="scale(1 1) rotate(0) translate(4 100)">
<title>VREPPlugin::name</title>
<!-- Node1 -->
<g id="node1" class="node"><title>Node1</title>
<polygon fill="#bfbfbf" stroke="black" points="0,-38.5 0,-57.5 101,-57.5 101,-38.5 0,-38.5"/>
<text text-anchor="middle" x="50.5" y="-45.5" font-family="Helvetica,sans-Serif" font-size="10.00">VREPPlugin::name</text>
</g>
<!-- Node2 -->
<g id="node2" class="node"><title>Node2</title>
<g id="a_node2"><a xlink:href="skeleton_8cpp.html#af17a7ec1007534f93373d28449776791" target="_top" xlink:title="v_repStart">
<polygon fill="none" stroke="black" points="146,-76.5 146,-95.5 208,-95.5 208,-76.5 146,-76.5"/>
<text text-anchor="middle" x="177" y="-83.5" font-family="Helvetica,sans-Serif" font-size="10.00">v_repStart</text>
</a>
</g>
</g>
<!-- Node1&#45;&gt;Node2 -->
<g id="edge1" class="edge"><title>Node1&#45;&gt;Node2</title>
<path fill="none" stroke="midnightblue" d="M92.7981,-60.605C110.144,-65.8995 129.948,-71.944 145.882,-76.8073"/>
<polygon fill="midnightblue" stroke="midnightblue" points="93.5028,-57.1608 82.9166,-57.589 91.4593,-63.8559 93.5028,-57.1608"/>
</g>
<!-- Node3 -->
<g id="node3" class="node"><title>Node3</title>
<g id="a_node3"><a xlink:href="skeleton_8cpp.html#af26d39e198d72e89ff60386e9fd18516" target="_top" xlink:title="v_repEnd">
<polygon fill="none" stroke="black" points="148,-38.5 148,-57.5 206,-57.5 206,-38.5 148,-38.5"/>
<text text-anchor="middle" x="177" y="-45.5" font-family="Helvetica,sans-Serif" font-size="10.00">v_repEnd</text>
</a>
</g>
</g>
<!-- Node1&#45;&gt;Node3 -->
<g id="edge2" class="edge"><title>Node1&#45;&gt;Node3</title>
<path fill="none" stroke="midnightblue" d="M111.217,-48C123.967,-48 136.858,-48 147.748,-48"/>
<polygon fill="midnightblue" stroke="midnightblue" points="111.063,-44.5001 101.063,-48 111.063,-51.5001 111.063,-44.5001"/>
</g>
<!-- Node4 -->
<g id="node4" class="node"><title>Node4</title>
<g id="a_node4"><a xlink:href="skeleton_8cpp.html#a2edf50a75bd96c6ed31c1da66828af6e" target="_top" xlink:title="v_repMessage">
<polygon fill="none" stroke="black" points="137,-0.5 137,-19.5 217,-19.5 217,-0.5 137,-0.5"/>
<text text-anchor="middle" x="177" y="-7.5" font-family="Helvetica,sans-Serif" font-size="10.00">v_repMessage</text>
</a>
</g>
</g>
<!-- Node1&#45;&gt;Node4 -->
<g id="edge3" class="edge"><title>Node1&#45;&gt;Node4</title>
<path fill="none" stroke="midnightblue" d="M92.5696,-35.4647C109.506,-30.2952 128.818,-24.4009 144.593,-19.5859"/>
<polygon fill="midnightblue" stroke="midnightblue" points="91.4593,-32.1441 82.9166,-38.411 93.5028,-38.8392 91.4593,-32.1441"/>
</g>
</g>
</svg>
