<?xml version="1.0" encoding="UTF-8" standalone="no"?>
<!DOCTYPE svg PUBLIC "-//W3C//DTD SVG 1.1//EN"
 "http://www.w3.org/Graphics/SVG/1.1/DTD/svg11.dtd">
<!-- Generated by graphviz version 2.38.0 (20140413.2041)
 -->
<!-- Title: Finken::addRotor Pages: 1 -->
<svg width="324pt" height="66pt"
 viewBox="0.00 0.00 324.00 66.00" xmlns="http://www.w3.org/2000/svg" xmlns:xlink="http://www.w3.org/1999/xlink">
<g id="graph0" class="graph" transform="scale(1 1) rotate(0) translate(4 62)">
<title>Finken::addRotor</title>
<!-- Node1 -->
<g id="node1" class="node"><title>Node1</title>
<polygon fill="#bfbfbf" stroke="black" points="0,-19.5 0,-38.5 92,-38.5 92,-19.5 0,-19.5"/>
<text text-anchor="middle" x="46" y="-26.5" font-family="Helvetica,sans-Serif" font-size="10.00">Finken::addRotor</text>
</g>
<!-- Node2 -->
<g id="node2" class="node"><title>Node2</title>
<g id="a_node2"><a xlink:href="finken_8h.html#ab8920c514423348469521fe0063534c4" target="_top" xlink:title="Constructs a complete FINken from an empty FINken object using its handle. ">
<polygon fill="none" stroke="black" points="128,-19.5 128,-38.5 194,-38.5 194,-19.5 128,-19.5"/>
<text text-anchor="middle" x="161" y="-26.5" font-family="Helvetica,sans-Serif" font-size="10.00">buildFinken</text>
</a>
</g>
</g>
<!-- Node1&#45;&gt;Node2 -->
<g id="edge1" class="edge"><title>Node1&#45;&gt;Node2</title>
<path fill="none" stroke="midnightblue" d="M102.475,-29C111.189,-29 119.936,-29 127.886,-29"/>
<polygon fill="midnightblue" stroke="midnightblue" points="102.31,-25.5001 92.3103,-29 102.31,-32.5001 102.31,-25.5001"/>
</g>
<!-- Node3 -->
<g id="node3" class="node"><title>Node3</title>
<g id="a_node3"><a xlink:href="classFinken.html#ae3c3abbf571407e210f4b03b68cada9d" target="_top" xlink:title="Main function containing the Paparazzi&#45;V&#45;REP communication loop. ">
<polygon fill="none" stroke="black" points="240.5,-38.5 240.5,-57.5 305.5,-57.5 305.5,-38.5 240.5,-38.5"/>
<text text-anchor="middle" x="273" y="-45.5" font-family="Helvetica,sans-Serif" font-size="10.00">Finken::run</text>
</a>
</g>
</g>
<!-- Node2&#45;&gt;Node3 -->
<g id="edge2" class="edge"><title>Node2&#45;&gt;Node3</title>
<path fill="none" stroke="midnightblue" d="M204.004,-36.2552C216.094,-38.3435 229.073,-40.5853 240.417,-42.5448"/>
<polygon fill="midnightblue" stroke="midnightblue" points="204.562,-32.7999 194.112,-34.5467 203.371,-39.6977 204.562,-32.7999"/>
</g>
<!-- Node4 -->
<g id="node4" class="node"><title>Node4</title>
<g id="a_node4"><a xlink:href="classFinken.html#aa4779668e3bf85253e371b30e0da808a" target="_top" xlink:title="Called in the accept handler, this function passes the incoming connection to the corresponding finke...">
<polygon fill="none" stroke="black" points="230,-0.5 230,-19.5 316,-19.5 316,-0.5 230,-0.5"/>
<text text-anchor="middle" x="273" y="-7.5" font-family="Helvetica,sans-Serif" font-size="10.00">Finken::connect</text>
</a>
</g>
</g>
<!-- Node2&#45;&gt;Node4 -->
<g id="edge3" class="edge"><title>Node2&#45;&gt;Node4</title>
<path fill="none" stroke="midnightblue" d="M204.117,-21.7252C212.54,-20.2704 221.39,-18.7417 229.815,-17.2865"/>
<polygon fill="midnightblue" stroke="midnightblue" points="203.371,-18.3023 194.112,-23.4533 204.562,-25.2001 203.371,-18.3023"/>
</g>
</g>
</svg>
