<?xml version="1.0" encoding="UTF-8" standalone="no"?>
<!DOCTYPE svg PUBLIC "-//W3C//DTD SVG 1.1//EN"
 "http://www.w3.org/Graphics/SVG/1.1/DTD/svg11.dtd">
<!-- Generated by graphviz version 2.38.0 (20140413.2041)
 -->
<!-- Title: Async_Server::start_accept Pages: 1 -->
<svg width="261pt" height="39pt"
 viewBox="0.00 0.00 261.00 39.00" xmlns="http://www.w3.org/2000/svg" xmlns:xlink="http://www.w3.org/1999/xlink">
<g id="graph0" class="graph" transform="scale(1 1) rotate(0) translate(4 35)">
<title>Async_Server::start_accept</title>
<!-- Node1 -->
<g id="node1" class="node"><title>Node1</title>
<polygon fill="#bfbfbf" stroke="black" points="0,-0.5 0,-30.5 104,-30.5 104,-0.5 0,-0.5"/>
<text text-anchor="start" x="8" y="-18.5" font-family="Helvetica,sans-Serif" font-size="10.00">Async_Server::start</text>
<text text-anchor="middle" x="52" y="-7.5" font-family="Helvetica,sans-Serif" font-size="10.00">_accept</text>
</g>
<!-- Node2 -->
<g id="node2" class="node"><title>Node2</title>
<g id="a_node2"><a xlink:href="classAsync__Server.html#ab012fb8893a186c937c9287bdf10da03" target="_top" xlink:title="Function handling any new connection. ">
<polygon fill="none" stroke="black" points="140,-0.5 140,-30.5 253,-30.5 253,-0.5 140,-0.5"/>
<text text-anchor="start" x="148" y="-18.5" font-family="Helvetica,sans-Serif" font-size="10.00">Async_Server::handle</text>
<text text-anchor="middle" x="196.5" y="-7.5" font-family="Helvetica,sans-Serif" font-size="10.00">_accept</text>
</a>
</g>
</g>
<!-- Node1&#45;&gt;Node2 -->
<g id="edge1" class="edge"><title>Node1&#45;&gt;Node2</title>
<path fill="none" stroke="midnightblue" d="M104.043,-8.9973C112.424,-8.78697 121.211,-8.71081 129.886,-8.7688"/>
<polygon fill="midnightblue" stroke="midnightblue" points="129.942,-12.2697 139.987,-8.89851 130.032,-5.2703 129.942,-12.2697"/>
</g>
<!-- Node2&#45;&gt;Node1 -->
<g id="edge2" class="edge"><title>Node2&#45;&gt;Node1</title>
<path fill="none" stroke="midnightblue" d="M139.987,-22.1015C131.571,-22.2627 122.848,-22.2927 114.318,-22.1914"/>
<polygon fill="midnightblue" stroke="midnightblue" points="114.106,-18.687 104.043,-22.0027 113.977,-25.6858 114.106,-18.687"/>
</g>
</g>
</svg>
