<?xml version="1.0" encoding="UTF-8" standalone="no"?>
<!DOCTYPE svg PUBLIC "-//W3C//DTD SVG 1.1//EN"
 "http://www.w3.org/Graphics/SVG/1.1/DTD/svg11.dtd">
<!-- Generated by graphviz version 2.38.0 (20140413.2041)
 -->
<!-- Title: Sensor Pages: 1 -->
<svg width="346pt" height="84pt"
 viewBox="0.00 0.00 345.50 84.00" xmlns="http://www.w3.org/2000/svg" xmlns:xlink="http://www.w3.org/1999/xlink">
<g id="graph0" class="graph" transform="scale(1 1) rotate(0) translate(4 80)">
<title>Sensor</title>
<!-- Node1 -->
<g id="node1" class="node"><title>Node1</title>
<polygon fill="#bfbfbf" stroke="black" points="163,-56.5 163,-75.5 210,-75.5 210,-56.5 163,-56.5"/>
<text text-anchor="middle" x="186.5" y="-63.5" font-family="Helvetica,sans-Serif" font-size="10.00">Sensor</text>
</g>
<!-- Node2 -->
<g id="node2" class="node"><title>Node2</title>
<g id="a_node2"><a xlink:href="classAttitudeSensor.html" target="_top" xlink:title="Currently unused class for an attitude sensor. ">
<polygon fill="none" stroke="black" points="0,-0.5 0,-19.5 81,-19.5 81,-0.5 0,-0.5"/>
<text text-anchor="middle" x="40.5" y="-7.5" font-family="Helvetica,sans-Serif" font-size="10.00">AttitudeSensor</text>
</a>
</g>
</g>
<!-- Node1&#45;&gt;Node2 -->
<g id="edge1" class="edge"><title>Node1&#45;&gt;Node2</title>
<path fill="none" stroke="midnightblue" d="M153.801,-52.9058C126.352,-42.7536 87.8318,-28.5063 63.5259,-19.5164"/>
<polygon fill="midnightblue" stroke="midnightblue" points="152.773,-56.2572 163.366,-56.4435 155.201,-49.6919 152.773,-56.2572"/>
</g>
<!-- Node3 -->
<g id="node3" class="node"><title>Node3</title>
<g id="a_node3"><a xlink:href="classHeightSensor.html" target="_top" xlink:title="Class implementing a heightsensor. ">
<polygon fill="none" stroke="black" points="99.5,-0.5 99.5,-19.5 175.5,-19.5 175.5,-0.5 99.5,-0.5"/>
<text text-anchor="middle" x="137.5" y="-7.5" font-family="Helvetica,sans-Serif" font-size="10.00">HeightSensor</text>
</a>
</g>
</g>
<!-- Node1&#45;&gt;Node3 -->
<g id="edge2" class="edge"><title>Node1&#45;&gt;Node3</title>
<path fill="none" stroke="midnightblue" d="M171.466,-48.4314C162.878,-38.9673 152.457,-27.4827 145.441,-19.7511"/>
<polygon fill="midnightblue" stroke="midnightblue" points="169.097,-51.0293 178.409,-56.083 174.281,-46.3254 169.097,-51.0293"/>
</g>
<!-- Node4 -->
<g id="node4" class="node"><title>Node4</title>
<g id="a_node4"><a xlink:href="classPositionSensor.html" target="_top" xlink:title="wrapper to disguise vrep API calls as a position sensor ">
<polygon fill="none" stroke="black" points="194,-0.5 194,-19.5 277,-19.5 277,-0.5 194,-0.5"/>
<text text-anchor="middle" x="235.5" y="-7.5" font-family="Helvetica,sans-Serif" font-size="10.00">PositionSensor</text>
</a>
</g>
</g>
<!-- Node1&#45;&gt;Node4 -->
<g id="edge3" class="edge"><title>Node1&#45;&gt;Node4</title>
<path fill="none" stroke="midnightblue" d="M201.534,-48.4314C210.122,-38.9673 220.543,-27.4827 227.559,-19.7511"/>
<polygon fill="midnightblue" stroke="midnightblue" points="198.719,-46.3254 194.591,-56.083 203.903,-51.0293 198.719,-46.3254"/>
</g>
<!-- Node5 -->
<g id="node5" class="node"><title>Node5</title>
<g id="a_node5"><a xlink:href="classSonar.html" target="_top" xlink:title="implementation of a proximitysensor as sonar ">
<polygon fill="none" stroke="black" points="295.5,-0.5 295.5,-19.5 337.5,-19.5 337.5,-0.5 295.5,-0.5"/>
<text text-anchor="middle" x="316.5" y="-7.5" font-family="Helvetica,sans-Serif" font-size="10.00">Sonar</text>
</a>
</g>
</g>
<!-- Node1&#45;&gt;Node5 -->
<g id="edge4" class="edge"><title>Node1&#45;&gt;Node5</title>
<path fill="none" stroke="midnightblue" d="M216.585,-52.503C240.957,-42.3795 274.64,-28.388 295.997,-19.5164"/>
<polygon fill="midnightblue" stroke="midnightblue" points="214.991,-49.3752 207.099,-56.4435 217.677,-55.8397 214.991,-49.3752"/>
</g>
</g>
</svg>
