<?xml version="1.0" encoding="UTF-8" standalone="no"?>
<!DOCTYPE svg PUBLIC "-//W3C//DTD SVG 1.1//EN"
 "http://www.w3.org/Graphics/SVG/1.1/DTD/svg11.dtd">
<!-- Generated by graphviz version 2.38.0 (20140413.2041)
 -->
<!-- Title: Finken::connect Pages: 1 -->
<svg width="361pt" height="85pt"
 viewBox="0.00 0.00 361.00 85.00" xmlns="http://www.w3.org/2000/svg" xmlns:xlink="http://www.w3.org/1999/xlink">
<g id="graph0" class="graph" transform="scale(1 1) rotate(0) translate(4 81)">
<title>Finken::connect</title>
<!-- Node1 -->
<g id="node1" class="node"><title>Node1</title>
<polygon fill="#bfbfbf" stroke="black" points="0,-19.5 0,-38.5 86,-38.5 86,-19.5 0,-19.5"/>
<text text-anchor="middle" x="43" y="-26.5" font-family="Helvetica,sans-Serif" font-size="10.00">Finken::connect</text>
</g>
<!-- Node2 -->
<g id="node2" class="node"><title>Node2</title>
<g id="a_node2"><a xlink:href="finken_8h.html#ab8920c514423348469521fe0063534c4" target="_top" xlink:title="Constructs a complete FINken from an empty FINken object using its handle. ">
<polygon fill="none" stroke="black" points="137.5,-38.5 137.5,-57.5 203.5,-57.5 203.5,-38.5 137.5,-38.5"/>
<text text-anchor="middle" x="170.5" y="-45.5" font-family="Helvetica,sans-Serif" font-size="10.00">buildFinken</text>
</a>
</g>
</g>
<!-- Node1&#45;&gt;Node2 -->
<g id="edge1" class="edge"><title>Node1&#45;&gt;Node2</title>
<path fill="none" stroke="midnightblue" d="M86.1388,-35.3796C99.2869,-37.3701 113.793,-39.5663 126.968,-41.5609"/>
<polygon fill="midnightblue" stroke="midnightblue" points="126.786,-45.0731 137.197,-43.1095 127.834,-38.152 126.786,-45.0731"/>
</g>
<!-- Node5 -->
<g id="node5" class="node"><title>Node5</title>
<g id="a_node5"><a xlink:href="finken_8h.html#a4e838d73ad5e098825ef4c227f6369b6" target="_top" xlink:title="Calculates thrust forces (Newton) from the rotor commands. ">
<polygon fill="none" stroke="black" points="122,-0.5 122,-19.5 219,-19.5 219,-0.5 122,-0.5"/>
<text text-anchor="middle" x="170.5" y="-7.5" font-family="Helvetica,sans-Serif" font-size="10.00">thrustFromThrottle</text>
</a>
</g>
</g>
<!-- Node1&#45;&gt;Node5 -->
<g id="edge4" class="edge"><title>Node1&#45;&gt;Node5</title>
<path fill="none" stroke="midnightblue" d="M86.1388,-22.6204C94.3279,-21.3806 103.044,-20.0611 111.637,-18.7602"/>
<polygon fill="midnightblue" stroke="midnightblue" points="112.265,-22.205 121.629,-17.2475 111.217,-15.2839 112.265,-22.205"/>
</g>
<!-- Node3 -->
<g id="node3" class="node"><title>Node3</title>
<g id="a_node3"><a xlink:href="classFinken.html#a2f2adb211e80a689f580b87730aeb9d1" target="_top" xlink:title="Adding sensors to the copter. ">
<polygon fill="none" stroke="black" points="255,-57.5 255,-76.5 353,-76.5 353,-57.5 255,-57.5"/>
<text text-anchor="middle" x="304" y="-64.5" font-family="Helvetica,sans-Serif" font-size="10.00">Finken::addSensor</text>
</a>
</g>
</g>
<!-- Node2&#45;&gt;Node3 -->
<g id="edge2" class="edge"><title>Node2&#45;&gt;Node3</title>
<path fill="none" stroke="midnightblue" d="M203.669,-52.6479C216.089,-54.4425 230.695,-56.5529 244.828,-58.5949"/>
<polygon fill="midnightblue" stroke="midnightblue" points="244.599,-62.0982 254.997,-60.0642 245.6,-55.1701 244.599,-62.0982"/>
</g>
<!-- Node4 -->
<g id="node4" class="node"><title>Node4</title>
<g id="a_node4"><a xlink:href="classFinken.html#a4ac9d9b37fba41147a83a36286fbe91b" target="_top" xlink:title="Adding rotors to the copter. ">
<polygon fill="none" stroke="black" points="258,-19.5 258,-38.5 350,-38.5 350,-19.5 258,-19.5"/>
<text text-anchor="middle" x="304" y="-26.5" font-family="Helvetica,sans-Serif" font-size="10.00">Finken::addRotor</text>
</a>
</g>
</g>
<!-- Node2&#45;&gt;Node4 -->
<g id="edge3" class="edge"><title>Node2&#45;&gt;Node4</title>
<path fill="none" stroke="midnightblue" d="M203.669,-43.3521C216.889,-41.4419 232.586,-39.1739 247.553,-37.0114"/>
<polygon fill="midnightblue" stroke="midnightblue" points="248.361,-40.431 257.758,-35.5369 247.36,-33.5029 248.361,-40.431"/>
</g>
</g>
</svg>
