<?xml version="1.0" encoding="UTF-8" standalone="no"?>
<!DOCTYPE svg PUBLIC "-//W3C//DTD SVG 1.1//EN"
 "http://www.w3.org/Graphics/SVG/1.1/DTD/svg11.dtd">
<!-- Generated by graphviz version 2.38.0 (20140413.2041)
 -->
<!-- Title: Finken::setRotorSpeeds Pages: 1 -->
<svg width="263pt" height="66pt"
 viewBox="0.00 0.00 263.00 66.00" xmlns="http://www.w3.org/2000/svg" xmlns:xlink="http://www.w3.org/1999/xlink">
<g id="graph0" class="graph" transform="scale(1 1) rotate(0) translate(4 62)">
<title>Finken::setRotorSpeeds</title>
<!-- Node1 -->
<g id="node1" class="node"><title>Node1</title>
<polygon fill="#bfbfbf" stroke="black" points="0,-19.5 0,-38.5 122,-38.5 122,-19.5 0,-19.5"/>
<text text-anchor="middle" x="61" y="-26.5" font-family="Helvetica,sans-Serif" font-size="10.00">Finken::setRotorSpeeds</text>
</g>
<!-- Node2 -->
<g id="node2" class="node"><title>Node2</title>
<g id="a_node2"><a xlink:href="finken_8cpp.html#a4e838d73ad5e098825ef4c227f6369b6" target="_top" xlink:title="Calculates thrust forces (Newton) from the rotor commands. ">
<polygon fill="none" stroke="black" points="158,-38.5 158,-57.5 255,-57.5 255,-38.5 158,-38.5"/>
<text text-anchor="middle" x="206.5" y="-45.5" font-family="Helvetica,sans-Serif" font-size="10.00">thrustFromThrottle</text>
</a>
</g>
</g>
<!-- Node1&#45;&gt;Node2 -->
<g id="edge1" class="edge"><title>Node1&#45;&gt;Node2</title>
<path fill="none" stroke="midnightblue" d="M122.025,-36.9476C130.543,-38.0754 139.288,-39.2332 147.761,-40.3551"/>
<polygon fill="midnightblue" stroke="midnightblue" points="147.555,-43.8584 157.928,-41.7013 148.474,-36.9189 147.555,-43.8584"/>
</g>
<!-- Node3 -->
<g id="node3" class="node"><title>Node3</title>
<g id="a_node3"><a xlink:href="classFinken.html#a610ce496f1c5f2ca22850ee26c54510c" target="_top" xlink:title="returns a vector containing all rotors of the finken ">
<polygon fill="none" stroke="black" points="159,-0.5 159,-19.5 254,-19.5 254,-0.5 159,-0.5"/>
<text text-anchor="middle" x="206.5" y="-7.5" font-family="Helvetica,sans-Serif" font-size="10.00">Finken::getRotors</text>
</a>
</g>
</g>
<!-- Node1&#45;&gt;Node3 -->
<g id="edge2" class="edge"><title>Node1&#45;&gt;Node3</title>
<path fill="none" stroke="midnightblue" d="M122.025,-21.0524C130.858,-19.883 139.934,-18.6813 148.698,-17.5208"/>
<polygon fill="midnightblue" stroke="midnightblue" points="149.356,-20.9643 158.811,-16.1819 148.438,-14.0248 149.356,-20.9643"/>
</g>
</g>
</svg>
