<?xml version="1.0" encoding="UTF-8" standalone="no"?>
<!DOCTYPE svg PUBLIC "-//W3C//DTD SVG 1.1//EN"
 "http://www.w3.org/Graphics/SVG/1.1/DTD/svg11.dtd">
<!-- Generated by graphviz version 2.38.0 (20140413.2041)
 -->
<!-- Title: VREPPlugin::getInstance Pages: 1 -->
<svg width="252pt" height="104pt"
 viewBox="0.00 0.00 252.00 104.00" xmlns="http://www.w3.org/2000/svg" xmlns:xlink="http://www.w3.org/1999/xlink">
<g id="graph0" class="graph" transform="scale(1 1) rotate(0) translate(4 100)">
<title>VREPPlugin::getInstance</title>
<!-- Node1 -->
<g id="node1" class="node"><title>Node1</title>
<polygon fill="#bfbfbf" stroke="black" points="0,-38.5 0,-57.5 128,-57.5 128,-38.5 0,-38.5"/>
<text text-anchor="middle" x="64" y="-45.5" font-family="Helvetica,sans-Serif" font-size="10.00">VREPPlugin::getInstance</text>
</g>
<!-- Node2 -->
<g id="node2" class="node"><title>Node2</title>
<g id="a_node2"><a xlink:href="skeleton_8cpp.html#af17a7ec1007534f93373d28449776791" target="_top" xlink:title="v_repStart">
<polygon fill="none" stroke="black" points="173,-76.5 173,-95.5 235,-95.5 235,-76.5 173,-76.5"/>
<text text-anchor="middle" x="204" y="-83.5" font-family="Helvetica,sans-Serif" font-size="10.00">v_repStart</text>
</a>
</g>
</g>
<!-- Node1&#45;&gt;Node2 -->
<g id="edge1" class="edge"><title>Node1&#45;&gt;Node2</title>
<path fill="none" stroke="midnightblue" d="M109.669,-60.3001C130.352,-65.9954 154.379,-72.6117 172.875,-77.7048"/>
<polygon fill="midnightblue" stroke="midnightblue" points="110.394,-56.8695 99.8232,-57.589 108.535,-63.6183 110.394,-56.8695"/>
</g>
<!-- Node3 -->
<g id="node3" class="node"><title>Node3</title>
<g id="a_node3"><a xlink:href="skeleton_8cpp.html#af26d39e198d72e89ff60386e9fd18516" target="_top" xlink:title="v_repEnd">
<polygon fill="none" stroke="black" points="175,-38.5 175,-57.5 233,-57.5 233,-38.5 175,-38.5"/>
<text text-anchor="middle" x="204" y="-45.5" font-family="Helvetica,sans-Serif" font-size="10.00">v_repEnd</text>
</a>
</g>
</g>
<!-- Node1&#45;&gt;Node3 -->
<g id="edge2" class="edge"><title>Node1&#45;&gt;Node3</title>
<path fill="none" stroke="midnightblue" d="M138.68,-48C151.552,-48 164.205,-48 174.837,-48"/>
<polygon fill="midnightblue" stroke="midnightblue" points="138.346,-44.5001 128.345,-48 138.345,-51.5001 138.346,-44.5001"/>
</g>
<!-- Node4 -->
<g id="node4" class="node"><title>Node4</title>
<g id="a_node4"><a xlink:href="skeleton_8cpp.html#a2edf50a75bd96c6ed31c1da66828af6e" target="_top" xlink:title="v_repMessage">
<polygon fill="none" stroke="black" points="164,-0.5 164,-19.5 244,-19.5 244,-0.5 164,-0.5"/>
<text text-anchor="middle" x="204" y="-7.5" font-family="Helvetica,sans-Serif" font-size="10.00">v_repMessage</text>
</a>
</g>
</g>
<!-- Node1&#45;&gt;Node4 -->
<g id="edge3" class="edge"><title>Node1&#45;&gt;Node4</title>
<path fill="none" stroke="midnightblue" d="M109.473,-35.7538C128.495,-30.516 150.375,-24.4909 168.188,-19.5859"/>
<polygon fill="midnightblue" stroke="midnightblue" points="108.535,-32.3817 99.8232,-38.411 110.394,-39.1305 108.535,-32.3817"/>
</g>
</g>
</svg>
