<?xml version="1.0" encoding="UTF-8" standalone="no"?>
<!DOCTYPE svg PUBLIC "-//W3C//DTD SVG 1.1//EN"
 "http://www.w3.org/Graphics/SVG/1.1/DTD/svg11.dtd">
<!-- Generated by graphviz version 2.38.0 (20140413.2041)
 -->
<!-- Title: Log::name Pages: 1 -->
<svg width="301pt" height="104pt"
 viewBox="0.00 0.00 301.00 104.00" xmlns="http://www.w3.org/2000/svg" xmlns:xlink="http://www.w3.org/1999/xlink">
<g id="graph0" class="graph" transform="scale(1 1) rotate(0) translate(4 100)">
<title>Log::name</title>
<!-- Node1 -->
<g id="node1" class="node"><title>Node1</title>
<polygon fill="#bfbfbf" stroke="black" points="0,-38.5 0,-57.5 62,-57.5 62,-38.5 0,-38.5"/>
<text text-anchor="middle" x="31" y="-45.5" font-family="Helvetica,sans-Serif" font-size="10.00">Log::name</text>
</g>
<!-- Node2 -->
<g id="node2" class="node"><title>Node2</title>
<g id="a_node2"><a xlink:href="classFinkenPlugin.html#afbe5d82635afe4b0c407de4724e8ee14" target="_top" xlink:title="Loads the plugin into V&#45;REP. ">
<polygon fill="none" stroke="black" points="191,-76.5 191,-95.5 288,-95.5 288,-76.5 191,-76.5"/>
<text text-anchor="middle" x="239.5" y="-83.5" font-family="Helvetica,sans-Serif" font-size="10.00">FinkenPlugin::load</text>
</a>
</g>
</g>
<!-- Node1&#45;&gt;Node2 -->
<g id="edge1" class="edge"><title>Node1&#45;&gt;Node2</title>
<path fill="none" stroke="midnightblue" d="M71.5405,-60.3976C80.2003,-62.8275 89.3618,-65.1827 98,-67 128.591,-73.4357 163.408,-78.1621 190.73,-81.2912"/>
<polygon fill="midnightblue" stroke="midnightblue" points="72.2454,-56.958 61.6665,-57.5384 70.2984,-63.6818 72.2454,-56.958"/>
</g>
<!-- Node3 -->
<g id="node3" class="node"><title>Node3</title>
<g id="a_node3"><a xlink:href="classLog.html#ab89f6644dd040b1fa07c1253cc12bafb" target="_top" xlink:title="Log::out">
<polygon fill="none" stroke="black" points="98,-38.5 98,-57.5 150,-57.5 150,-38.5 98,-38.5"/>
<text text-anchor="middle" x="124" y="-45.5" font-family="Helvetica,sans-Serif" font-size="10.00">Log::out</text>
</a>
</g>
</g>
<!-- Node1&#45;&gt;Node3 -->
<g id="edge2" class="edge"><title>Node1&#45;&gt;Node3</title>
<path fill="none" stroke="midnightblue" d="M72.1152,-48C80.8627,-48 89.8795,-48 97.8477,-48"/>
<polygon fill="midnightblue" stroke="midnightblue" points="72.049,-44.5001 62.049,-48 72.049,-51.5001 72.049,-44.5001"/>
</g>
<!-- Node5 -->
<g id="node5" class="node"><title>Node5</title>
<g id="a_node5"><a xlink:href="classLog.html#ad37da894b6f997bc5204ed81cace26c2" target="_top" xlink:title="Log::err">
<polygon fill="none" stroke="black" points="99,-0.5 99,-19.5 149,-19.5 149,-0.5 99,-0.5"/>
<text text-anchor="middle" x="124" y="-7.5" font-family="Helvetica,sans-Serif" font-size="10.00">Log::err</text>
</a>
</g>
</g>
<!-- Node1&#45;&gt;Node5 -->
<g id="edge5" class="edge"><title>Node1&#45;&gt;Node5</title>
<path fill="none" stroke="midnightblue" d="M64.4694,-34.4413C76.234,-29.5286 89.268,-24.0859 100.044,-19.5859"/>
<polygon fill="midnightblue" stroke="midnightblue" points="62.8422,-31.3279 54.9631,-38.411 65.5396,-37.7873 62.8422,-31.3279"/>
</g>
<!-- Node3&#45;&gt;Node2 -->
<g id="edge3" class="edge"><title>Node3&#45;&gt;Node2</title>
<path fill="none" stroke="midnightblue" d="M159.753,-59.6354C175.779,-65.0008 194.573,-71.2932 209.781,-76.3849"/>
<polygon fill="midnightblue" stroke="midnightblue" points="160.783,-56.2894 150.189,-56.4334 158.561,-62.9272 160.783,-56.2894"/>
</g>
<!-- Node4 -->
<g id="node4" class="node"><title>Node4</title>
<g id="a_node4"><a xlink:href="classFinkenPlugin.html#ae9c984b362c6a828206fa6201291851c" target="_top" xlink:title="unloads the plugin ">
<polygon fill="none" stroke="black" points="186,-38.5 186,-57.5 293,-57.5 293,-38.5 186,-38.5"/>
<text text-anchor="middle" x="239.5" y="-45.5" font-family="Helvetica,sans-Serif" font-size="10.00">FinkenPlugin::unload</text>
</a>
</g>
</g>
<!-- Node3&#45;&gt;Node4 -->
<g id="edge4" class="edge"><title>Node3&#45;&gt;Node4</title>
<path fill="none" stroke="midnightblue" d="M160.389,-48C168.499,-48 177.29,-48 185.95,-48"/>
<polygon fill="midnightblue" stroke="midnightblue" points="160.189,-44.5001 150.189,-48 160.189,-51.5001 160.189,-44.5001"/>
</g>
</g>
</svg>
