<?xml version="1.0" encoding="UTF-8" standalone="no"?>
<!DOCTYPE svg PUBLIC "-//W3C//DTD SVG 1.1//EN"
 "http://www.w3.org/Graphics/SVG/1.1/DTD/svg11.dtd">
<!-- Generated by graphviz version 2.38.0 (20140413.2041)
 -->
<!-- Title: Finken::run Pages: 1 -->
<svg width="344pt" height="104pt"
 viewBox="0.00 0.00 344.00 104.00" xmlns="http://www.w3.org/2000/svg" xmlns:xlink="http://www.w3.org/1999/xlink">
<g id="graph0" class="graph" transform="scale(1 1) rotate(0) translate(4 100)">
<title>Finken::run</title>
<!-- Node1 -->
<g id="node1" class="node"><title>Node1</title>
<polygon fill="#bfbfbf" stroke="black" points="0,-19.5 0,-38.5 65,-38.5 65,-19.5 0,-19.5"/>
<text text-anchor="middle" x="32.5" y="-26.5" font-family="Helvetica,sans-Serif" font-size="10.00">Finken::run</text>
</g>
<!-- Node2 -->
<g id="node2" class="node"><title>Node2</title>
<g id="a_node2"><a xlink:href="finken_8cpp.html#ab8920c514423348469521fe0063534c4" target="_top" xlink:title="Constructs a complete FINken from an empty FINken object using its handle. ">
<polygon fill="none" stroke="black" points="117,-38.5 117,-57.5 183,-57.5 183,-38.5 117,-38.5"/>
<text text-anchor="middle" x="150" y="-45.5" font-family="Helvetica,sans-Serif" font-size="10.00">buildFinken</text>
</a>
</g>
</g>
<!-- Node1&#45;&gt;Node2 -->
<g id="edge1" class="edge"><title>Node1&#45;&gt;Node2</title>
<path fill="none" stroke="midnightblue" d="M65.0609,-34.1918C77.8348,-36.2932 92.7776,-38.7513 106.487,-41.0065"/>
<polygon fill="midnightblue" stroke="midnightblue" points="106.238,-44.5125 116.673,-42.6822 107.374,-37.6053 106.238,-44.5125"/>
</g>
<!-- Node5 -->
<g id="node5" class="node"><title>Node5</title>
<g id="a_node5"><a xlink:href="classFinken.html#afddc56af42f000ff17c4a00779b4ad6a" target="_top" xlink:title="updates the values for copter position and attitude, namely the copter state vectors ...">
<polygon fill="none" stroke="black" points="101,-0.5 101,-19.5 199,-19.5 199,-0.5 101,-0.5"/>
<text text-anchor="middle" x="150" y="-7.5" font-family="Helvetica,sans-Serif" font-size="10.00">Finken::updatePos</text>
</a>
</g>
</g>
<!-- Node1&#45;&gt;Node5 -->
<g id="edge4" class="edge"><title>Node1&#45;&gt;Node5</title>
<path fill="none" stroke="midnightblue" d="M65.0609,-23.8082C73.0195,-22.4989 81.8201,-21.0512 90.6397,-19.6004"/>
<polygon fill="midnightblue" stroke="midnightblue" points="91.2622,-23.0451 100.561,-17.9682 90.1259,-16.138 91.2622,-23.0451"/>
</g>
<!-- Node3 -->
<g id="node3" class="node"><title>Node3</title>
<g id="a_node3"><a xlink:href="classFinken.html#a2f2adb211e80a689f580b87730aeb9d1" target="_top" xlink:title="Adding sensors to the copter. ">
<polygon fill="none" stroke="black" points="236.5,-76.5 236.5,-95.5 334.5,-95.5 334.5,-76.5 236.5,-76.5"/>
<text text-anchor="middle" x="285.5" y="-83.5" font-family="Helvetica,sans-Serif" font-size="10.00">Finken::addSensor</text>
</a>
</g>
</g>
<!-- Node2&#45;&gt;Node3 -->
<g id="edge2" class="edge"><title>Node2&#45;&gt;Node3</title>
<path fill="none" stroke="midnightblue" d="M183.317,-57.1987C200.716,-62.1514 222.414,-68.3276 241.25,-73.6891"/>
<polygon fill="midnightblue" stroke="midnightblue" points="240.511,-77.1177 251.087,-76.4891 242.427,-70.3851 240.511,-77.1177"/>
</g>
<!-- Node4 -->
<g id="node4" class="node"><title>Node4</title>
<g id="a_node4"><a xlink:href="classFinken.html#a4ac9d9b37fba41147a83a36286fbe91b" target="_top" xlink:title="Adding rotors to the copter. ">
<polygon fill="none" stroke="black" points="239.5,-38.5 239.5,-57.5 331.5,-57.5 331.5,-38.5 239.5,-38.5"/>
<text text-anchor="middle" x="285.5" y="-45.5" font-family="Helvetica,sans-Serif" font-size="10.00">Finken::addRotor</text>
</a>
</g>
</g>
<!-- Node2&#45;&gt;Node4 -->
<g id="edge3" class="edge"><title>Node2&#45;&gt;Node4</title>
<path fill="none" stroke="midnightblue" d="M183.317,-48C197.116,-48 213.62,-48 229.255,-48"/>
<polygon fill="midnightblue" stroke="midnightblue" points="229.367,-51.5001 239.367,-48 229.367,-44.5001 229.367,-51.5001"/>
</g>
<!-- Node6 -->
<g id="node6" class="node"><title>Node6</title>
<g id="a_node6"><a xlink:href="classFinken.html#a1215883fb6df7c4853e498dec43b4e6a" target="_top" xlink:title="returns a vector containing all sensors of the finken ">
<polygon fill="none" stroke="black" points="235,-0.5 235,-19.5 336,-19.5 336,-0.5 235,-0.5"/>
<text text-anchor="middle" x="285.5" y="-7.5" font-family="Helvetica,sans-Serif" font-size="10.00">Finken::getSensors</text>
</a>
</g>
</g>
<!-- Node5&#45;&gt;Node6 -->
<g id="edge5" class="edge"><title>Node5&#45;&gt;Node6</title>
<path fill="none" stroke="midnightblue" d="M199.197,-10C207.374,-10 215.954,-10 224.392,-10"/>
<polygon fill="midnightblue" stroke="midnightblue" points="224.576,-13.5001 234.576,-10 224.576,-6.5001 224.576,-13.5001"/>
</g>
</g>
</svg>
