<?xml version="1.0" encoding="UTF-8" standalone="no"?>
<!DOCTYPE svg PUBLIC "-//W3C//DTD SVG 1.1//EN"
 "http://www.w3.org/Graphics/SVG/1.1/DTD/svg11.dtd">
<!-- Generated by graphviz version 2.38.0 (20140413.2041)
 -->
<!-- Title: Async_Server::Async_Server Pages: 1 -->
<svg width="409pt" height="39pt"
 viewBox="0.00 0.00 409.00 39.00" xmlns="http://www.w3.org/2000/svg" xmlns:xlink="http://www.w3.org/1999/xlink">
<g id="graph0" class="graph" transform="scale(1 1) rotate(0) translate(4 35)">
<title>Async_Server::Async_Server</title>
<!-- Node1 -->
<g id="node1" class="node"><title>Node1</title>
<polygon fill="#bfbfbf" stroke="black" points="0,-0.5 0,-30.5 112,-30.5 112,-0.5 0,-0.5"/>
<text text-anchor="start" x="8" y="-18.5" font-family="Helvetica,sans-Serif" font-size="10.00">Async_Server::Async</text>
<text text-anchor="middle" x="56" y="-7.5" font-family="Helvetica,sans-Serif" font-size="10.00">_Server</text>
</g>
<!-- Node2 -->
<g id="node2" class="node"><title>Node2</title>
<g id="a_node2"><a xlink:href="classAsync__Server.html#a475dc9277092d67f647cdfeeb91f2943" target="_top" xlink:title="Function waiting for new connections to accept. ">
<polygon fill="none" stroke="black" points="148,-0.5 148,-30.5 252,-30.5 252,-0.5 148,-0.5"/>
<text text-anchor="start" x="156" y="-18.5" font-family="Helvetica,sans-Serif" font-size="10.00">Async_Server::start</text>
<text text-anchor="middle" x="200" y="-7.5" font-family="Helvetica,sans-Serif" font-size="10.00">_accept</text>
</a>
</g>
</g>
<!-- Node1&#45;&gt;Node2 -->
<g id="edge1" class="edge"><title>Node1&#45;&gt;Node2</title>
<path fill="none" stroke="midnightblue" d="M112.308,-15.5C120.612,-15.5 129.218,-15.5 137.64,-15.5"/>
<polygon fill="midnightblue" stroke="midnightblue" points="137.788,-19.0001 147.788,-15.5 137.788,-12.0001 137.788,-19.0001"/>
</g>
<!-- Node3 -->
<g id="node3" class="node"><title>Node3</title>
<g id="a_node3"><a xlink:href="classAsync__Server.html#ab012fb8893a186c937c9287bdf10da03" target="_top" xlink:title="Function handling any new connection. ">
<polygon fill="none" stroke="black" points="288,-0.5 288,-30.5 401,-30.5 401,-0.5 288,-0.5"/>
<text text-anchor="start" x="296" y="-18.5" font-family="Helvetica,sans-Serif" font-size="10.00">Async_Server::handle</text>
<text text-anchor="middle" x="344.5" y="-7.5" font-family="Helvetica,sans-Serif" font-size="10.00">_accept</text>
</a>
</g>
</g>
<!-- Node2&#45;&gt;Node3 -->
<g id="edge2" class="edge"><title>Node2&#45;&gt;Node3</title>
<path fill="none" stroke="midnightblue" d="M252.043,-8.9973C260.424,-8.78697 269.211,-8.71081 277.886,-8.7688"/>
<polygon fill="midnightblue" stroke="midnightblue" points="277.942,-12.2697 287.987,-8.89851 278.032,-5.2703 277.942,-12.2697"/>
</g>
<!-- Node3&#45;&gt;Node2 -->
<g id="edge3" class="edge"><title>Node3&#45;&gt;Node2</title>
<path fill="none" stroke="midnightblue" d="M287.987,-22.1015C279.571,-22.2627 270.848,-22.2927 262.318,-22.1914"/>
<polygon fill="midnightblue" stroke="midnightblue" points="262.106,-18.687 252.043,-22.0027 261.977,-25.6858 262.106,-18.687"/>
</g>
</g>
</svg>
