<?xml version="1.0" encoding="UTF-8" standalone="no"?>
<!DOCTYPE svg PUBLIC "-//W3C//DTD SVG 1.1//EN"
 "http://www.w3.org/Graphics/SVG/1.1/DTD/svg11.dtd">
<!-- Generated by graphviz version 2.38.0 (20140413.2041)
 -->
<!-- Title: REPLog Pages: 1 -->
<svg width="124pt" height="345pt"
 viewBox="0.00 0.00 124.00 345.00" xmlns="http://www.w3.org/2000/svg" xmlns:xlink="http://www.w3.org/1999/xlink">
<g id="graph0" class="graph" transform="scale(1 1) rotate(0) translate(4 341)">
<title>REPLog</title>
<!-- Node1 -->
<g id="node1" class="node"><title>Node1</title>
<polygon fill="#bfbfbf" stroke="black" points="31.5,-0.5 31.5,-19.5 84.5,-19.5 84.5,-0.5 31.5,-0.5"/>
<text text-anchor="middle" x="58" y="-7.5" font-family="Helvetica,sans-Serif" font-size="10.00">REPLog</text>
</g>
<!-- Node2 -->
<g id="node2" class="node"><title>Node2</title>
<g id="a_node2"><a xlink:title="STL class. ">
<polygon fill="none" stroke="#bfbfbf" points="21,-67.5 21,-86.5 95,-86.5 95,-67.5 21,-67.5"/>
<text text-anchor="middle" x="58" y="-74.5" font-family="Helvetica,sans-Serif" font-size="10.00">std::ofstream</text>
</a>
</g>
</g>
<!-- Node2&#45;&gt;Node1 -->
<g id="edge1" class="edge"><title>Node2&#45;&gt;Node1</title>
<path fill="none" stroke="#9a32cd" stroke-dasharray="5,2" d="M58,-57.037C58,-44.6703 58,-29.1198 58,-19.6273"/>
<polygon fill="#9a32cd" stroke="#9a32cd" points="54.5001,-57.2338 58,-67.2338 61.5001,-57.2338 54.5001,-57.2338"/>
<text text-anchor="middle" x="66" y="-41" font-family="Helvetica,sans-Serif" font-size="10.00"> log</text>
</g>
<!-- Node3 -->
<g id="node3" class="node"><title>Node3</title>
<g id="a_node3"><a xlink:title="STL class. ">
<polygon fill="none" stroke="#bfbfbf" points="6.5,-124.5 6.5,-154.5 109.5,-154.5 109.5,-124.5 6.5,-124.5"/>
<text text-anchor="start" x="14.5" y="-142.5" font-family="Helvetica,sans-Serif" font-size="10.00">std::basic_ofstream</text>
<text text-anchor="middle" x="58" y="-131.5" font-family="Helvetica,sans-Serif" font-size="10.00">&lt; char &gt;</text>
</a>
</g>
</g>
<!-- Node3&#45;&gt;Node2 -->
<g id="edge2" class="edge"><title>Node3&#45;&gt;Node2</title>
<path fill="none" stroke="midnightblue" d="M58,-114.352C58,-104.513 58,-93.7753 58,-86.5399"/>
<polygon fill="midnightblue" stroke="midnightblue" points="54.5001,-114.468 58,-124.468 61.5001,-114.468 54.5001,-114.468"/>
</g>
<!-- Node4 -->
<g id="node4" class="node"><title>Node4</title>
<g id="a_node4"><a xlink:title="STL class. ">
<polygon fill="none" stroke="#bfbfbf" points="8,-192.5 8,-222.5 108,-222.5 108,-192.5 8,-192.5"/>
<text text-anchor="start" x="16" y="-210.5" font-family="Helvetica,sans-Serif" font-size="10.00">std::basic_ostream</text>
<text text-anchor="middle" x="58" y="-199.5" font-family="Helvetica,sans-Serif" font-size="10.00">&lt; Char &gt;</text>
</a>
</g>
</g>
<!-- Node4&#45;&gt;Node3 -->
<g id="edge3" class="edge"><title>Node4&#45;&gt;Node3</title>
<path fill="none" stroke="midnightblue" d="M58,-182.032C58,-172.861 58,-162.745 58,-154.793"/>
<polygon fill="midnightblue" stroke="midnightblue" points="54.5001,-182.179 58,-192.179 61.5001,-182.179 54.5001,-182.179"/>
</g>
<!-- Node5 -->
<g id="node5" class="node"><title>Node5</title>
<g id="a_node5"><a xlink:title="STL class. ">
<polygon fill="none" stroke="#bfbfbf" points="-7.10543e-15,-260.5 -7.10543e-15,-279.5 116,-279.5 116,-260.5 -7.10543e-15,-260.5"/>
<text text-anchor="middle" x="58" y="-267.5" font-family="Helvetica,sans-Serif" font-size="10.00">std::basic_ios&lt; Char &gt;</text>
</a>
</g>
</g>
<!-- Node5&#45;&gt;Node4 -->
<g id="edge4" class="edge"><title>Node5&#45;&gt;Node4</title>
<path fill="none" stroke="midnightblue" d="M58,-250.215C58,-241.356 58,-230.958 58,-222.759"/>
<polygon fill="midnightblue" stroke="midnightblue" points="54.5001,-250.332 58,-260.332 61.5001,-250.332 54.5001,-250.332"/>
</g>
<!-- Node6 -->
<g id="node6" class="node"><title>Node6</title>
<g id="a_node6"><a xlink:title="STL class. ">
<polygon fill="none" stroke="#bfbfbf" points="20.5,-317.5 20.5,-336.5 95.5,-336.5 95.5,-317.5 20.5,-317.5"/>
<text text-anchor="middle" x="58" y="-324.5" font-family="Helvetica,sans-Serif" font-size="10.00">std::ios_base</text>
</a>
</g>
</g>
<!-- Node6&#45;&gt;Node5 -->
<g id="edge5" class="edge"><title>Node6&#45;&gt;Node5</title>
<path fill="none" stroke="midnightblue" d="M58,-307.117C58,-297.817 58,-287.056 58,-279.715"/>
<polygon fill="midnightblue" stroke="midnightblue" points="54.5001,-307.406 58,-317.406 61.5001,-307.406 54.5001,-307.406"/>
</g>
</g>
</svg>
