<?xml version="1.0" encoding="UTF-8" standalone="no"?>
<!DOCTYPE svg PUBLIC "-//W3C//DTD SVG 1.1//EN"
 "http://www.w3.org/Graphics/SVG/1.1/DTD/svg11.dtd">
<!-- Generated by graphviz version 2.38.0 (20140413.2041)
 -->
<!-- Title: Sensor::getHandle Pages: 1 -->
<svg width="253pt" height="218pt"
 viewBox="0.00 0.00 253.00 218.00" xmlns="http://www.w3.org/2000/svg" xmlns:xlink="http://www.w3.org/1999/xlink">
<g id="graph0" class="graph" transform="scale(1 1) rotate(0) translate(4 214)">
<title>Sensor::getHandle</title>
<!-- Node1 -->
<g id="node1" class="node"><title>Node1</title>
<polygon fill="#bfbfbf" stroke="black" points="0,-95.5 0,-114.5 98,-114.5 98,-95.5 0,-95.5"/>
<text text-anchor="middle" x="49" y="-102.5" font-family="Helvetica,sans-Serif" font-size="10.00">Sensor::getHandle</text>
</g>
<!-- Node2 -->
<g id="node2" class="node"><title>Node2</title>
<g id="a_node2"><a xlink:href="classHeightSensor.html#ad02d8ea00644637867c61e32745ac43d" target="_top" xlink:title="Updates the sensor information, including any detected object information. ">
<polygon fill="none" stroke="black" points="134,-190.5 134,-209.5 245,-209.5 245,-190.5 134,-190.5"/>
<text text-anchor="middle" x="189.5" y="-197.5" font-family="Helvetica,sans-Serif" font-size="10.00">HeightSensor::update</text>
</a>
</g>
</g>
<!-- Node1&#45;&gt;Node2 -->
<g id="edge1" class="edge"><title>Node1&#45;&gt;Node2</title>
<path fill="none" stroke="midnightblue" d="M65.2073,-122.324C80.9417,-139.322 106.964,-164.961 134,-181 140.291,-184.732 147.426,-187.881 154.412,-190.475"/>
<polygon fill="midnightblue" stroke="midnightblue" points="67.6577,-119.815 58.3503,-114.753 62.4695,-124.515 67.6577,-119.815"/>
</g>
<!-- Node3 -->
<g id="node3" class="node"><title>Node3</title>
<g id="a_node3"><a xlink:href="classHeightSensor.html#abd4b7d4cc5906a971da402757989f5da" target="_top" xlink:title="Retrieves the sensor information, including any detected object information. ">
<polygon fill="none" stroke="black" points="142,-152.5 142,-171.5 237,-171.5 237,-152.5 142,-152.5"/>
<text text-anchor="middle" x="189.5" y="-159.5" font-family="Helvetica,sans-Serif" font-size="10.00">HeightSensor::get</text>
</a>
</g>
</g>
<!-- Node1&#45;&gt;Node3 -->
<g id="edge2" class="edge"><title>Node1&#45;&gt;Node3</title>
<path fill="none" stroke="midnightblue" d="M79.1829,-118.977C95.2137,-126.458 115.537,-135.623 134,-143 142.188,-146.272 151.187,-149.539 159.472,-152.419"/>
<polygon fill="midnightblue" stroke="midnightblue" points="80.3497,-115.658 69.8111,-114.568 77.3697,-121.992 80.3497,-115.658"/>
</g>
<!-- Node4 -->
<g id="node4" class="node"><title>Node4</title>
<g id="a_node4"><a xlink:href="classPositionSensor.html#a0b8c45d846d3442d94e2ef767fddf31d" target="_top" xlink:title="Retrieves the sensor information, including any detected object information. ">
<polygon fill="none" stroke="black" points="138.5,-114.5 138.5,-133.5 240.5,-133.5 240.5,-114.5 138.5,-114.5"/>
<text text-anchor="middle" x="189.5" y="-121.5" font-family="Helvetica,sans-Serif" font-size="10.00">PositionSensor::get</text>
</a>
</g>
</g>
<!-- Node1&#45;&gt;Node4 -->
<g id="edge3" class="edge"><title>Node1&#45;&gt;Node4</title>
<path fill="none" stroke="midnightblue" d="M108.266,-112.993C118.21,-114.357 128.463,-115.764 138.179,-117.097"/>
<polygon fill="midnightblue" stroke="midnightblue" points="108.435,-109.484 98.0519,-111.592 107.483,-116.419 108.435,-109.484"/>
</g>
<!-- Node5 -->
<g id="node5" class="node"><title>Node5</title>
<g id="a_node5"><a xlink:href="classSonar.html#ae6edd4f329f9892a64c5f0cab808c7a2" target="_top" xlink:title="Basic constructor. ">
<polygon fill="none" stroke="black" points="152.5,-76.5 152.5,-95.5 226.5,-95.5 226.5,-76.5 152.5,-76.5"/>
<text text-anchor="middle" x="189.5" y="-83.5" font-family="Helvetica,sans-Serif" font-size="10.00">Sonar::Sonar</text>
</a>
</g>
</g>
<!-- Node1&#45;&gt;Node5 -->
<g id="edge4" class="edge"><title>Node1&#45;&gt;Node5</title>
<path fill="none" stroke="midnightblue" d="M108.255,-97.0083C123.206,-94.9573 138.858,-92.8101 152.328,-90.9622"/>
<polygon fill="midnightblue" stroke="midnightblue" points="107.483,-93.5813 98.0519,-98.408 108.435,-100.516 107.483,-93.5813"/>
</g>
<!-- Node6 -->
<g id="node6" class="node"><title>Node6</title>
<g id="a_node6"><a xlink:href="classSonar.html#a2be4378ffd51271865a84822faffd78d" target="_top" xlink:title="Updates the sensor information, including any detected object information. ">
<polygon fill="none" stroke="black" points="151,-38.5 151,-57.5 228,-57.5 228,-38.5 151,-38.5"/>
<text text-anchor="middle" x="189.5" y="-45.5" font-family="Helvetica,sans-Serif" font-size="10.00">Sonar::update</text>
</a>
</g>
</g>
<!-- Node1&#45;&gt;Node6 -->
<g id="edge5" class="edge"><title>Node1&#45;&gt;Node6</title>
<path fill="none" stroke="midnightblue" d="M79.1829,-91.0232C95.2137,-83.5424 115.537,-74.3775 134,-67 142.188,-63.7281 151.187,-60.4605 159.472,-57.5809"/>
<polygon fill="midnightblue" stroke="midnightblue" points="77.3697,-88.0081 69.8111,-95.4323 80.3497,-94.3422 77.3697,-88.0081"/>
</g>
<!-- Node7 -->
<g id="node7" class="node"><title>Node7</title>
<g id="a_node7"><a xlink:href="classSonar.html#a6881d0c104c0fafad95ad1aea917b6f3" target="_top" xlink:title="Retrieves the sensor information, including any detected object information. ">
<polygon fill="none" stroke="black" points="158.5,-0.5 158.5,-19.5 220.5,-19.5 220.5,-0.5 158.5,-0.5"/>
<text text-anchor="middle" x="189.5" y="-7.5" font-family="Helvetica,sans-Serif" font-size="10.00">Sonar::get</text>
</a>
</g>
</g>
<!-- Node1&#45;&gt;Node7 -->
<g id="edge6" class="edge"><title>Node1&#45;&gt;Node7</title>
<path fill="none" stroke="midnightblue" d="M65.2073,-87.6764C80.9417,-70.6785 106.964,-45.0391 134,-29 141.498,-24.552 150.194,-20.9329 158.407,-18.093"/>
<polygon fill="midnightblue" stroke="midnightblue" points="62.4695,-85.4855 58.3503,-95.2468 67.6577,-90.1848 62.4695,-85.4855"/>
</g>
</g>
</svg>
