<?xml version="1.0" encoding="UTF-8" standalone="no"?>
<!DOCTYPE svg PUBLIC "-//W3C//DTD SVG 1.1//EN"
 "http://www.w3.org/Graphics/SVG/1.1/DTD/svg11.dtd">
<!-- Generated by graphviz version 2.38.0 (20140413.2041)
 -->
<!-- Title: FinkenPlugin::unload Pages: 1 -->
<svg width="301pt" height="28pt"
 viewBox="0.00 0.00 301.00 28.00" xmlns="http://www.w3.org/2000/svg" xmlns:xlink="http://www.w3.org/1999/xlink">
<g id="graph0" class="graph" transform="scale(1 1) rotate(0) translate(4 24)">
<title>FinkenPlugin::unload</title>
<!-- Node1 -->
<g id="node1" class="node"><title>Node1</title>
<polygon fill="#bfbfbf" stroke="black" points="0,-0.5 0,-19.5 107,-19.5 107,-0.5 0,-0.5"/>
<text text-anchor="middle" x="53.5" y="-7.5" font-family="Helvetica,sans-Serif" font-size="10.00">FinkenPlugin::unload</text>
</g>
<!-- Node2 -->
<g id="node2" class="node"><title>Node2</title>
<g id="a_node2"><a xlink:href="classLog.html#ab89f6644dd040b1fa07c1253cc12bafb" target="_top" xlink:title="Log::out">
<polygon fill="none" stroke="black" points="143,-0.5 143,-19.5 195,-19.5 195,-0.5 143,-0.5"/>
<text text-anchor="middle" x="169" y="-7.5" font-family="Helvetica,sans-Serif" font-size="10.00">Log::out</text>
</a>
</g>
</g>
<!-- Node1&#45;&gt;Node2 -->
<g id="edge1" class="edge"><title>Node1&#45;&gt;Node2</title>
<path fill="none" stroke="midnightblue" d="M107.263,-10C115.877,-10 124.614,-10 132.675,-10"/>
<polygon fill="midnightblue" stroke="midnightblue" points="132.815,-13.5001 142.815,-10 132.815,-6.5001 132.815,-13.5001"/>
</g>
<!-- Node3 -->
<g id="node3" class="node"><title>Node3</title>
<g id="a_node3"><a xlink:href="classLog.html#a5a4518f9758b1eee0adcac1c3119288b" target="_top" xlink:title="Log::name">
<polygon fill="none" stroke="black" points="231,-0.5 231,-19.5 293,-19.5 293,-0.5 231,-0.5"/>
<text text-anchor="middle" x="262" y="-7.5" font-family="Helvetica,sans-Serif" font-size="10.00">Log::name</text>
</a>
</g>
</g>
<!-- Node2&#45;&gt;Node3 -->
<g id="edge2" class="edge"><title>Node2&#45;&gt;Node3</title>
<path fill="none" stroke="midnightblue" d="M195.349,-10C203.286,-10 212.25,-10 220.944,-10"/>
<polygon fill="midnightblue" stroke="midnightblue" points="220.949,-13.5001 230.949,-10 220.949,-6.5001 220.949,-13.5001"/>
</g>
</g>
</svg>
