<?xml version="1.0" encoding="UTF-8" standalone="no"?>
<!DOCTYPE svg PUBLIC "-//W3C//DTD SVG 1.1//EN"
 "http://www.w3.org/Graphics/SVG/1.1/DTD/svg11.dtd">
<!-- Generated by graphviz version 2.38.0 (20140413.2041)
 -->
<!-- Title: Async_Server::handle_accept Pages: 1 -->
<svg width="261pt" height="39pt"
 viewBox="0.00 0.00 261.00 39.00" xmlns="http://www.w3.org/2000/svg" xmlns:xlink="http://www.w3.org/1999/xlink">
<g id="graph0" class="graph" transform="scale(1 1) rotate(0) translate(4 35)">
<title>Async_Server::handle_accept</title>
<!-- Node1 -->
<g id="node1" class="node"><title>Node1</title>
<polygon fill="#bfbfbf" stroke="black" points="0,-0.5 0,-30.5 113,-30.5 113,-0.5 0,-0.5"/>
<text text-anchor="start" x="8" y="-18.5" font-family="Helvetica,sans-Serif" font-size="10.00">Async_Server::handle</text>
<text text-anchor="middle" x="56.5" y="-7.5" font-family="Helvetica,sans-Serif" font-size="10.00">_accept</text>
</g>
<!-- Node2 -->
<g id="node2" class="node"><title>Node2</title>
<g id="a_node2"><a xlink:href="classAsync__Server.html#a475dc9277092d67f647cdfeeb91f2943" target="_top" xlink:title="Function waiting for new connections to accept. ">
<polygon fill="none" stroke="black" points="149,-0.5 149,-30.5 253,-30.5 253,-0.5 149,-0.5"/>
<text text-anchor="start" x="157" y="-18.5" font-family="Helvetica,sans-Serif" font-size="10.00">Async_Server::start</text>
<text text-anchor="middle" x="201" y="-7.5" font-family="Helvetica,sans-Serif" font-size="10.00">_accept</text>
</a>
</g>
</g>
<!-- Node1&#45;&gt;Node2 -->
<g id="edge1" class="edge"><title>Node1&#45;&gt;Node2</title>
<path fill="none" stroke="midnightblue" d="M113.002,-8.89873C121.336,-8.73895 129.972,-8.70791 138.424,-8.8056"/>
<polygon fill="midnightblue" stroke="midnightblue" points="138.546,-12.3083 148.608,-8.98862 138.672,-5.30941 138.546,-12.3083"/>
</g>
<!-- Node2&#45;&gt;Node1 -->
<g id="edge2" class="edge"><title>Node2&#45;&gt;Node1</title>
<path fill="none" stroke="midnightblue" d="M148.608,-22.0114C140.297,-22.216 131.595,-22.289 123.005,-22.2305"/>
<polygon fill="midnightblue" stroke="midnightblue" points="123.047,-18.7308 113.002,-22.1013 122.956,-25.7302 123.047,-18.7308"/>
</g>
</g>
</svg>
