<?xml version="1.0" encoding="UTF-8" standalone="no"?>
<!DOCTYPE svg PUBLIC "-//W3C//DTD SVG 1.1//EN"
 "http://www.w3.org/Graphics/SVG/1.1/DTD/svg11.dtd">
<!-- Generated by graphviz version 2.38.0 (20140413.2041)
 -->
<!-- Title: FinkenPlugin::load Pages: 1 -->
<svg width="291pt" height="47pt"
 viewBox="0.00 0.00 291.00 47.00" xmlns="http://www.w3.org/2000/svg" xmlns:xlink="http://www.w3.org/1999/xlink">
<g id="graph0" class="graph" transform="scale(1 1) rotate(0) translate(4 43)">
<title>FinkenPlugin::load</title>
<!-- Node1 -->
<g id="node1" class="node"><title>Node1</title>
<polygon fill="#bfbfbf" stroke="black" points="0,-19.5 0,-38.5 97,-38.5 97,-19.5 0,-19.5"/>
<text text-anchor="middle" x="48.5" y="-26.5" font-family="Helvetica,sans-Serif" font-size="10.00">FinkenPlugin::load</text>
</g>
<!-- Node2 -->
<g id="node2" class="node"><title>Node2</title>
<g id="a_node2"><a xlink:href="classLog.html#a5a4518f9758b1eee0adcac1c3119288b" target="_top" xlink:title="Log::name">
<polygon fill="none" stroke="black" points="221,-19.5 221,-38.5 283,-38.5 283,-19.5 221,-19.5"/>
<text text-anchor="middle" x="252" y="-26.5" font-family="Helvetica,sans-Serif" font-size="10.00">Log::name</text>
</a>
</g>
</g>
<!-- Node1&#45;&gt;Node2 -->
<g id="edge1" class="edge"><title>Node1&#45;&gt;Node2</title>
<path fill="none" stroke="midnightblue" d="M97.2527,-29C131.802,-29 177.976,-29 210.678,-29"/>
<polygon fill="midnightblue" stroke="midnightblue" points="210.791,-32.5001 220.791,-29 210.791,-25.5001 210.791,-32.5001"/>
</g>
<!-- Node3 -->
<g id="node3" class="node"><title>Node3</title>
<g id="a_node3"><a xlink:href="classLog.html#ab89f6644dd040b1fa07c1253cc12bafb" target="_top" xlink:title="Log::out">
<polygon fill="none" stroke="black" points="133,-0.5 133,-19.5 185,-19.5 185,-0.5 133,-0.5"/>
<text text-anchor="middle" x="159" y="-7.5" font-family="Helvetica,sans-Serif" font-size="10.00">Log::out</text>
</a>
</g>
</g>
<!-- Node1&#45;&gt;Node3 -->
<g id="edge2" class="edge"><title>Node1&#45;&gt;Node3</title>
<path fill="none" stroke="midnightblue" d="M97.0897,-20.6663C105.737,-19.152 114.614,-17.5975 122.823,-16.16"/>
<polygon fill="midnightblue" stroke="midnightblue" points="123.55,-19.586 132.797,-14.4135 122.343,-12.6909 123.55,-19.586"/>
</g>
<!-- Node3&#45;&gt;Node2 -->
<g id="edge3" class="edge"><title>Node3&#45;&gt;Node2</title>
<path fill="none" stroke="midnightblue" d="M185.349,-15.2926C193.286,-16.9499 202.25,-18.8214 210.944,-20.6366"/>
<polygon fill="midnightblue" stroke="midnightblue" points="210.445,-24.1078 220.949,-22.7256 211.875,-17.2556 210.445,-24.1078"/>
</g>
</g>
</svg>
