<?xml version="1.0" encoding="UTF-8" standalone="no"?>
<!DOCTYPE svg PUBLIC "-//W3C//DTD SVG 1.1//EN"
 "http://www.w3.org/Graphics/SVG/1.1/DTD/svg11.dtd">
<!-- Generated by graphviz version 2.38.0 (20140413.2041)
 -->
<!-- Title: Async_Server::handle_accept Pages: 1 -->
<svg width="571pt" height="39pt"
 viewBox="0.00 0.00 571.00 39.00" xmlns="http://www.w3.org/2000/svg" xmlns:xlink="http://www.w3.org/1999/xlink">
<g id="graph0" class="graph" transform="scale(1 1) rotate(0) translate(4 35)">
<title>Async_Server::handle_accept</title>
<!-- Node1 -->
<g id="node1" class="node"><title>Node1</title>
<polygon fill="#bfbfbf" stroke="black" points="0,-0.5 0,-30.5 113,-30.5 113,-0.5 0,-0.5"/>
<text text-anchor="start" x="8" y="-18.5" font-family="Helvetica,sans-Serif" font-size="10.00">Async_Server::handle</text>
<text text-anchor="middle" x="56.5" y="-7.5" font-family="Helvetica,sans-Serif" font-size="10.00">_accept</text>
</g>
<!-- Node2 -->
<g id="node2" class="node"><title>Node2</title>
<g id="a_node2"><a xlink:href="classAsync__Server.html#a475dc9277092d67f647cdfeeb91f2943" target="_top" xlink:title="Function waiting for new connections to accept. ">
<polygon fill="none" stroke="black" points="149,-0.5 149,-30.5 253,-30.5 253,-0.5 149,-0.5"/>
<text text-anchor="start" x="157" y="-18.5" font-family="Helvetica,sans-Serif" font-size="10.00">Async_Server::start</text>
<text text-anchor="middle" x="201" y="-7.5" font-family="Helvetica,sans-Serif" font-size="10.00">_accept</text>
</a>
</g>
</g>
<!-- Node1&#45;&gt;Node2 -->
<g id="edge1" class="edge"><title>Node1&#45;&gt;Node2</title>
<path fill="none" stroke="midnightblue" d="M123.005,-8.76954C131.595,-8.71099 140.297,-8.78401 148.608,-8.98862"/>
<polygon fill="midnightblue" stroke="midnightblue" points="122.956,-5.26978 113.002,-8.89873 123.047,-12.2692 122.956,-5.26978"/>
</g>
<!-- Node2&#45;&gt;Node1 -->
<g id="edge4" class="edge"><title>Node2&#45;&gt;Node1</title>
<path fill="none" stroke="midnightblue" d="M138.424,-22.1944C129.972,-22.2921 121.336,-22.2611 113.002,-22.1013"/>
<polygon fill="midnightblue" stroke="midnightblue" points="138.672,-25.6906 148.608,-22.0114 138.546,-18.6917 138.672,-25.6906"/>
</g>
<!-- Node3 -->
<g id="node3" class="node"><title>Node3</title>
<g id="a_node3"><a xlink:href="classAsync__Server.html#a33e192d098956111828840a354da0891" target="_top" xlink:title="Server constructor. ">
<polygon fill="none" stroke="black" points="289,-0.5 289,-30.5 401,-30.5 401,-0.5 289,-0.5"/>
<text text-anchor="start" x="297" y="-18.5" font-family="Helvetica,sans-Serif" font-size="10.00">Async_Server::Async</text>
<text text-anchor="middle" x="345" y="-7.5" font-family="Helvetica,sans-Serif" font-size="10.00">_Server</text>
</a>
</g>
</g>
<!-- Node2&#45;&gt;Node3 -->
<g id="edge2" class="edge"><title>Node2&#45;&gt;Node3</title>
<path fill="none" stroke="midnightblue" d="M263.481,-15.5C271.959,-15.5 280.621,-15.5 288.972,-15.5"/>
<polygon fill="midnightblue" stroke="midnightblue" points="263.265,-12.0001 253.265,-15.5 263.265,-19.0001 263.265,-12.0001"/>
</g>
<!-- Node4 -->
<g id="node4" class="node"><title>Node4</title>
<g id="a_node4"><a xlink:href="classFinkenPlugin.html#a82c0cd5fa1b9fdb5f5a625458a9b545b" target="_top" xlink:title="Called once on the loading of any scene, it checks for the presence of a Dummy object &quot;ScriptLoader&quot; ...">
<polygon fill="none" stroke="black" points="437,-6 437,-25 563,-25 563,-6 437,-6"/>
<text text-anchor="middle" x="500" y="-13" font-family="Helvetica,sans-Serif" font-size="10.00">FinkenPlugin::sceneLoad</text>
</a>
</g>
</g>
<!-- Node3&#45;&gt;Node4 -->
<g id="edge3" class="edge"><title>Node3&#45;&gt;Node4</title>
<path fill="none" stroke="midnightblue" d="M411.405,-15.5C419.84,-15.5 428.458,-15.5 436.838,-15.5"/>
<polygon fill="midnightblue" stroke="midnightblue" points="411.237,-12.0001 401.237,-15.5 411.236,-19.0001 411.237,-12.0001"/>
</g>
</g>
</svg>
