<?xml version="1.0" encoding="UTF-8" standalone="no"?>
<!DOCTYPE svg PUBLIC "-//W3C//DTD SVG 1.1//EN"
 "http://www.w3.org/Graphics/SVG/1.1/DTD/svg11.dtd">
<!-- Generated by graphviz version 2.38.0 (20140413.2041)
 -->
<!-- Title: finken.cpp Pages: 1 -->
<svg width="1985pt" height="263pt"
 viewBox="0.00 0.00 1985.00 263.00" xmlns="http://www.w3.org/2000/svg" xmlns:xlink="http://www.w3.org/1999/xlink">
<g id="graph0" class="graph" transform="scale(1 1) rotate(0) translate(4 259)">
<title>finken.cpp</title>
<!-- Node1 -->
<g id="node1" class="node"><title>Node1</title>
<polygon fill="#bfbfbf" stroke="black" points="463.5,-235.5 463.5,-254.5 525.5,-254.5 525.5,-235.5 463.5,-235.5"/>
<text text-anchor="middle" x="494.5" y="-242.5" font-family="Helvetica,sans-Serif" font-size="10.00">finken.cpp</text>
</g>
<!-- Node2 -->
<g id="node2" class="node"><title>Node2</title>
<g id="a_node2"><a xlink:href="finken_8h.html" target="_top" xlink:title="header for the finken implementation ">
<polygon fill="none" stroke="black" points="841,-179.5 841,-198.5 892,-198.5 892,-179.5 841,-179.5"/>
<text text-anchor="middle" x="866.5" y="-186.5" font-family="Helvetica,sans-Serif" font-size="10.00">finken.h</text>
</a>
</g>
</g>
<!-- Node1&#45;&gt;Node2 -->
<g id="edge1" class="edge"><title>Node1&#45;&gt;Node2</title>
<path fill="none" stroke="midnightblue" d="M525.577,-239.489C594.149,-229.535 758.08,-205.738 830.759,-195.188"/>
<polygon fill="midnightblue" stroke="midnightblue" points="831.404,-198.631 840.798,-193.731 830.399,-191.704 831.404,-198.631"/>
</g>
<!-- Node4 -->
<g id="node4" class="node"><title>Node4</title>
<polygon fill="none" stroke="#bfbfbf" points="0,-118 0,-137 45,-137 45,-118 0,-118"/>
<text text-anchor="middle" x="22.5" y="-125" font-family="Helvetica,sans-Serif" font-size="10.00">cstdlib</text>
</g>
<!-- Node1&#45;&gt;Node4 -->
<g id="edge33" class="edge"><title>Node1&#45;&gt;Node4</title>
<path fill="none" stroke="midnightblue" d="M463.448,-240.091C413.96,-233.548 314.333,-219.09 231.5,-199 151.315,-179.552 131.547,-172.524 54.5,-143 52.8946,-142.385 51.2548,-141.729 49.6076,-141.05"/>
<polygon fill="midnightblue" stroke="midnightblue" points="50.8483,-137.773 40.281,-137.01 48.0658,-144.196 50.8483,-137.773"/>
</g>
<!-- Node5 -->
<g id="node5" class="node"><title>Node5</title>
<polygon fill="none" stroke="#bfbfbf" points="63.5,-118 63.5,-137 117.5,-137 117.5,-118 63.5,-118"/>
<text text-anchor="middle" x="90.5" y="-125" font-family="Helvetica,sans-Serif" font-size="10.00">iostream</text>
</g>
<!-- Node1&#45;&gt;Node5 -->
<g id="edge31" class="edge"><title>Node1&#45;&gt;Node5</title>
<path fill="none" stroke="midnightblue" d="M463.22,-237.386C425.24,-229.182 359.334,-214.386 303.5,-199 223.955,-177.079 204.158,-170.878 126.5,-143 124.597,-142.317 122.647,-141.595 120.685,-140.852"/>
<polygon fill="midnightblue" stroke="midnightblue" points="121.545,-137.431 110.957,-137.054 118.999,-143.952 121.545,-137.431"/>
</g>
<!-- Node8 -->
<g id="node8" class="node"><title>Node8</title>
<polygon fill="none" stroke="#bfbfbf" points="135.5,-118 135.5,-137 215.5,-137 215.5,-118 135.5,-118"/>
<text text-anchor="middle" x="175.5" y="-125" font-family="Helvetica,sans-Serif" font-size="10.00">boost/asio.hpp</text>
</g>
<!-- Node1&#45;&gt;Node8 -->
<g id="edge40" class="edge"><title>Node1&#45;&gt;Node8</title>
<path fill="none" stroke="midnightblue" d="M467.064,-235.452C439.303,-226.695 395.216,-212.489 357.5,-199 303.838,-179.808 242.13,-155.404 206.11,-140.92"/>
<polygon fill="midnightblue" stroke="midnightblue" points="207.243,-137.603 196.66,-137.111 204.626,-144.096 207.243,-137.603"/>
</g>
<!-- Node10 -->
<g id="node10" class="node"><title>Node10</title>
<polygon fill="none" stroke="#bfbfbf" points="233.5,-118 233.5,-137 279.5,-137 279.5,-118 233.5,-118"/>
<text text-anchor="middle" x="256.5" y="-125" font-family="Helvetica,sans-Serif" font-size="10.00">chrono</text>
</g>
<!-- Node1&#45;&gt;Node10 -->
<g id="edge41" class="edge"><title>Node1&#45;&gt;Node10</title>
<path fill="none" stroke="midnightblue" d="M476.611,-235.319C435.16,-215.203 332.344,-165.307 283.324,-141.518"/>
<polygon fill="midnightblue" stroke="midnightblue" points="284.796,-138.342 274.272,-137.124 281.74,-144.639 284.796,-138.342"/>
</g>
<!-- Node12 -->
<g id="node12" class="node"><title>Node12</title>
<polygon fill="none" stroke="#bfbfbf" points="298,-118 298,-137 405,-137 405,-118 298,-118"/>
<text text-anchor="middle" x="351.5" y="-125" font-family="Helvetica,sans-Serif" font-size="10.00">boost/filesystem.hpp</text>
</g>
<!-- Node1&#45;&gt;Node12 -->
<g id="edge38" class="edge"><title>Node1&#45;&gt;Node12</title>
<path fill="none" stroke="midnightblue" d="M483.752,-235.319C459.632,-215.837 400.931,-168.425 370.498,-143.845"/>
<polygon fill="midnightblue" stroke="midnightblue" points="372.352,-140.843 362.373,-137.282 367.953,-146.288 372.352,-140.843"/>
</g>
<!-- Node13 -->
<g id="node13" class="node"><title>Node13</title>
<polygon fill="none" stroke="#bfbfbf" points="423,-118 423,-137 566,-137 566,-118 423,-118"/>
<text text-anchor="middle" x="494.5" y="-125" font-family="Helvetica,sans-Serif" font-size="10.00">boost/filesystem/fstream.hpp</text>
</g>
<!-- Node1&#45;&gt;Node13 -->
<g id="edge39" class="edge"><title>Node1&#45;&gt;Node13</title>
<path fill="none" stroke="midnightblue" d="M494.5,-235.319C494.5,-216.757 494.5,-172.839 494.5,-147.473"/>
<polygon fill="midnightblue" stroke="midnightblue" points="498,-147.282 494.5,-137.282 491,-147.282 498,-147.282"/>
</g>
<!-- Node16 -->
<g id="node16" class="node"><title>Node16</title>
<polygon fill="none" stroke="#bfbfbf" points="1845.5,-118 1845.5,-137 1889.5,-137 1889.5,-118 1845.5,-118"/>
<text text-anchor="middle" x="1867.5" y="-125" font-family="Helvetica,sans-Serif" font-size="10.00">mutex</text>
</g>
<!-- Node1&#45;&gt;Node16 -->
<g id="edge42" class="edge"><title>Node1&#45;&gt;Node16</title>
<path fill="none" stroke="midnightblue" d="M525.524,-243.971C594.467,-243.177 765.088,-237.155 901.5,-199 921.798,-193.323 924.016,-183.966 944.5,-179 1330.1,-85.5181 1451,-236.898 1836.5,-143 1838.49,-142.515 1840.51,-141.897 1842.51,-141.191"/>
<polygon fill="midnightblue" stroke="midnightblue" points="1844.31,-144.233 1852.17,-137.135 1841.6,-137.779 1844.31,-144.233"/>
</g>
<!-- Node27 -->
<g id="node27" class="node"><title>Node27</title>
<polygon fill="none" stroke="#bfbfbf" points="986.5,-179.5 986.5,-198.5 1032.5,-198.5 1032.5,-179.5 986.5,-179.5"/>
<text text-anchor="middle" x="1009.5" y="-186.5" font-family="Helvetica,sans-Serif" font-size="10.00">cstring</text>
</g>
<!-- Node1&#45;&gt;Node27 -->
<g id="edge32" class="edge"><title>Node1&#45;&gt;Node27</title>
<path fill="none" stroke="midnightblue" d="M525.74,-242.626C602.338,-238.919 805.42,-227.034 972.5,-199 973.747,-198.791 975.014,-198.563 976.291,-198.319"/>
<polygon fill="midnightblue" stroke="midnightblue" points="977.065,-201.733 986.118,-196.229 975.608,-194.886 977.065,-201.733"/>
</g>
<!-- Node28 -->
<g id="node28" class="node"><title>Node28</title>
<g id="a_node28"><a xlink:href="vrepplugin_8h.html" target="_top" xlink:title="vrepplugin.h">
<polygon fill="none" stroke="black" points="1908,-118 1908,-137 1977,-137 1977,-118 1908,-118"/>
<text text-anchor="middle" x="1942.5" y="-125" font-family="Helvetica,sans-Serif" font-size="10.00">vrepplugin.h</text>
</a>
</g>
</g>
<!-- Node1&#45;&gt;Node28 -->
<g id="edge34" class="edge"><title>Node1&#45;&gt;Node28</title>
<path fill="none" stroke="midnightblue" d="M525.745,-244.542C599.021,-245.018 787.03,-241.601 936.5,-199 955.998,-193.443 957.838,-183.946 977.5,-179 1176.13,-129.03 1696.94,-179.408 1898.5,-143 1902.48,-142.281 1906.6,-141.284 1910.64,-140.147"/>
<polygon fill="midnightblue" stroke="midnightblue" points="1911.92,-143.416 1920.43,-137.109 1909.84,-136.731 1911.92,-143.416"/>
</g>
<!-- Node29 -->
<g id="node29" class="node"><title>Node29</title>
<polygon fill="none" stroke="#bfbfbf" points="1050.5,-179.5 1050.5,-198.5 1100.5,-198.5 1100.5,-179.5 1050.5,-179.5"/>
<text text-anchor="middle" x="1075.5" y="-186.5" font-family="Helvetica,sans-Serif" font-size="10.00">fstream</text>
</g>
<!-- Node1&#45;&gt;Node29 -->
<g id="edge37" class="edge"><title>Node1&#45;&gt;Node29</title>
<path fill="none" stroke="midnightblue" d="M525.584,-243.362C608.053,-241.264 839.266,-232.742 1040.21,-198.92"/>
<polygon fill="midnightblue" stroke="midnightblue" points="1041.09,-202.32 1050.36,-197.185 1039.91,-195.42 1041.09,-202.32"/>
</g>
<!-- Node3 -->
<g id="node3" class="node"><title>Node3</title>
<polygon fill="none" stroke="#bfbfbf" points="584.5,-118 584.5,-137 636.5,-137 636.5,-118 584.5,-118"/>
<text text-anchor="middle" x="610.5" y="-125" font-family="Helvetica,sans-Serif" font-size="10.00">memory</text>
</g>
<!-- Node2&#45;&gt;Node3 -->
<g id="edge2" class="edge"><title>Node2&#45;&gt;Node3</title>
<path fill="none" stroke="midnightblue" d="M840.916,-184.425C799.336,-178.252 714.77,-164.186 645.5,-143 643.218,-142.302 640.88,-141.511 638.547,-140.666"/>
<polygon fill="midnightblue" stroke="midnightblue" points="639.737,-137.374 629.148,-137.002 637.194,-143.895 639.737,-137.374"/>
</g>
<!-- Node2&#45;&gt;Node4 -->
<g id="edge3" class="edge"><title>Node2&#45;&gt;Node4</title>
<path fill="none" stroke="midnightblue" d="M840.852,-187.847C720.247,-186.934 208.941,-180.861 54.5,-143 52.2859,-142.457 50.0363,-141.764 47.8087,-140.975"/>
<polygon fill="midnightblue" stroke="midnightblue" points="48.9413,-137.657 38.362,-137.083 46.2744,-144.129 48.9413,-137.657"/>
</g>
<!-- Node2&#45;&gt;Node5 -->
<g id="edge4" class="edge"><title>Node2&#45;&gt;Node5</title>
<path fill="none" stroke="midnightblue" d="M840.915,-187.546C727.189,-185.358 266.966,-174.679 126.5,-143 123.665,-142.361 120.764,-141.525 117.899,-140.578"/>
<polygon fill="midnightblue" stroke="midnightblue" points="119.041,-137.268 108.448,-137.049 116.592,-143.826 119.041,-137.268"/>
</g>
<!-- Node6 -->
<g id="node6" class="node"><title>Node6</title>
<polygon fill="none" stroke="#bfbfbf" points="654.5,-118 654.5,-137 698.5,-137 698.5,-118 654.5,-118"/>
<text text-anchor="middle" x="676.5" y="-125" font-family="Helvetica,sans-Serif" font-size="10.00">thread</text>
</g>
<!-- Node2&#45;&gt;Node6 -->
<g id="edge5" class="edge"><title>Node2&#45;&gt;Node6</title>
<path fill="none" stroke="midnightblue" d="M840.757,-182.076C808.97,-174.452 753.47,-160.128 707.5,-143 706.073,-142.468 704.622,-141.898 703.164,-141.302"/>
<polygon fill="midnightblue" stroke="midnightblue" points="704.232,-137.948 693.668,-137.132 701.418,-144.357 704.232,-137.948"/>
</g>
<!-- Node7 -->
<g id="node7" class="node"><title>Node7</title>
<polygon fill="none" stroke="#bfbfbf" points="716.5,-118 716.5,-137 756.5,-137 756.5,-118 716.5,-118"/>
<text text-anchor="middle" x="736.5" y="-125" font-family="Helvetica,sans-Serif" font-size="10.00">utility</text>
</g>
<!-- Node2&#45;&gt;Node7 -->
<g id="edge6" class="edge"><title>Node2&#45;&gt;Node7</title>
<path fill="none" stroke="midnightblue" d="M846.883,-179.362C826.668,-170.417 794.277,-155.959 766.5,-143 765.35,-142.463 764.177,-141.912 762.993,-141.353"/>
<polygon fill="midnightblue" stroke="midnightblue" points="764.443,-138.167 753.911,-137.015 761.426,-144.484 764.443,-138.167"/>
</g>
<!-- Node2&#45;&gt;Node8 -->
<g id="edge7" class="edge"><title>Node2&#45;&gt;Node8</title>
<path fill="none" stroke="midnightblue" d="M840.868,-188.195C753.725,-188.435 461.167,-185.783 224.5,-143 219.783,-142.147 214.874,-141.009 210.065,-139.743"/>
<polygon fill="midnightblue" stroke="midnightblue" points="211.002,-136.37 200.426,-137.016 209.096,-143.106 211.002,-136.37"/>
</g>
<!-- Node9 -->
<g id="node9" class="node"><title>Node9</title>
<polygon fill="none" stroke="#bfbfbf" points="775,-118 775,-137 870,-137 870,-118 775,-118"/>
<text text-anchor="middle" x="822.5" y="-125" font-family="Helvetica,sans-Serif" font-size="10.00">condition_variable</text>
</g>
<!-- Node2&#45;&gt;Node9 -->
<g id="edge8" class="edge"><title>Node2&#45;&gt;Node9</title>
<path fill="none" stroke="midnightblue" d="M860.196,-179.475C853.596,-170.55 843.063,-156.307 834.807,-145.143"/>
<polygon fill="midnightblue" stroke="midnightblue" points="837.552,-142.968 828.792,-137.009 831.924,-147.131 837.552,-142.968"/>
</g>
<!-- Node2&#45;&gt;Node10 -->
<g id="edge9" class="edge"><title>Node2&#45;&gt;Node10</title>
<path fill="none" stroke="midnightblue" d="M840.793,-187.182C743.144,-183.893 395.365,-170.466 288.5,-143 286.292,-142.433 284.047,-141.722 281.822,-140.921"/>
<polygon fill="midnightblue" stroke="midnightblue" points="282.959,-137.604 272.381,-137.008 280.279,-144.07 282.959,-137.604"/>
</g>
<!-- Node11 -->
<g id="node11" class="node"><title>Node11</title>
<polygon fill="none" stroke="#bfbfbf" points="888.5,-118 888.5,-137 934.5,-137 934.5,-118 888.5,-118"/>
<text text-anchor="middle" x="911.5" y="-125" font-family="Helvetica,sans-Serif" font-size="10.00">atomic</text>
</g>
<!-- Node2&#45;&gt;Node11 -->
<g id="edge10" class="edge"><title>Node2&#45;&gt;Node11</title>
<path fill="none" stroke="midnightblue" d="M872.947,-179.475C879.697,-170.55 890.469,-156.307 898.913,-145.143"/>
<polygon fill="midnightblue" stroke="midnightblue" points="901.824,-147.096 905.065,-137.009 896.241,-142.874 901.824,-147.096"/>
</g>
<!-- Node2&#45;&gt;Node12 -->
<g id="edge11" class="edge"><title>Node2&#45;&gt;Node12</title>
<path fill="none" stroke="midnightblue" d="M840.803,-186.628C771.465,-182.67 574.893,-169.771 413.5,-143 407.274,-141.967 400.741,-140.674 394.348,-139.288"/>
<polygon fill="midnightblue" stroke="midnightblue" points="395.007,-135.848 384.481,-137.057 393.463,-142.676 395.007,-135.848"/>
</g>
<!-- Node2&#45;&gt;Node13 -->
<g id="edge12" class="edge"><title>Node2&#45;&gt;Node13</title>
<path fill="none" stroke="midnightblue" d="M840.775,-184.231C789.999,-176.746 673.324,-159.317 575.5,-143 567.586,-141.68 559.245,-140.241 551.047,-138.799"/>
<polygon fill="midnightblue" stroke="midnightblue" points="551.612,-135.345 541.155,-137.047 550.391,-142.238 551.612,-135.345"/>
</g>
<!-- Node14 -->
<g id="node14" class="node"><title>Node14</title>
<polygon fill="none" stroke="#bfbfbf" points="952.5,-112.5 952.5,-142.5 1056.5,-142.5 1056.5,-112.5 952.5,-112.5"/>
<text text-anchor="start" x="960.5" y="-130.5" font-family="Helvetica,sans-Serif" font-size="10.00">boost/archive/binary</text>
<text text-anchor="middle" x="1004.5" y="-119.5" font-family="Helvetica,sans-Serif" font-size="10.00">_oarchive.hpp</text>
</g>
<!-- Node2&#45;&gt;Node14 -->
<g id="edge13" class="edge"><title>Node2&#45;&gt;Node14</title>
<path fill="none" stroke="midnightblue" d="M886.272,-179.475C906.098,-170.927 937.237,-157.501 962.582,-146.573"/>
<polygon fill="midnightblue" stroke="midnightblue" points="964.179,-149.696 971.976,-142.523 961.408,-143.268 964.179,-149.696"/>
</g>
<!-- Node15 -->
<g id="node15" class="node"><title>Node15</title>
<polygon fill="none" stroke="#bfbfbf" points="1074.5,-112.5 1074.5,-142.5 1178.5,-142.5 1178.5,-112.5 1074.5,-112.5"/>
<text text-anchor="start" x="1082.5" y="-130.5" font-family="Helvetica,sans-Serif" font-size="10.00">boost/archive/binary</text>
<text text-anchor="middle" x="1126.5" y="-119.5" font-family="Helvetica,sans-Serif" font-size="10.00">_iarchive.hpp</text>
</g>
<!-- Node2&#45;&gt;Node15 -->
<g id="edge14" class="edge"><title>Node2&#45;&gt;Node15</title>
<path fill="none" stroke="midnightblue" d="M892.147,-182.217C936.955,-172.111 1027.6,-151.658 1064.11,-143.296"/>
<polygon fill="midnightblue" stroke="midnightblue" points="1065.31,-146.611 1074.27,-140.956 1063.74,-139.79 1065.31,-146.611"/>
</g>
<!-- Node2&#45;&gt;Node16 -->
<g id="edge15" class="edge"><title>Node2&#45;&gt;Node16</title>
<path fill="none" stroke="midnightblue" d="M892.197,-181.493C896.927,-180.502 901.842,-179.609 906.5,-179 1111.58,-152.188 1635.51,-191.78 1836.5,-143 1838.49,-142.517 1840.51,-141.9 1842.51,-141.195"/>
<polygon fill="midnightblue" stroke="midnightblue" points="1844.31,-144.237 1852.17,-137.141 1841.6,-137.783 1844.31,-144.237"/>
</g>
<!-- Node17 -->
<g id="node17" class="node"><title>Node17</title>
<polygon fill="none" stroke="#bfbfbf" points="1443.5,-0.5 1443.5,-19.5 1487.5,-19.5 1487.5,-0.5 1443.5,-0.5"/>
<text text-anchor="middle" x="1465.5" y="-7.5" font-family="Helvetica,sans-Serif" font-size="10.00">vector</text>
</g>
<!-- Node2&#45;&gt;Node17 -->
<g id="edge16" class="edge"><title>Node2&#45;&gt;Node17</title>
<path fill="none" stroke="midnightblue" d="M892.134,-180.217C893.942,-179.773 895.744,-179.362 897.5,-179 1024.71,-152.812 1069.93,-198.183 1187.5,-143 1205.72,-134.45 1203.59,-122.903 1220.5,-112 1290.9,-66.6199 1385.07,-34.7055 1433.6,-20.0543"/>
<polygon fill="midnightblue" stroke="midnightblue" points="1434.65,-23.3939 1443.24,-17.1913 1432.66,-16.6836 1434.65,-23.3939"/>
</g>
<!-- Node18 -->
<g id="node18" class="node"><title>Node18</title>
<polygon fill="none" stroke="#bfbfbf" points="1581.5,-118 1581.5,-137 1643.5,-137 1643.5,-118 1581.5,-118"/>
<text text-anchor="middle" x="1612.5" y="-125" font-family="Helvetica,sans-Serif" font-size="10.00">v_repLib.h</text>
</g>
<!-- Node2&#45;&gt;Node18 -->
<g id="edge17" class="edge"><title>Node2&#45;&gt;Node18</title>
<path fill="none" stroke="midnightblue" d="M892.205,-181.553C896.934,-180.557 901.847,-179.646 906.5,-179 1197.92,-138.568 1278.2,-196.559 1567.5,-143 1571.68,-142.227 1576,-141.174 1580.25,-139.985"/>
<polygon fill="midnightblue" stroke="midnightblue" points="1581.36,-143.306 1589.9,-137.035 1579.31,-136.612 1581.36,-143.306"/>
</g>
<!-- Node19 -->
<g id="node19" class="node"><title>Node19</title>
<polygon fill="none" stroke="#bfbfbf" points="1661.5,-118 1661.5,-137 1735.5,-137 1735.5,-118 1661.5,-118"/>
<text text-anchor="middle" x="1698.5" y="-125" font-family="Helvetica,sans-Serif" font-size="10.00">dataPacket.h</text>
</g>
<!-- Node2&#45;&gt;Node19 -->
<g id="edge18" class="edge"><title>Node2&#45;&gt;Node19</title>
<path fill="none" stroke="midnightblue" d="M892.202,-181.529C896.931,-180.535 901.845,-179.631 906.5,-179 1235.43,-134.4 1325.73,-201.378 1652.5,-143 1656.77,-142.238 1661.19,-141.191 1665.53,-140.007"/>
<polygon fill="midnightblue" stroke="midnightblue" points="1666.81,-143.276 1675.39,-137.06 1664.81,-136.569 1666.81,-143.276"/>
</g>
<!-- Node20 -->
<g id="node20" class="node"><title>Node20</title>
<g id="a_node20"><a xlink:href="sensor_8h.html" target="_top" xlink:title="sensor.h">
<polygon fill="none" stroke="black" points="1387.5,-56.5 1387.5,-75.5 1441.5,-75.5 1441.5,-56.5 1387.5,-56.5"/>
<text text-anchor="middle" x="1414.5" y="-63.5" font-family="Helvetica,sans-Serif" font-size="10.00">sensor.h</text>
</a>
</g>
</g>
<!-- Node2&#45;&gt;Node20 -->
<g id="edge19" class="edge"><title>Node2&#45;&gt;Node20</title>
<path fill="none" stroke="midnightblue" d="M892.24,-181.782C896.966,-180.762 901.868,-179.784 906.5,-179 1045,-155.549 1089.51,-193.717 1220.5,-143 1242.47,-134.494 1242.36,-122.399 1263.5,-112 1300.33,-93.8847 1345.86,-81.5462 1377.24,-74.4357"/>
<polygon fill="midnightblue" stroke="midnightblue" points="1378.29,-77.7885 1387.3,-72.224 1376.78,-70.9516 1378.29,-77.7885"/>
</g>
<!-- Node21 -->
<g id="node21" class="node"><title>Node21</title>
<g id="a_node21"><a xlink:href="sonar_8h.html" target="_top" xlink:title="sonar.h">
<polygon fill="none" stroke="black" points="1476,-118 1476,-137 1525,-137 1525,-118 1476,-118"/>
<text text-anchor="middle" x="1500.5" y="-125" font-family="Helvetica,sans-Serif" font-size="10.00">sonar.h</text>
</a>
</g>
</g>
<!-- Node2&#45;&gt;Node21 -->
<g id="edge21" class="edge"><title>Node2&#45;&gt;Node21</title>
<path fill="none" stroke="midnightblue" d="M892.21,-181.59C896.939,-180.59 901.85,-179.668 906.5,-179 1153.81,-143.468 1224.76,-202.156 1467.5,-143 1469.86,-142.425 1472.26,-141.691 1474.64,-140.859"/>
<polygon fill="midnightblue" stroke="midnightblue" points="1476.14,-144.03 1484.11,-137.05 1473.53,-137.536 1476.14,-144.03"/>
</g>
<!-- Node23 -->
<g id="node23" class="node"><title>Node23</title>
<g id="a_node23"><a xlink:href="heightsensor_8h.html" target="_top" xlink:title="heightsensor.h">
<polygon fill="none" stroke="black" points="1272.5,-118 1272.5,-137 1352.5,-137 1352.5,-118 1272.5,-118"/>
<text text-anchor="middle" x="1312.5" y="-125" font-family="Helvetica,sans-Serif" font-size="10.00">heightsensor.h</text>
</a>
</g>
</g>
<!-- Node2&#45;&gt;Node23 -->
<g id="edge24" class="edge"><title>Node2&#45;&gt;Node23</title>
<path fill="none" stroke="midnightblue" d="M892.233,-181.735C896.959,-180.72 901.863,-179.756 906.5,-179 1061.71,-153.695 1103.84,-171.483 1258.5,-143 1263.62,-142.057 1268.96,-140.873 1274.21,-139.59"/>
<polygon fill="midnightblue" stroke="midnightblue" points="1275.3,-142.925 1284.11,-137.039 1273.55,-136.146 1275.3,-142.925"/>
</g>
<!-- Node24 -->
<g id="node24" class="node"><title>Node24</title>
<g id="a_node24"><a xlink:href="rotor_8h.html" target="_top" xlink:title="rotor.h">
<polygon fill="none" stroke="black" points="1495.5,-56.5 1495.5,-75.5 1539.5,-75.5 1539.5,-56.5 1495.5,-56.5"/>
<text text-anchor="middle" x="1517.5" y="-63.5" font-family="Helvetica,sans-Serif" font-size="10.00">rotor.h</text>
</a>
</g>
</g>
<!-- Node2&#45;&gt;Node24 -->
<g id="edge26" class="edge"><title>Node2&#45;&gt;Node24</title>
<path fill="none" stroke="midnightblue" d="M892.207,-181.564C896.935,-180.566 901.848,-179.652 906.5,-179 975.715,-169.296 1486.51,-193.816 1534.5,-143 1549.32,-127.305 1539.04,-101.624 1529.21,-84.5193"/>
<polygon fill="midnightblue" stroke="midnightblue" points="1531.91,-82.2317 1523.66,-75.5794 1525.96,-85.9221 1531.91,-82.2317"/>
</g>
<!-- Node25 -->
<g id="node25" class="node"><title>Node25</title>
<g id="a_node25"><a xlink:href="positionsensor_8h.html" target="_top" xlink:title="positionsensor.h">
<polygon fill="none" stroke="black" points="1370.5,-118 1370.5,-137 1458.5,-137 1458.5,-118 1370.5,-118"/>
<text text-anchor="middle" x="1414.5" y="-125" font-family="Helvetica,sans-Serif" font-size="10.00">positionsensor.h</text>
</a>
</g>
</g>
<!-- Node2&#45;&gt;Node25 -->
<g id="edge28" class="edge"><title>Node2&#45;&gt;Node25</title>
<path fill="none" stroke="midnightblue" d="M892.219,-181.647C896.946,-180.641 901.855,-179.703 906.5,-179 1107.07,-148.659 1161.67,-177.92 1361.5,-143 1366.65,-142.099 1372.03,-140.919 1377.3,-139.62"/>
<polygon fill="midnightblue" stroke="midnightblue" points="1378.43,-142.943 1387.21,-137.019 1376.65,-136.172 1378.43,-142.943"/>
</g>
<!-- Node26 -->
<g id="node26" class="node"><title>Node26</title>
<polygon fill="none" stroke="#bfbfbf" points="1754,-118 1754,-137 1827,-137 1827,-118 1754,-118"/>
<text text-anchor="middle" x="1790.5" y="-125" font-family="Helvetica,sans-Serif" font-size="10.00">Eigen/Dense</text>
</g>
<!-- Node2&#45;&gt;Node26 -->
<g id="edge30" class="edge"><title>Node2&#45;&gt;Node26</title>
<path fill="none" stroke="midnightblue" d="M892.199,-181.509C896.929,-180.517 901.843,-179.619 906.5,-179 1276.04,-129.889 1377.35,-207.592 1744.5,-143 1748.77,-142.249 1753.19,-141.209 1757.53,-140.028"/>
<polygon fill="midnightblue" stroke="midnightblue" points="1758.81,-143.298 1767.39,-137.085 1756.81,-136.59 1758.81,-143.298"/>
</g>
<!-- Node20&#45;&gt;Node17 -->
<g id="edge20" class="edge"><title>Node20&#45;&gt;Node17</title>
<path fill="none" stroke="midnightblue" d="M1422.92,-56.083C1430.35,-48.2195 1441.35,-36.5688 1450.31,-27.0813"/>
<polygon fill="midnightblue" stroke="midnightblue" points="1452.91,-29.4244 1457.24,-19.7511 1447.82,-24.618 1452.91,-29.4244"/>
</g>
<!-- Node21&#45;&gt;Node20 -->
<g id="edge22" class="edge"><title>Node21&#45;&gt;Node20</title>
<path fill="none" stroke="midnightblue" d="M1488.18,-117.975C1474.38,-108.431 1451.8,-92.8073 1435.27,-81.3683"/>
<polygon fill="midnightblue" stroke="midnightblue" points="1437.01,-78.3205 1426.8,-75.5091 1433.03,-84.077 1437.01,-78.3205"/>
</g>
<!-- Node22 -->
<g id="node22" class="node"><title>Node22</title>
<polygon fill="none" stroke="#bfbfbf" points="1628,-56.5 1628,-75.5 1669,-75.5 1669,-56.5 1628,-56.5"/>
<text text-anchor="middle" x="1648.5" y="-63.5" font-family="Helvetica,sans-Serif" font-size="10.00">string</text>
</g>
<!-- Node21&#45;&gt;Node22 -->
<g id="edge23" class="edge"><title>Node21&#45;&gt;Node22</title>
<path fill="none" stroke="midnightblue" d="M1521.7,-117.975C1547.02,-107.8 1589.52,-90.7117 1618.27,-79.1542"/>
<polygon fill="midnightblue" stroke="midnightblue" points="1619.84,-82.2948 1627.81,-75.3173 1617.23,-75.8 1619.84,-82.2948"/>
</g>
<!-- Node23&#45;&gt;Node20 -->
<g id="edge25" class="edge"><title>Node23&#45;&gt;Node20</title>
<path fill="none" stroke="midnightblue" d="M1327.11,-117.975C1343.85,-108.211 1371.5,-92.0807 1391.22,-80.5808"/>
<polygon fill="midnightblue" stroke="midnightblue" points="1393.04,-83.5711 1399.91,-75.5091 1389.51,-77.5246 1393.04,-83.5711"/>
</g>
<!-- Node24&#45;&gt;Node17 -->
<g id="edge27" class="edge"><title>Node24&#45;&gt;Node17</title>
<path fill="none" stroke="midnightblue" d="M1508.91,-56.083C1501.34,-48.2195 1490.12,-36.5688 1480.99,-27.0813"/>
<polygon fill="midnightblue" stroke="midnightblue" points="1483.38,-24.5266 1473.93,-19.7511 1478.34,-29.3821 1483.38,-24.5266"/>
</g>
<!-- Node25&#45;&gt;Node20 -->
<g id="edge29" class="edge"><title>Node25&#45;&gt;Node20</title>
<path fill="none" stroke="midnightblue" d="M1414.5,-117.975C1414.5,-109.58 1414.5,-96.4806 1414.5,-85.6631"/>
<polygon fill="midnightblue" stroke="midnightblue" points="1418,-85.5091 1414.5,-75.5091 1411,-85.5091 1418,-85.5091"/>
</g>
<!-- Node28&#45;&gt;Node17 -->
<g id="edge36" class="edge"><title>Node28&#45;&gt;Node17</title>
<path fill="none" stroke="midnightblue" d="M1917.46,-117.918C1911.29,-115.893 1904.68,-113.802 1898.5,-112 1750.53,-68.8418 1569.96,-31.5621 1497.67,-17.2478"/>
<polygon fill="midnightblue" stroke="midnightblue" points="1498.29,-13.8036 1487.8,-15.3045 1496.94,-20.6716 1498.29,-13.8036"/>
</g>
<!-- Node28&#45;&gt;Node22 -->
<g id="edge35" class="edge"><title>Node28&#45;&gt;Node22</title>
<path fill="none" stroke="midnightblue" d="M1918.47,-117.907C1912.04,-115.792 1905.05,-113.66 1898.5,-112 1820.41,-92.2075 1726.46,-77.7475 1679.05,-71.0885"/>
<polygon fill="midnightblue" stroke="midnightblue" points="1679.51,-67.6183 1669.12,-69.7125 1678.55,-74.552 1679.51,-67.6183"/>
</g>
</g>
</svg>
