<?xml version="1.0" encoding="UTF-8" standalone="no"?>
<!DOCTYPE svg PUBLIC "-//W3C//DTD SVG 1.1//EN"
 "http://www.w3.org/Graphics/SVG/1.1/DTD/svg11.dtd">
<!-- Generated by graphviz version 2.38.0 (20140413.2041)
 -->
<!-- Title: buildFinken Pages: 1 -->
<svg width="196pt" height="66pt"
 viewBox="0.00 0.00 196.00 66.00" xmlns="http://www.w3.org/2000/svg" xmlns:xlink="http://www.w3.org/1999/xlink">
<g id="graph0" class="graph" transform="scale(1 1) rotate(0) translate(4 62)">
<title>buildFinken</title>
<!-- Node1 -->
<g id="node1" class="node"><title>Node1</title>
<polygon fill="#bfbfbf" stroke="black" points="0,-19.5 0,-38.5 66,-38.5 66,-19.5 0,-19.5"/>
<text text-anchor="middle" x="33" y="-26.5" font-family="Helvetica,sans-Serif" font-size="10.00">buildFinken</text>
</g>
<!-- Node2 -->
<g id="node2" class="node"><title>Node2</title>
<g id="a_node2"><a xlink:href="classFinken.html#ae3c3abbf571407e210f4b03b68cada9d" target="_top" xlink:title="Main function containing the Paparazzi&#45;V&#45;REP communication loop. ">
<polygon fill="none" stroke="black" points="112.5,-38.5 112.5,-57.5 177.5,-57.5 177.5,-38.5 112.5,-38.5"/>
<text text-anchor="middle" x="145" y="-45.5" font-family="Helvetica,sans-Serif" font-size="10.00">Finken::run</text>
</a>
</g>
</g>
<!-- Node1&#45;&gt;Node2 -->
<g id="edge1" class="edge"><title>Node1&#45;&gt;Node2</title>
<path fill="none" stroke="midnightblue" d="M76.0036,-36.2552C88.0939,-38.3435 101.073,-40.5853 112.417,-42.5448"/>
<polygon fill="midnightblue" stroke="midnightblue" points="76.5621,-32.7999 66.1123,-34.5467 75.3706,-39.6977 76.5621,-32.7999"/>
</g>
<!-- Node3 -->
<g id="node3" class="node"><title>Node3</title>
<g id="a_node3"><a xlink:href="classFinken.html#aa4779668e3bf85253e371b30e0da808a" target="_top" xlink:title="Called in the accept handler, this function passes the incoming connection to the corresponding finke...">
<polygon fill="none" stroke="black" points="102,-0.5 102,-19.5 188,-19.5 188,-0.5 102,-0.5"/>
<text text-anchor="middle" x="145" y="-7.5" font-family="Helvetica,sans-Serif" font-size="10.00">Finken::connect</text>
</a>
</g>
</g>
<!-- Node1&#45;&gt;Node3 -->
<g id="edge2" class="edge"><title>Node1&#45;&gt;Node3</title>
<path fill="none" stroke="midnightblue" d="M76.1172,-21.7252C84.5401,-20.2704 93.3901,-18.7417 101.815,-17.2865"/>
<polygon fill="midnightblue" stroke="midnightblue" points="75.3706,-18.3023 66.1123,-23.4533 76.5621,-25.2001 75.3706,-18.3023"/>
</g>
</g>
</svg>
