<?xml version="1.0" encoding="UTF-8" standalone="no"?>
<!DOCTYPE svg PUBLIC "-//W3C//DTD SVG 1.1//EN"
 "http://www.w3.org/Graphics/SVG/1.1/DTD/svg11.dtd">
<!-- Generated by graphviz version 2.38.0 (20140413.2041)
 -->
<!-- Title: finken.h Pages: 1 -->
<!--zoomable 207 -->
<svg id="main" version="1.1" xmlns="http://www.w3.org/2000/svg" xmlns:xlink="http://www.w3.org/1999/xlink" xml:space="preserve" onload="init(evt)">
<style type="text/css"><![CDATA[
.edge:hover path { stroke: red; }
.edge:hover polygon { stroke: red; fill: red; }
]]></style>
<script type="text/javascript"><![CDATA[
var edges = document.getElementsByTagName('g');
if (edges && edges.length) {
  for (var i=0;i<edges.length;i++) {
    if (edges[i].id.substr(0,4)=='edge') {
      edges[i].setAttribute('class','edge');
    }
  }
}
]]></script>
        <defs>
                <circle id="rim" cx="0" cy="0" r="7"/>
                <circle id="rim2" cx="0" cy="0" r="3.5"/>
                <g id="zoomPlus">
                        <use xlink:href="#rim" fill="#404040">
                                <set attributeName="fill" to="#808080" begin="zoomplus.mouseover" end="zoomplus.mouseout"/>
                        </use>
                        <path d="M-4,0h8M0,-4v8" fill="none" stroke="white" stroke-width="1.5" pointer-events="none"/>
                </g>
                <g id="zoomMin">
                        <use xlink:href="#rim" fill="#404040">
                                <set attributeName="fill" to="#808080" begin="zoomminus.mouseover" end="zoomminus.mouseout"/>
                        </use>
                        <path d="M-4,0h8" fill="none" stroke="white" stroke-width="1.5" pointer-events="none"/>
                </g>
                <g id="dirArrow">
                        <path fill="none" stroke="white" stroke-width="1.5" d="M0,-3.0v7 M-2.5,-0.5L0,-3.0L2.5,-0.5"/>
                </g>
               <g id="resetDef">
                       <use xlink:href="#rim2" fill="#404040">
                               <set attributeName="fill" to="#808080" begin="reset.mouseover" end="reset.mouseout"/>
                       </use>
               </g>
        </defs>

<script type="text/javascript">
var viewWidth = 1898;
var viewHeight = 207;
var sectionId = 'dynsection-0';
</script>
<script xlink:href="svgpan.js"/>
<svg id="graph" class="graph">
<g id="viewport">
<title>finken.h</title>
<!-- Node1 -->
<g id="node1" class="node"><title>Node1</title>
<polygon fill="#bfbfbf" stroke="black" points="979.5,-179.5 979.5,-198.5 1030.5,-198.5 1030.5,-179.5 979.5,-179.5"/>
<text text-anchor="middle" x="1005" y="-186.5" font-family="Helvetica,sans-Serif" font-size="10.00">finken.h</text>
</g>
<!-- Node2 -->
<g id="node2" class="node"><title>Node2</title>
<polygon fill="none" stroke="#bfbfbf" points="0,-118 0,-137 52,-137 52,-118 0,-118"/>
<text text-anchor="middle" x="26" y="-125" font-family="Helvetica,sans-Serif" font-size="10.00">memory</text>
</g>
<!-- Node1&#45;&gt;Node2 -->
<g id="edge1" class="edge"><title>Node1&#45;&gt;Node2</title>
<path fill="none" stroke="midnightblue" d="M979.277,-187.967C847.065,-187.615 243.129,-183.765 61,-143 58.3243,-142.401 55.592,-141.613 52.8923,-140.713"/>
<polygon fill="midnightblue" stroke="midnightblue" points="54.0088,-137.393 43.418,-137.101 51.5152,-143.933 54.0088,-137.393"/>
</g>
<!-- Node3 -->
<g id="node3" class="node"><title>Node3</title>
<polygon fill="none" stroke="#bfbfbf" points="70.5,-118 70.5,-137 115.5,-137 115.5,-118 70.5,-118"/>
<text text-anchor="middle" x="93" y="-125" font-family="Helvetica,sans-Serif" font-size="10.00">cstdlib</text>
</g>
<!-- Node1&#45;&gt;Node3 -->
<g id="edge2" class="edge"><title>Node1&#45;&gt;Node3</title>
<path fill="none" stroke="midnightblue" d="M979.343,-187.974C852.673,-187.65 293.352,-183.89 125,-143 122.785,-142.462 120.534,-141.772 118.306,-140.986"/>
<polygon fill="midnightblue" stroke="midnightblue" points="119.438,-137.667 108.859,-137.097 116.774,-144.14 119.438,-137.667"/>
</g>
<!-- Node4 -->
<g id="node4" class="node"><title>Node4</title>
<polygon fill="none" stroke="#bfbfbf" points="134,-118 134,-137 188,-137 188,-118 134,-118"/>
<text text-anchor="middle" x="161" y="-125" font-family="Helvetica,sans-Serif" font-size="10.00">iostream</text>
</g>
<!-- Node1&#45;&gt;Node4 -->
<g id="edge3" class="edge"><title>Node1&#45;&gt;Node4</title>
<path fill="none" stroke="midnightblue" d="M979.111,-187.693C858.524,-186.088 351.273,-177.38 197,-143 194.164,-142.368 191.262,-141.537 188.396,-140.593"/>
<polygon fill="midnightblue" stroke="midnightblue" points="189.537,-137.283 178.944,-137.068 187.091,-143.842 189.537,-137.283"/>
</g>
<!-- Node5 -->
<g id="node5" class="node"><title>Node5</title>
<polygon fill="none" stroke="#bfbfbf" points="206,-118 206,-137 250,-137 250,-118 206,-118"/>
<text text-anchor="middle" x="228" y="-125" font-family="Helvetica,sans-Serif" font-size="10.00">thread</text>
</g>
<!-- Node1&#45;&gt;Node5 -->
<g id="edge4" class="edge"><title>Node1&#45;&gt;Node5</title>
<path fill="none" stroke="midnightblue" d="M979.164,-187.74C864.328,-186.385 399.685,-178.755 259,-143 257.013,-142.495 254.999,-141.863 253.001,-141.147"/>
<polygon fill="midnightblue" stroke="midnightblue" points="253.918,-137.735 243.344,-137.07 251.195,-144.184 253.918,-137.735"/>
</g>
<!-- Node6 -->
<g id="node6" class="node"><title>Node6</title>
<polygon fill="none" stroke="#bfbfbf" points="268,-118 268,-137 308,-137 308,-118 268,-118"/>
<text text-anchor="middle" x="288" y="-125" font-family="Helvetica,sans-Serif" font-size="10.00">utility</text>
</g>
<!-- Node1&#45;&gt;Node6 -->
<g id="edge5" class="edge"><title>Node1&#45;&gt;Node6</title>
<path fill="none" stroke="midnightblue" d="M979.342,-187.678C870.359,-186.104 445.535,-177.811 317,-143 315.282,-142.535 313.545,-141.963 311.822,-141.318"/>
<polygon fill="midnightblue" stroke="midnightblue" points="312.859,-137.948 302.302,-137.061 310.002,-144.339 312.859,-137.948"/>
</g>
<!-- Node7 -->
<g id="node7" class="node"><title>Node7</title>
<polygon fill="none" stroke="#bfbfbf" points="326,-118 326,-137 406,-137 406,-118 326,-118"/>
<text text-anchor="middle" x="366" y="-125" font-family="Helvetica,sans-Serif" font-size="10.00">boost/asio.hpp</text>
</g>
<!-- Node1&#45;&gt;Node7 -->
<g id="edge6" class="edge"><title>Node1&#45;&gt;Node7</title>
<path fill="none" stroke="midnightblue" d="M979.213,-187.917C896.58,-187.249 631.194,-181.993 416,-143 411.248,-142.139 406.301,-141.005 401.447,-139.751"/>
<polygon fill="midnightblue" stroke="midnightblue" points="402.281,-136.35 391.709,-137.054 400.413,-143.096 402.281,-136.35"/>
</g>
<!-- Node8 -->
<g id="node8" class="node"><title>Node8</title>
<polygon fill="none" stroke="#bfbfbf" points="424.5,-118 424.5,-137 519.5,-137 519.5,-118 424.5,-118"/>
<text text-anchor="middle" x="472" y="-125" font-family="Helvetica,sans-Serif" font-size="10.00">condition_variable</text>
</g>
<!-- Node1&#45;&gt;Node8 -->
<g id="edge7" class="edge"><title>Node1&#45;&gt;Node8</title>
<path fill="none" stroke="midnightblue" d="M979.273,-186.97C907.528,-183.795 699.322,-172.532 529,-143 523.467,-142.041 517.68,-140.824 512.004,-139.505"/>
<polygon fill="midnightblue" stroke="midnightblue" points="512.531,-136.031 501.986,-137.054 510.868,-142.831 512.531,-136.031"/>
</g>
<!-- Node9 -->
<g id="node9" class="node"><title>Node9</title>
<polygon fill="none" stroke="#bfbfbf" points="538,-118 538,-137 584,-137 584,-118 538,-118"/>
<text text-anchor="middle" x="561" y="-125" font-family="Helvetica,sans-Serif" font-size="10.00">chrono</text>
</g>
<!-- Node1&#45;&gt;Node9 -->
<g id="edge8" class="edge"><title>Node1&#45;&gt;Node9</title>
<path fill="none" stroke="midnightblue" d="M979.4,-187.989C913.882,-187.369 735.273,-181.934 593,-143 590.849,-142.411 588.66,-141.695 586.487,-140.9"/>
<polygon fill="midnightblue" stroke="midnightblue" points="587.814,-137.661 577.237,-137.056 585.128,-144.125 587.814,-137.661"/>
</g>
<!-- Node10 -->
<g id="node10" class="node"><title>Node10</title>
<polygon fill="none" stroke="#bfbfbf" points="602,-118 602,-137 648,-137 648,-118 602,-118"/>
<text text-anchor="middle" x="625" y="-125" font-family="Helvetica,sans-Serif" font-size="10.00">atomic</text>
</g>
<!-- Node1&#45;&gt;Node10 -->
<g id="edge9" class="edge"><title>Node1&#45;&gt;Node10</title>
<path fill="none" stroke="midnightblue" d="M979.253,-187.159C920.999,-184.72 775.045,-175.58 658,-143 655.845,-142.4 653.648,-141.685 651.463,-140.898"/>
<polygon fill="midnightblue" stroke="midnightblue" points="652.711,-137.628 642.128,-137.13 650.091,-144.119 652.711,-137.628"/>
</g>
<!-- Node11 -->
<g id="node11" class="node"><title>Node11</title>
<polygon fill="none" stroke="#bfbfbf" points="666.5,-118 666.5,-137 773.5,-137 773.5,-118 666.5,-118"/>
<text text-anchor="middle" x="720" y="-125" font-family="Helvetica,sans-Serif" font-size="10.00">boost/filesystem.hpp</text>
</g>
<!-- Node1&#45;&gt;Node11 -->
<g id="edge10" class="edge"><title>Node1&#45;&gt;Node11</title>
<path fill="none" stroke="midnightblue" d="M979.316,-183.021C937.922,-174.945 853.914,-158.345 783,-143 777.584,-141.828 771.913,-140.569 766.288,-139.299"/>
<polygon fill="midnightblue" stroke="midnightblue" points="766.804,-135.827 756.276,-137.02 765.25,-142.653 766.804,-135.827"/>
</g>
<!-- Node12 -->
<g id="node12" class="node"><title>Node12</title>
<polygon fill="none" stroke="#bfbfbf" points="791.5,-118 791.5,-137 934.5,-137 934.5,-118 791.5,-118"/>
<text text-anchor="middle" x="863" y="-125" font-family="Helvetica,sans-Serif" font-size="10.00">boost/filesystem/fstream.hpp</text>
</g>
<!-- Node1&#45;&gt;Node12 -->
<g id="edge11" class="edge"><title>Node1&#45;&gt;Node12</title>
<path fill="none" stroke="midnightblue" d="M984.655,-179.475C960.613,-169.401 920.403,-152.553 892.837,-141.002"/>
<polygon fill="midnightblue" stroke="midnightblue" points="893.883,-137.646 883.307,-137.009 891.178,-144.102 893.883,-137.646"/>
</g>
<!-- Node13 -->
<g id="node13" class="node"><title>Node13</title>
<polygon fill="none" stroke="#bfbfbf" points="953,-112.5 953,-142.5 1057,-142.5 1057,-112.5 953,-112.5"/>
<text text-anchor="start" x="961" y="-130.5" font-family="Helvetica,sans-Serif" font-size="10.00">boost/archive/binary</text>
<text text-anchor="middle" x="1005" y="-119.5" font-family="Helvetica,sans-Serif" font-size="10.00">_oarchive.hpp</text>
</g>
<!-- Node1&#45;&gt;Node13 -->
<g id="edge12" class="edge"><title>Node1&#45;&gt;Node13</title>
<path fill="none" stroke="midnightblue" d="M1005,-179.475C1005,-172.471 1005,-162.192 1005,-152.696"/>
<polygon fill="midnightblue" stroke="midnightblue" points="1008.5,-152.523 1005,-142.523 1001.5,-152.523 1008.5,-152.523"/>
</g>
<!-- Node14 -->
<g id="node14" class="node"><title>Node14</title>
<polygon fill="none" stroke="#bfbfbf" points="1075,-112.5 1075,-142.5 1179,-142.5 1179,-112.5 1075,-112.5"/>
<text text-anchor="start" x="1083" y="-130.5" font-family="Helvetica,sans-Serif" font-size="10.00">boost/archive/binary</text>
<text text-anchor="middle" x="1127" y="-119.5" font-family="Helvetica,sans-Serif" font-size="10.00">_iarchive.hpp</text>
</g>
<!-- Node1&#45;&gt;Node14 -->
<g id="edge13" class="edge"><title>Node1&#45;&gt;Node14</title>
<path fill="none" stroke="midnightblue" d="M1022.48,-179.475C1039.77,-171.04 1066.81,-157.855 1089.05,-147.008"/>
<polygon fill="midnightblue" stroke="midnightblue" points="1090.79,-150.052 1098.25,-142.523 1087.72,-143.761 1090.79,-150.052"/>
</g>
<!-- Node15 -->
<g id="node15" class="node"><title>Node15</title>
<polygon fill="none" stroke="#bfbfbf" points="1197,-118 1197,-137 1241,-137 1241,-118 1197,-118"/>
<text text-anchor="middle" x="1219" y="-125" font-family="Helvetica,sans-Serif" font-size="10.00">mutex</text>
</g>
<!-- Node1&#45;&gt;Node15 -->
<g id="edge14" class="edge"><title>Node1&#45;&gt;Node15</title>
<path fill="none" stroke="midnightblue" d="M1030.62,-183.354C1066.44,-176.488 1133.24,-162.329 1188,-143 1189.62,-142.429 1191.27,-141.802 1192.91,-141.14"/>
<polygon fill="midnightblue" stroke="midnightblue" points="1194.43,-144.298 1202.2,-137.091 1191.63,-137.881 1194.43,-144.298"/>
</g>
<!-- Node16 -->
<g id="node16" class="node"><title>Node16</title>
<polygon fill="none" stroke="#bfbfbf" points="1576,-0.5 1576,-19.5 1620,-19.5 1620,-0.5 1576,-0.5"/>
<text text-anchor="middle" x="1598" y="-7.5" font-family="Helvetica,sans-Serif" font-size="10.00">vector</text>
</g>
<!-- Node1&#45;&gt;Node16 -->
<g id="edge15" class="edge"><title>Node1&#45;&gt;Node16</title>
<path fill="none" stroke="midnightblue" d="M1030.58,-187.444C1076.59,-185.564 1175.41,-177.475 1250,-143 1269.78,-133.855 1268.87,-122.442 1288,-112 1382.48,-60.4297 1507.65,-29.744 1565.78,-17.3717"/>
<polygon fill="midnightblue" stroke="midnightblue" points="1566.76,-20.7431 1575.84,-15.2737 1565.33,-13.8908 1566.76,-20.7431"/>
</g>
<!-- Node17 -->
<g id="node17" class="node"><title>Node17</title>
<polygon fill="none" stroke="#bfbfbf" points="1297,-118 1297,-137 1359,-137 1359,-118 1297,-118"/>
<text text-anchor="middle" x="1328" y="-125" font-family="Helvetica,sans-Serif" font-size="10.00">v_repLib.h</text>
</g>
<!-- Node1&#45;&gt;Node17 -->
<g id="edge16" class="edge"><title>Node1&#45;&gt;Node17</title>
<path fill="none" stroke="midnightblue" d="M1030.55,-185.176C1079.84,-179.441 1191.26,-165.072 1283,-143 1286.65,-142.123 1290.42,-141.097 1294.17,-140.003"/>
<polygon fill="midnightblue" stroke="midnightblue" points="1295.38,-143.294 1303.9,-137.006 1293.32,-136.604 1295.38,-143.294"/>
</g>
<!-- Node18 -->
<g id="node18" class="node"><title>Node18</title>
<polygon fill="none" stroke="#bfbfbf" points="1377,-118 1377,-137 1451,-137 1451,-118 1377,-118"/>
<text text-anchor="middle" x="1414" y="-125" font-family="Helvetica,sans-Serif" font-size="10.00">dataPacket.h</text>
</g>
<!-- Node1&#45;&gt;Node18 -->
<g id="edge17" class="edge"><title>Node1&#45;&gt;Node18</title>
<path fill="none" stroke="midnightblue" d="M1030.8,-186.421C1090.63,-182.407 1243.28,-170.151 1368,-143 1371.94,-142.143 1376.02,-141.096 1380.05,-139.96"/>
<polygon fill="midnightblue" stroke="midnightblue" points="1381.3,-143.24 1389.87,-137.013 1379.29,-136.536 1381.3,-143.24"/>
</g>
<!-- Node19 -->
<g id="node19" class="node"><title>Node19</title>
<g id="a_node19"><a xlink:href="sensor_8h.html" target="_top" xlink:title="sensor.h">
<polygon fill="none" stroke="black" points="1571,-56.5 1571,-75.5 1625,-75.5 1625,-56.5 1571,-56.5"/>
<text text-anchor="middle" x="1598" y="-63.5" font-family="Helvetica,sans-Serif" font-size="10.00">sensor.h</text>
</a>
</g>
</g>
<!-- Node1&#45;&gt;Node19 -->
<g id="edge18" class="edge"><title>Node1&#45;&gt;Node19</title>
<path fill="none" stroke="midnightblue" d="M1030.79,-187.396C1115.05,-185.123 1381.31,-175.48 1460,-143 1480.15,-134.684 1479.46,-123.459 1498,-112 1519.29,-98.8399 1545.09,-87.3274 1565.15,-79.2415"/>
<polygon fill="midnightblue" stroke="midnightblue" points="1566.48,-82.4815 1574.5,-75.5551 1563.91,-75.9702 1566.48,-82.4815"/>
</g>
<!-- Node20 -->
<g id="node20" class="node"><title>Node20</title>
<g id="a_node20"><a xlink:href="sonar_8h.html" target="_top" xlink:title="sonar.h">
<polygon fill="none" stroke="black" points="1710.5,-118 1710.5,-137 1759.5,-137 1759.5,-118 1710.5,-118"/>
<text text-anchor="middle" x="1735" y="-125" font-family="Helvetica,sans-Serif" font-size="10.00">sonar.h</text>
</a>
</g>
</g>
<!-- Node1&#45;&gt;Node20 -->
<g id="edge20" class="edge"><title>Node1&#45;&gt;Node20</title>
<path fill="none" stroke="midnightblue" d="M1030.58,-187.539C1140.22,-185.383 1570.79,-175.002 1702,-143 1704.36,-142.424 1706.76,-141.69 1709.14,-140.858"/>
<polygon fill="midnightblue" stroke="midnightblue" points="1710.64,-144.029 1718.61,-137.048 1708.03,-137.535 1710.64,-144.029"/>
</g>
<!-- Node22 -->
<g id="node22" class="node"><title>Node22</title>
<g id="a_node22"><a xlink:href="heightsensor_8h.html" target="_top" xlink:title="heightsensor.h">
<polygon fill="none" stroke="black" points="1507,-118 1507,-137 1587,-137 1587,-118 1507,-118"/>
<text text-anchor="middle" x="1547" y="-125" font-family="Helvetica,sans-Serif" font-size="10.00">heightsensor.h</text>
</a>
</g>
</g>
<!-- Node1&#45;&gt;Node22 -->
<g id="edge23" class="edge"><title>Node1&#45;&gt;Node22</title>
<path fill="none" stroke="midnightblue" d="M1030.61,-187.175C1103.47,-184.499 1317.96,-174.335 1493,-143 1498.18,-142.072 1503.59,-140.887 1508.9,-139.595"/>
<polygon fill="midnightblue" stroke="midnightblue" points="1510.09,-142.903 1518.9,-137.017 1508.34,-136.124 1510.09,-142.903"/>
</g>
<!-- Node23 -->
<g id="node23" class="node"><title>Node23</title>
<g id="a_node23"><a xlink:href="rotor_8h.html" target="_top" xlink:title="rotor.h">
<polygon fill="none" stroke="black" points="1766,-56.5 1766,-75.5 1810,-75.5 1810,-56.5 1766,-56.5"/>
<text text-anchor="middle" x="1788" y="-63.5" font-family="Helvetica,sans-Serif" font-size="10.00">rotor.h</text>
</a>
</g>
</g>
<!-- Node1&#45;&gt;Node23 -->
<g id="edge25" class="edge"><title>Node1&#45;&gt;Node23</title>
<path fill="none" stroke="midnightblue" d="M1030.79,-188.258C1157.59,-189.295 1711.09,-191.026 1769,-143 1785.57,-129.261 1788.91,-103.467 1789.05,-85.7709"/>
<polygon fill="midnightblue" stroke="midnightblue" points="1792.55,-85.6587 1788.8,-75.7496 1785.55,-85.8343 1792.55,-85.6587"/>
</g>
<!-- Node24 -->
<g id="node24" class="node"><title>Node24</title>
<g id="a_node24"><a xlink:href="positionsensor_8h.html" target="_top" xlink:title="positionsensor.h">
<polygon fill="none" stroke="black" points="1605,-118 1605,-137 1693,-137 1693,-118 1605,-118"/>
<text text-anchor="middle" x="1649" y="-125" font-family="Helvetica,sans-Serif" font-size="10.00">positionsensor.h</text>
</a>
</g>
</g>
<!-- Node1&#45;&gt;Node24 -->
<g id="edge27" class="edge"><title>Node1&#45;&gt;Node24</title>
<path fill="none" stroke="midnightblue" d="M1030.56,-187.792C1113.07,-186.749 1379.53,-180.498 1596,-143 1601.16,-142.107 1606.53,-140.931 1611.8,-139.635"/>
<polygon fill="midnightblue" stroke="midnightblue" points="1612.93,-142.957 1621.72,-137.035 1611.16,-136.186 1612.93,-142.957"/>
</g>
<!-- Node25 -->
<g id="node25" class="node"><title>Node25</title>
<polygon fill="none" stroke="#bfbfbf" points="1816.5,-118 1816.5,-137 1889.5,-137 1889.5,-118 1816.5,-118"/>
<text text-anchor="middle" x="1853" y="-125" font-family="Helvetica,sans-Serif" font-size="10.00">Eigen/Dense</text>
</g>
<!-- Node1&#45;&gt;Node25 -->
<g id="edge29" class="edge"><title>Node1&#45;&gt;Node25</title>
<path fill="none" stroke="midnightblue" d="M1030.86,-187.307C1150.21,-183.993 1648.42,-168.842 1802,-143 1806.9,-142.175 1812.01,-141.052 1817.01,-139.794"/>
<polygon fill="midnightblue" stroke="midnightblue" points="1818.31,-143.069 1827.05,-137.074 1816.48,-136.313 1818.31,-143.069"/>
</g>
<!-- Node19&#45;&gt;Node16 -->
<g id="edge19" class="edge"><title>Node19&#45;&gt;Node16</title>
<path fill="none" stroke="midnightblue" d="M1598,-56.083C1598,-49.0059 1598,-38.8611 1598,-29.9865"/>
<polygon fill="midnightblue" stroke="midnightblue" points="1601.5,-29.751 1598,-19.7511 1594.5,-29.7511 1601.5,-29.751"/>
</g>
<!-- Node20&#45;&gt;Node19 -->
<g id="edge21" class="edge"><title>Node20&#45;&gt;Node19</title>
<path fill="none" stroke="midnightblue" d="M1715.46,-117.894C1711.04,-115.951 1706.36,-113.901 1702,-112 1676.78,-101.003 1648.08,-88.5915 1627.22,-79.5929"/>
<polygon fill="midnightblue" stroke="midnightblue" points="1628.52,-76.3404 1617.95,-75.5935 1625.75,-82.768 1628.52,-76.3404"/>
</g>
<!-- Node21 -->
<g id="node21" class="node"><title>Node21</title>
<polygon fill="none" stroke="#bfbfbf" points="1706.5,-56.5 1706.5,-75.5 1747.5,-75.5 1747.5,-56.5 1706.5,-56.5"/>
<text text-anchor="middle" x="1727" y="-63.5" font-family="Helvetica,sans-Serif" font-size="10.00">string</text>
</g>
<!-- Node20&#45;&gt;Node21 -->
<g id="edge22" class="edge"><title>Node20&#45;&gt;Node21</title>
<path fill="none" stroke="midnightblue" d="M1733.85,-117.975C1732.73,-109.58 1730.96,-96.4806 1729.51,-85.6631"/>
<polygon fill="midnightblue" stroke="midnightblue" points="1732.95,-84.9535 1728.14,-75.5091 1726.01,-85.8863 1732.95,-84.9535"/>
</g>
<!-- Node22&#45;&gt;Node19 -->
<g id="edge24" class="edge"><title>Node22&#45;&gt;Node19</title>
<path fill="none" stroke="midnightblue" d="M1554.31,-117.975C1562.03,-108.962 1574.41,-94.5246 1584.02,-83.3118"/>
<polygon fill="midnightblue" stroke="midnightblue" points="1586.86,-85.3795 1590.71,-75.5091 1581.54,-80.8239 1586.86,-85.3795"/>
</g>
<!-- Node23&#45;&gt;Node16 -->
<g id="edge26" class="edge"><title>Node23&#45;&gt;Node16</title>
<path fill="none" stroke="midnightblue" d="M1765.99,-58.5901C1762.97,-57.7165 1759.91,-56.8339 1757,-56 1712.95,-43.3736 1661.98,-28.9865 1629.87,-19.9503"/>
<polygon fill="midnightblue" stroke="midnightblue" points="1630.71,-16.5517 1620.13,-17.2136 1628.81,-23.2903 1630.71,-16.5517"/>
</g>
<!-- Node24&#45;&gt;Node19 -->
<g id="edge28" class="edge"><title>Node24&#45;&gt;Node19</title>
<path fill="none" stroke="midnightblue" d="M1641.69,-117.975C1633.97,-108.962 1621.59,-94.5246 1611.98,-83.3118"/>
<polygon fill="midnightblue" stroke="midnightblue" points="1614.46,-80.8239 1605.29,-75.5091 1609.14,-85.3795 1614.46,-80.8239"/>
</g>
</g>
</svg>
        <g id="navigator" transform="translate(0 0)" fill="#404254">
                <rect fill="#f2f5e9" fill-opacity="0.5" stroke="#606060" stroke-width=".5" x="0" y="0" width="60" height="60"/>
                <use id="zoomplus" xlink:href="#zoomPlus" x="17" y="9" onmousedown="handleZoom(evt,'in')"/>
                <use id="zoomminus" xlink:href="#zoomMin" x="42" y="9" onmousedown="handleZoom(evt,'out')"/>
                <use id="reset" xlink:href="#resetDef" x="30" y="36" onmousedown="handleReset()"/>
                <g id="arrowUp" xlink:href="#dirArrow" transform="translate(30 24)" onmousedown="handlePan(0,-1)">
                  <use xlink:href="#rim" fill="#404040">
                        <set attributeName="fill" to="#808080" begin="arrowUp.mouseover" end="arrowUp.mouseout"/>
                  </use>
                  <path fill="none" stroke="white" stroke-width="1.5" d="M0,-3.0v7 M-2.5,-0.5L0,-3.0L2.5,-0.5"/>
                </g>
                <g id="arrowRight" xlink:href="#dirArrow" transform="rotate(90) translate(36 -43)" onmousedown="handlePan(1,0)">
                  <use xlink:href="#rim" fill="#404040">
                        <set attributeName="fill" to="#808080" begin="arrowRight.mouseover" end="arrowRight.mouseout"/>
                  </use>
                  <path fill="none" stroke="white" stroke-width="1.5" d="M0,-3.0v7 M-2.5,-0.5L0,-3.0L2.5,-0.5"/>
                </g>
                <g id="arrowDown" xlink:href="#dirArrow" transform="rotate(180) translate(-30 -48)" onmousedown="handlePan(0,1)">
                  <use xlink:href="#rim" fill="#404040">
                        <set attributeName="fill" to="#808080" begin="arrowDown.mouseover" end="arrowDown.mouseout"/>
                  </use>
                  <path fill="none" stroke="white" stroke-width="1.5" d="M0,-3.0v7 M-2.5,-0.5L0,-3.0L2.5,-0.5"/>
                </g>
                <g id="arrowLeft" xlink:href="#dirArrow" transform="rotate(270) translate(-36 17)" onmousedown="handlePan(-1,0)">
                  <use xlink:href="#rim" fill="#404040">
                        <set attributeName="fill" to="#808080" begin="arrowLeft.mouseover" end="arrowLeft.mouseout"/>
                  </use>
                  <path fill="none" stroke="white" stroke-width="1.5" d="M0,-3.0v7 M-2.5,-0.5L0,-3.0L2.5,-0.5"/>
                </g>
        </g>
        <svg viewBox="0 0 15 15" width="100%" height="30px" preserveAspectRatio="xMaxYMin meet">
         <g id="arrow_out" transform="scale(0.3 0.3)">
          <a xlink:href="finken_8h__incl_org.svg" target="_base">
           <rect id="button" ry="5" rx="5" y="6" x="6" height="38" width="38"
                fill="#f2f5e9" fill-opacity="0.5" stroke="#606060" stroke-width="1.0"/>
           <path id="arrow"
             d="M 11.500037,31.436501 C 11.940474,20.09759 22.043105,11.32322 32.158766,21.979434 L 37.068811,17.246167 C 37.068811,17.246167 37.088388,32 37.088388,32 L 22.160133,31.978069 C 22.160133,31.978069 26.997745,27.140456 26.997745,27.140456 C 18.528582,18.264221 13.291696,25.230495 11.500037,31.436501 z"
             style="fill:#404040;"/>
          </a>
         </g>
        </svg>
</svg>
