<?xml version="1.0" encoding="UTF-8" standalone="no"?>
<!DOCTYPE svg PUBLIC "-//W3C//DTD SVG 1.1//EN"
 "http://www.w3.org/Graphics/SVG/1.1/DTD/svg11.dtd">
<!-- Generated by graphviz version 2.38.0 (20140413.2041)
 -->
<!-- Title: finkenplugin.cpp Pages: 1 -->
<!--zoomable 274 -->
<svg id="main" version="1.1" xmlns="http://www.w3.org/2000/svg" xmlns:xlink="http://www.w3.org/1999/xlink" xml:space="preserve" onload="init(evt)">
<style type="text/css"><![CDATA[
.edge:hover path { stroke: red; }
.edge:hover polygon { stroke: red; fill: red; }
]]></style>
<script type="text/javascript"><![CDATA[
var edges = document.getElementsByTagName('g');
if (edges && edges.length) {
  for (var i=0;i<edges.length;i++) {
    if (edges[i].id.substr(0,4)=='edge') {
      edges[i].setAttribute('class','edge');
    }
  }
}
]]></script>
        <defs>
                <circle id="rim" cx="0" cy="0" r="7"/>
                <circle id="rim2" cx="0" cy="0" r="3.5"/>
                <g id="zoomPlus">
                        <use xlink:href="#rim" fill="#404040">
                                <set attributeName="fill" to="#808080" begin="zoomplus.mouseover" end="zoomplus.mouseout"/>
                        </use>
                        <path d="M-4,0h8M0,-4v8" fill="none" stroke="white" stroke-width="1.5" pointer-events="none"/>
                </g>
                <g id="zoomMin">
                        <use xlink:href="#rim" fill="#404040">
                                <set attributeName="fill" to="#808080" begin="zoomminus.mouseover" end="zoomminus.mouseout"/>
                        </use>
                        <path d="M-4,0h8" fill="none" stroke="white" stroke-width="1.5" pointer-events="none"/>
                </g>
                <g id="dirArrow">
                        <path fill="none" stroke="white" stroke-width="1.5" d="M0,-3.0v7 M-2.5,-0.5L0,-3.0L2.5,-0.5"/>
                </g>
               <g id="resetDef">
                       <use xlink:href="#rim2" fill="#404040">
                               <set attributeName="fill" to="#808080" begin="reset.mouseover" end="reset.mouseout"/>
                       </use>
               </g>
        </defs>

<script type="text/javascript">
var viewWidth = 2094;
var viewHeight = 274;
var sectionId = 'dynsection-0';
</script>
<script xlink:href="svgpan.js"/>
<svg id="graph" class="graph">
<g id="viewport">
<title>finkenplugin.cpp</title>
<!-- Node1 -->
<g id="node1" class="node"><title>Node1</title>
<polygon fill="#bfbfbf" stroke="black" points="1027,-246.5 1027,-265.5 1114,-265.5 1114,-246.5 1027,-246.5"/>
<text text-anchor="middle" x="1070.5" y="-253.5" font-family="Helvetica,sans-Serif" font-size="10.00">finkenplugin.cpp</text>
</g>
<!-- Node2 -->
<g id="node2" class="node"><title>Node2</title>
<g id="a_node2"><a xlink:href="vrepplugin_8h.html" target="_top" xlink:title="vrepplugin.h">
<polygon fill="none" stroke="black" points="0,-118 0,-137 69,-137 69,-118 0,-118"/>
<text text-anchor="middle" x="34.5" y="-125" font-family="Helvetica,sans-Serif" font-size="10.00">vrepplugin.h</text>
</a>
</g>
</g>
<!-- Node1&#45;&gt;Node2 -->
<g id="edge1" class="edge"><title>Node1&#45;&gt;Node2</title>
<path fill="none" stroke="midnightblue" d="M1026.94,-254.666C852.213,-253.093 207.455,-244.949 123.5,-210 90.6244,-196.315 62.171,-164.875 46.7597,-145.29"/>
<polygon fill="midnightblue" stroke="midnightblue" points="49.4687,-143.07 40.6276,-137.232 43.8981,-147.309 49.4687,-143.07"/>
</g>
<!-- Node5 -->
<g id="node5" class="node"><title>Node5</title>
<g id="a_node5"><a xlink:href="log_8h.html" target="_top" xlink:title="log.h">
<polygon fill="none" stroke="black" points="132.5,-185 132.5,-204 170.5,-204 170.5,-185 132.5,-185"/>
<text text-anchor="middle" x="151.5" y="-192" font-family="Helvetica,sans-Serif" font-size="10.00">log.h</text>
</a>
</g>
</g>
<!-- Node1&#45;&gt;Node5 -->
<g id="edge4" class="edge"><title>Node1&#45;&gt;Node5</title>
<path fill="none" stroke="midnightblue" d="M1026.9,-253.605C906.073,-249.514 556.747,-236.152 267.5,-210 237.877,-207.322 204.154,-202.958 180.734,-199.716"/>
<polygon fill="midnightblue" stroke="midnightblue" points="181.139,-196.239 170.75,-198.316 180.167,-203.171 181.139,-196.239"/>
</g>
<!-- Node7 -->
<g id="node7" class="node"><title>Node7</title>
<g id="a_node7"><a xlink:href="finken_8h.html" target="_top" xlink:title="header for the finken implementation ">
<polygon fill="none" stroke="black" points="972,-185 972,-204 1023,-204 1023,-185 972,-185"/>
<text text-anchor="middle" x="997.5" y="-192" font-family="Helvetica,sans-Serif" font-size="10.00">finken.h</text>
</a>
</g>
</g>
<!-- Node1&#45;&gt;Node7 -->
<g id="edge7" class="edge"><title>Node1&#45;&gt;Node7</title>
<path fill="none" stroke="midnightblue" d="M1060.04,-246.475C1048.55,-237.108 1029.87,-221.884 1015.91,-210.508"/>
<polygon fill="midnightblue" stroke="midnightblue" points="1017.9,-207.614 1007.94,-204.009 1013.48,-213.04 1017.9,-207.614"/>
</g>
<!-- Node8 -->
<g id="node8" class="node"><title>Node8</title>
<polygon fill="none" stroke="#bfbfbf" points="301.5,-118 301.5,-137 353.5,-137 353.5,-118 301.5,-118"/>
<text text-anchor="middle" x="327.5" y="-125" font-family="Helvetica,sans-Serif" font-size="10.00">memory</text>
</g>
<!-- Node1&#45;&gt;Node8 -->
<g id="edge44" class="edge"><title>Node1&#45;&gt;Node8</title>
<path fill="none" stroke="midnightblue" d="M1026.84,-253.885C909.134,-250.524 587.291,-238.885 485.5,-210 432.986,-195.098 377.621,-161.888 348.408,-142.778"/>
<polygon fill="midnightblue" stroke="midnightblue" points="350.144,-139.73 339.879,-137.111 346.27,-145.56 350.144,-139.73"/>
</g>
<!-- Node9 -->
<g id="node9" class="node"><title>Node9</title>
<polygon fill="none" stroke="#bfbfbf" points="372,-118 372,-137 417,-137 417,-118 372,-118"/>
<text text-anchor="middle" x="394.5" y="-125" font-family="Helvetica,sans-Serif" font-size="10.00">cstdlib</text>
</g>
<!-- Node1&#45;&gt;Node9 -->
<g id="edge42" class="edge"><title>Node1&#45;&gt;Node9</title>
<path fill="none" stroke="midnightblue" d="M1026.97,-253.062C921.318,-248.046 653.707,-233.371 567.5,-210 510.337,-194.503 448.834,-161.028 416.798,-142.157"/>
<polygon fill="midnightblue" stroke="midnightblue" points="418.585,-139.147 408.205,-137.026 414.997,-145.158 418.585,-139.147"/>
</g>
<!-- Node10 -->
<g id="node10" class="node"><title>Node10</title>
<polygon fill="none" stroke="#bfbfbf" points="435.5,-118 435.5,-137 489.5,-137 489.5,-118 435.5,-118"/>
<text text-anchor="middle" x="462.5" y="-125" font-family="Helvetica,sans-Serif" font-size="10.00">iostream</text>
</g>
<!-- Node1&#45;&gt;Node10 -->
<g id="edge39" class="edge"><title>Node1&#45;&gt;Node10</title>
<path fill="none" stroke="midnightblue" d="M1026.88,-254.256C951.032,-252.074 790.404,-243.517 659.5,-210 595.316,-193.566 524.573,-160.267 487.824,-141.723"/>
<polygon fill="midnightblue" stroke="midnightblue" points="489.314,-138.554 478.816,-137.128 486.133,-144.789 489.314,-138.554"/>
</g>
<!-- Node11 -->
<g id="node11" class="node"><title>Node11</title>
<polygon fill="none" stroke="#bfbfbf" points="507.5,-118 507.5,-137 551.5,-137 551.5,-118 507.5,-118"/>
<text text-anchor="middle" x="529.5" y="-125" font-family="Helvetica,sans-Serif" font-size="10.00">thread</text>
</g>
<!-- Node1&#45;&gt;Node11 -->
<g id="edge43" class="edge"><title>Node1&#45;&gt;Node11</title>
<path fill="none" stroke="midnightblue" d="M1026.88,-250.04C970.32,-243.181 868.825,-229.412 783.5,-210 682.591,-187.043 657.182,-179.91 560.5,-143 559.078,-142.457 557.629,-141.877 556.175,-141.274"/>
<polygon fill="midnightblue" stroke="midnightblue" points="557.249,-137.922 546.687,-137.082 554.42,-144.325 557.249,-137.922"/>
</g>
<!-- Node12 -->
<g id="node12" class="node"><title>Node12</title>
<polygon fill="none" stroke="#bfbfbf" points="569.5,-118 569.5,-137 609.5,-137 609.5,-118 569.5,-118"/>
<text text-anchor="middle" x="589.5" y="-125" font-family="Helvetica,sans-Serif" font-size="10.00">utility</text>
</g>
<!-- Node1&#45;&gt;Node12 -->
<g id="edge45" class="edge"><title>Node1&#45;&gt;Node12</title>
<path fill="none" stroke="midnightblue" d="M1037.82,-246.405C949.115,-223.076 704.803,-158.824 619.424,-136.37"/>
<polygon fill="midnightblue" stroke="midnightblue" points="620.154,-132.943 609.593,-133.784 618.374,-139.713 620.154,-132.943"/>
</g>
<!-- Node13 -->
<g id="node13" class="node"><title>Node13</title>
<polygon fill="none" stroke="#bfbfbf" points="1656.5,-118 1656.5,-137 1736.5,-137 1736.5,-118 1656.5,-118"/>
<text text-anchor="middle" x="1696.5" y="-125" font-family="Helvetica,sans-Serif" font-size="10.00">boost/asio.hpp</text>
</g>
<!-- Node1&#45;&gt;Node13 -->
<g id="edge46" class="edge"><title>Node1&#45;&gt;Node13</title>
<path fill="none" stroke="midnightblue" d="M1067.91,-246.486C1063.7,-230.713 1057.52,-196.927 1075.5,-179 1120.59,-134.035 1584.79,-154.105 1647.5,-143 1652.22,-142.164 1657.13,-141.035 1661.94,-139.774"/>
<polygon fill="midnightblue" stroke="midnightblue" points="1662.91,-143.138 1671.58,-137.051 1661.01,-136.401 1662.91,-143.138"/>
</g>
<!-- Node14 -->
<g id="node14" class="node"><title>Node14</title>
<polygon fill="none" stroke="#bfbfbf" points="1755,-118 1755,-137 1850,-137 1850,-118 1755,-118"/>
<text text-anchor="middle" x="1802.5" y="-125" font-family="Helvetica,sans-Serif" font-size="10.00">condition_variable</text>
</g>
<!-- Node1&#45;&gt;Node14 -->
<g id="edge51" class="edge"><title>Node1&#45;&gt;Node14</title>
<path fill="none" stroke="midnightblue" d="M1072.58,-246.007C1076.95,-229.436 1088.78,-194.373 1113.5,-179 1173.23,-141.853 1675.99,-153.72 1745.5,-143 1751.38,-142.093 1757.54,-140.847 1763.55,-139.463"/>
<polygon fill="midnightblue" stroke="midnightblue" points="1764.55,-142.821 1773.43,-137.041 1762.89,-136.022 1764.55,-142.821"/>
</g>
<!-- Node15 -->
<g id="node15" class="node"><title>Node15</title>
<polygon fill="none" stroke="#bfbfbf" points="1868.5,-118 1868.5,-137 1914.5,-137 1914.5,-118 1868.5,-118"/>
<text text-anchor="middle" x="1891.5" y="-125" font-family="Helvetica,sans-Serif" font-size="10.00">chrono</text>
</g>
<!-- Node1&#45;&gt;Node15 -->
<g id="edge52" class="edge"><title>Node1&#45;&gt;Node15</title>
<path fill="none" stroke="midnightblue" d="M1079.16,-246.223C1098.18,-227.038 1142.63,-182.774 1151.5,-179 1296.47,-117.336 1706.41,-180.16 1859.5,-143 1861.72,-142.462 1863.97,-141.773 1866.19,-140.987"/>
<polygon fill="midnightblue" stroke="midnightblue" points="1867.73,-144.141 1875.64,-137.098 1865.06,-137.668 1867.73,-144.141"/>
</g>
<!-- Node22 -->
<g id="node22" class="node"><title>Node22</title>
<polygon fill="none" stroke="#bfbfbf" points="1932.5,-118 1932.5,-137 1994.5,-137 1994.5,-118 1932.5,-118"/>
<text text-anchor="middle" x="1963.5" y="-125" font-family="Helvetica,sans-Serif" font-size="10.00">v_repLib.h</text>
</g>
<!-- Node1&#45;&gt;Node22 -->
<g id="edge37" class="edge"><title>Node1&#45;&gt;Node22</title>
<path fill="none" stroke="midnightblue" d="M1087.25,-246.352C1103.53,-237.742 1128.76,-223.845 1149.5,-210 1168.21,-197.514 1168.4,-186.8 1189.5,-179 1342.67,-122.365 1763.4,-175.186 1923.5,-143 1926.94,-142.309 1930.47,-141.377 1933.95,-140.316"/>
<polygon fill="midnightblue" stroke="midnightblue" points="1935.14,-143.607 1943.49,-137.079 1932.89,-136.979 1935.14,-143.607"/>
</g>
<!-- Node28 -->
<g id="node28" class="node"><title>Node28</title>
<g id="a_node28"><a xlink:href="positionsensor_8h.html" target="_top" xlink:title="positionsensor.h">
<polygon fill="none" stroke="black" points="195.5,-118 195.5,-137 283.5,-137 283.5,-118 195.5,-118"/>
<text text-anchor="middle" x="239.5" y="-125" font-family="Helvetica,sans-Serif" font-size="10.00">positionsensor.h</text>
</a>
</g>
</g>
<!-- Node1&#45;&gt;Node28 -->
<g id="edge40" class="edge"><title>Node1&#45;&gt;Node28</title>
<path fill="none" stroke="midnightblue" d="M1026.9,-254.156C899.185,-251.348 527.566,-240.693 410.5,-210 353.994,-195.185 293.578,-161.693 261.881,-142.574"/>
<polygon fill="midnightblue" stroke="midnightblue" points="263.358,-139.374 253.002,-137.138 259.703,-145.344 263.358,-139.374"/>
</g>
<!-- Node29 -->
<g id="node29" class="node"><title>Node29</title>
<polygon fill="none" stroke="#bfbfbf" points="2013,-118 2013,-137 2086,-137 2086,-118 2013,-118"/>
<text text-anchor="middle" x="2049.5" y="-125" font-family="Helvetica,sans-Serif" font-size="10.00">Eigen/Dense</text>
</g>
<!-- Node1&#45;&gt;Node29 -->
<g id="edge53" class="edge"><title>Node1&#45;&gt;Node29</title>
<path fill="none" stroke="midnightblue" d="M1097.96,-246.483C1121.48,-238.633 1155.82,-225.82 1183.5,-210 1203.03,-198.841 1202.39,-186.77 1223.5,-179 1386.34,-119.059 1832.65,-173.337 2003.5,-143 2007.77,-142.242 2012.19,-141.199 2016.53,-140.015"/>
<polygon fill="midnightblue" stroke="midnightblue" points="2017.81,-143.285 2026.39,-137.07 2015.81,-136.577 2017.81,-143.285"/>
</g>
<!-- Node30 -->
<g id="node30" class="node"><title>Node30</title>
<polygon fill="none" stroke="#bfbfbf" points="1232,-185 1232,-204 1283,-204 1283,-185 1232,-185"/>
<text text-anchor="middle" x="1257.5" y="-192" font-family="Helvetica,sans-Serif" font-size="10.00">unistd.h</text>
</g>
<!-- Node1&#45;&gt;Node30 -->
<g id="edge38" class="edge"><title>Node1&#45;&gt;Node30</title>
<path fill="none" stroke="midnightblue" d="M1099.92,-246.47C1129.7,-237.726 1177,-223.531 1217.5,-210 1219.89,-209.201 1222.35,-208.358 1224.83,-207.496"/>
<polygon fill="midnightblue" stroke="midnightblue" points="1226.05,-210.777 1234.3,-204.134 1223.71,-204.18 1226.05,-210.777"/>
</g>
<!-- Node31 -->
<g id="node31" class="node"><title>Node31</title>
<polygon fill="none" stroke="#bfbfbf" points="1301.5,-185 1301.5,-204 1347.5,-204 1347.5,-185 1301.5,-185"/>
<text text-anchor="middle" x="1324.5" y="-192" font-family="Helvetica,sans-Serif" font-size="10.00">cstring</text>
</g>
<!-- Node1&#45;&gt;Node31 -->
<g id="edge41" class="edge"><title>Node1&#45;&gt;Node31</title>
<path fill="none" stroke="midnightblue" d="M1114.22,-249.119C1159.53,-242.335 1232.07,-229.539 1292.5,-210 1294.37,-209.395 1296.28,-208.712 1298.18,-207.981"/>
<polygon fill="midnightblue" stroke="midnightblue" points="1299.65,-211.161 1307.51,-204.055 1296.94,-204.709 1299.65,-211.161"/>
</g>
<!-- Node32 -->
<g id="node32" class="node"><title>Node32</title>
<polygon fill="none" stroke="#bfbfbf" points="1365.5,-185 1365.5,-204 1445.5,-204 1445.5,-185 1365.5,-185"/>
<text text-anchor="middle" x="1405.5" y="-192" font-family="Helvetica,sans-Serif" font-size="10.00">boost/bind.hpp</text>
</g>
<!-- Node1&#45;&gt;Node32 -->
<g id="edge47" class="edge"><title>Node1&#45;&gt;Node32</title>
<path fill="none" stroke="midnightblue" d="M1114.45,-249.911C1170.89,-242.959 1271.68,-229.136 1356.5,-210 1360.64,-209.067 1364.94,-207.976 1369.2,-206.82"/>
<polygon fill="midnightblue" stroke="midnightblue" points="1370.3,-210.145 1378.97,-204.045 1368.39,-203.411 1370.3,-210.145"/>
</g>
<!-- Node33 -->
<g id="node33" class="node"><title>Node33</title>
<polygon fill="none" stroke="#bfbfbf" points="1464,-185 1464,-204 1553,-204 1553,-185 1464,-185"/>
<text text-anchor="middle" x="1508.5" y="-192" font-family="Helvetica,sans-Serif" font-size="10.00">boost/thread.hpp</text>
</g>
<!-- Node1&#45;&gt;Node33 -->
<g id="edge48" class="edge"><title>Node1&#45;&gt;Node33</title>
<path fill="none" stroke="midnightblue" d="M1114.01,-251.977C1185.53,-246.545 1332.22,-233.453 1454.5,-210 1459.55,-209.031 1464.83,-207.841 1470.02,-206.564"/>
<polygon fill="midnightblue" stroke="midnightblue" points="1471.01,-209.924 1479.81,-204.035 1469.26,-203.146 1471.01,-209.924"/>
</g>
<!-- Node34 -->
<g id="node34" class="node"><title>Node34</title>
<polygon fill="none" stroke="#bfbfbf" points="1571,-179.5 1571,-209.5 1666,-209.5 1666,-179.5 1571,-179.5"/>
<text text-anchor="start" x="1579" y="-197.5" font-family="Helvetica,sans-Serif" font-size="10.00">boost/archive/text</text>
<text text-anchor="middle" x="1618.5" y="-186.5" font-family="Helvetica,sans-Serif" font-size="10.00">_oarchive.hpp</text>
</g>
<!-- Node1&#45;&gt;Node34 -->
<g id="edge49" class="edge"><title>Node1&#45;&gt;Node34</title>
<path fill="none" stroke="midnightblue" d="M1114.25,-253.38C1198.9,-249.731 1391.06,-238.948 1561.08,-210.073"/>
<polygon fill="midnightblue" stroke="midnightblue" points="1561.7,-213.518 1570.96,-208.37 1560.51,-206.62 1561.7,-213.518"/>
</g>
<!-- Node35 -->
<g id="node35" class="node"><title>Node35</title>
<polygon fill="none" stroke="#bfbfbf" points="1684,-179.5 1684,-209.5 1779,-209.5 1779,-179.5 1684,-179.5"/>
<text text-anchor="start" x="1692" y="-197.5" font-family="Helvetica,sans-Serif" font-size="10.00">boost/archive/text</text>
<text text-anchor="middle" x="1731.5" y="-186.5" font-family="Helvetica,sans-Serif" font-size="10.00">_iarchive.hpp</text>
</g>
<!-- Node1&#45;&gt;Node35 -->
<g id="edge50" class="edge"><title>Node1&#45;&gt;Node35</title>
<path fill="none" stroke="midnightblue" d="M1114.1,-254.428C1212.54,-252.564 1459.52,-244.681 1674.1,-210.042"/>
<polygon fill="midnightblue" stroke="midnightblue" points="1674.66,-213.496 1683.97,-208.426 1673.53,-206.588 1674.66,-213.496"/>
</g>
<!-- Node3 -->
<g id="node3" class="node"><title>Node3</title>
<polygon fill="none" stroke="#bfbfbf" points="77,-56.5 77,-75.5 118,-75.5 118,-56.5 77,-56.5"/>
<text text-anchor="middle" x="97.5" y="-63.5" font-family="Helvetica,sans-Serif" font-size="10.00">string</text>
</g>
<!-- Node2&#45;&gt;Node3 -->
<g id="edge2" class="edge"><title>Node2&#45;&gt;Node3</title>
<path fill="none" stroke="midnightblue" d="M43.5264,-117.975C53.2571,-108.785 68.958,-93.9563 80.923,-82.656"/>
<polygon fill="midnightblue" stroke="midnightblue" points="83.6234,-84.9199 88.4904,-75.5091 78.817,-79.8308 83.6234,-84.9199"/>
</g>
<!-- Node4 -->
<g id="node4" class="node"><title>Node4</title>
<polygon fill="none" stroke="#bfbfbf" points="1237.5,-0.5 1237.5,-19.5 1281.5,-19.5 1281.5,-0.5 1237.5,-0.5"/>
<text text-anchor="middle" x="1259.5" y="-7.5" font-family="Helvetica,sans-Serif" font-size="10.00">vector</text>
</g>
<!-- Node2&#45;&gt;Node4 -->
<g id="edge3" class="edge"><title>Node2&#45;&gt;Node4</title>
<path fill="none" stroke="midnightblue" d="M35.6817,-117.687C38.2869,-102.149 46.0982,-70.1866 67.5,-56 117.162,-23.0807 1041.08,-12.98 1227.05,-11.2766"/>
<polygon fill="midnightblue" stroke="midnightblue" points="1227.3,-14.7746 1237.27,-11.1847 1227.24,-7.77484 1227.3,-14.7746"/>
</g>
<!-- Node5&#45;&gt;Node3 -->
<g id="edge6" class="edge"><title>Node5&#45;&gt;Node3</title>
<path fill="none" stroke="midnightblue" d="M143.986,-184.795C136.054,-175.178 123.721,-158.934 116.5,-143 108.097,-124.459 103.025,-101.62 100.262,-85.8459"/>
<polygon fill="midnightblue" stroke="midnightblue" points="103.685,-85.0893 98.6426,-75.7714 96.7737,-86.2 103.685,-85.0893"/>
</g>
<!-- Node6 -->
<g id="node6" class="node"><title>Node6</title>
<polygon fill="none" stroke="#bfbfbf" points="125.5,-118 125.5,-137 177.5,-137 177.5,-118 125.5,-118"/>
<text text-anchor="middle" x="151.5" y="-125" font-family="Helvetica,sans-Serif" font-size="10.00">ostream</text>
</g>
<!-- Node5&#45;&gt;Node6 -->
<g id="edge5" class="edge"><title>Node5&#45;&gt;Node6</title>
<path fill="none" stroke="midnightblue" d="M151.5,-184.734C151.5,-175.183 151.5,-159.618 151.5,-147.283"/>
<polygon fill="midnightblue" stroke="midnightblue" points="155,-147.127 151.5,-137.127 148,-147.127 155,-147.127"/>
</g>
<!-- Node7&#45;&gt;Node4 -->
<g id="edge22" class="edge"><title>Node7&#45;&gt;Node4</title>
<path fill="none" stroke="midnightblue" d="M1023.09,-186.758C1034.47,-183.981 1048.08,-180.96 1060.5,-179 1106,-171.817 1442.37,-176.956 1473.5,-143 1533.1,-77.9784 1365.29,-33.3641 1291.93,-17.4506"/>
<polygon fill="midnightblue" stroke="midnightblue" points="1292.34,-13.9596 1281.83,-15.312 1290.89,-20.8078 1292.34,-13.9596"/>
</g>
<!-- Node7&#45;&gt;Node8 -->
<g id="edge8" class="edge"><title>Node7&#45;&gt;Node8</title>
<path fill="none" stroke="midnightblue" d="M971.8,-192.529C868.225,-188.45 481.314,-171.58 362.5,-143 359.982,-142.394 357.411,-141.632 354.862,-140.775"/>
<polygon fill="midnightblue" stroke="midnightblue" points="355.895,-137.424 345.304,-137.137 353.405,-143.966 355.895,-137.424"/>
</g>
<!-- Node7&#45;&gt;Node9 -->
<g id="edge9" class="edge"><title>Node7&#45;&gt;Node9</title>
<path fill="none" stroke="midnightblue" d="M971.77,-192.375C874.84,-187.959 531.899,-170.681 426.5,-143 424.343,-142.434 422.15,-141.733 419.974,-140.949"/>
<polygon fill="midnightblue" stroke="midnightblue" points="421.297,-137.708 410.718,-137.125 418.624,-144.178 421.297,-137.708"/>
</g>
<!-- Node7&#45;&gt;Node10 -->
<g id="edge10" class="edge"><title>Node7&#45;&gt;Node10</title>
<path fill="none" stroke="midnightblue" d="M971.887,-193.434C897.556,-192.708 675.822,-186.747 498.5,-143 495.832,-142.342 493.101,-141.525 490.394,-140.618"/>
<polygon fill="midnightblue" stroke="midnightblue" points="491.446,-137.275 480.853,-137.051 488.995,-143.831 491.446,-137.275"/>
</g>
<!-- Node7&#45;&gt;Node11 -->
<g id="edge11" class="edge"><title>Node7&#45;&gt;Node11</title>
<path fill="none" stroke="midnightblue" d="M971.821,-193.391C903.519,-192.495 712.229,-186.02 560.5,-143 558.571,-142.453 556.611,-141.798 554.663,-141.074"/>
<polygon fill="midnightblue" stroke="midnightblue" points="555.782,-137.746 545.21,-137.044 553.037,-144.185 555.782,-137.746"/>
</g>
<!-- Node7&#45;&gt;Node12 -->
<g id="edge12" class="edge"><title>Node7&#45;&gt;Node12</title>
<path fill="none" stroke="midnightblue" d="M971.63,-192.397C910.192,-189.263 751.102,-178.132 623.5,-143 621.203,-142.368 618.857,-141.614 616.525,-140.787"/>
<polygon fill="midnightblue" stroke="midnightblue" points="617.762,-137.512 607.175,-137.101 615.195,-144.025 617.762,-137.512"/>
</g>
<!-- Node7&#45;&gt;Node13 -->
<g id="edge13" class="edge"><title>Node7&#45;&gt;Node13</title>
<path fill="none" stroke="midnightblue" d="M1017.52,-184.962C1023.81,-182.631 1030.84,-180.372 1037.5,-179 1303.49,-124.151 1379.99,-189.838 1647.5,-143 1652.22,-142.173 1657.13,-141.05 1661.94,-139.791"/>
<polygon fill="midnightblue" stroke="midnightblue" points="1662.91,-143.155 1671.58,-137.071 1661.01,-136.418 1662.91,-143.155"/>
</g>
<!-- Node7&#45;&gt;Node14 -->
<g id="edge14" class="edge"><title>Node7&#45;&gt;Node14</title>
<path fill="none" stroke="midnightblue" d="M1023.02,-187.889C1038.19,-184.77 1057.86,-181.105 1075.5,-179 1371.61,-143.674 1450.7,-187.974 1745.5,-143 1751.38,-142.102 1757.54,-140.861 1763.55,-139.48"/>
<polygon fill="midnightblue" stroke="midnightblue" points="1764.55,-142.838 1773.43,-137.06 1762.89,-136.039 1764.55,-142.838"/>
</g>
<!-- Node7&#45;&gt;Node15 -->
<g id="edge15" class="edge"><title>Node7&#45;&gt;Node15</title>
<path fill="none" stroke="midnightblue" d="M1023.24,-189.711C1046.71,-186.394 1082.36,-181.694 1113.5,-179 1278.85,-164.697 1698.16,-181.941 1859.5,-143 1861.72,-142.465 1863.97,-141.777 1866.2,-140.993"/>
<polygon fill="midnightblue" stroke="midnightblue" points="1867.73,-144.148 1875.64,-137.107 1865.06,-137.674 1867.73,-144.148"/>
</g>
<!-- Node16 -->
<g id="node16" class="node"><title>Node16</title>
<polygon fill="none" stroke="#bfbfbf" points="665.5,-118 665.5,-137 711.5,-137 711.5,-118 665.5,-118"/>
<text text-anchor="middle" x="688.5" y="-125" font-family="Helvetica,sans-Serif" font-size="10.00">atomic</text>
</g>
<!-- Node7&#45;&gt;Node16 -->
<g id="edge16" class="edge"><title>Node7&#45;&gt;Node16</title>
<path fill="none" stroke="midnightblue" d="M971.79,-190.943C922.261,-185.554 810.549,-171.141 720.5,-143 718.623,-142.413 716.71,-141.744 714.802,-141.023"/>
<polygon fill="midnightblue" stroke="midnightblue" points="716.045,-137.749 705.469,-137.12 713.345,-144.207 716.045,-137.749"/>
</g>
<!-- Node17 -->
<g id="node17" class="node"><title>Node17</title>
<polygon fill="none" stroke="#bfbfbf" points="730,-118 730,-137 837,-137 837,-118 730,-118"/>
<text text-anchor="middle" x="783.5" y="-125" font-family="Helvetica,sans-Serif" font-size="10.00">boost/filesystem.hpp</text>
</g>
<!-- Node7&#45;&gt;Node17 -->
<g id="edge17" class="edge"><title>Node7&#45;&gt;Node17</title>
<path fill="none" stroke="midnightblue" d="M971.687,-185.659C934.249,-174.288 864.645,-153.147 821.386,-140.007"/>
<polygon fill="midnightblue" stroke="midnightblue" points="822.369,-136.648 811.784,-137.091 820.335,-143.346 822.369,-136.648"/>
</g>
<!-- Node18 -->
<g id="node18" class="node"><title>Node18</title>
<polygon fill="none" stroke="#bfbfbf" points="855,-118 855,-137 998,-137 998,-118 855,-118"/>
<text text-anchor="middle" x="926.5" y="-125" font-family="Helvetica,sans-Serif" font-size="10.00">boost/filesystem/fstream.hpp</text>
</g>
<!-- Node7&#45;&gt;Node18 -->
<g id="edge18" class="edge"><title>Node7&#45;&gt;Node18</title>
<path fill="none" stroke="midnightblue" d="M987.925,-184.734C976.534,-174.305 957.313,-156.709 943.401,-143.973"/>
<polygon fill="midnightblue" stroke="midnightblue" points="945.663,-141.298 935.924,-137.127 940.936,-146.461 945.663,-141.298"/>
</g>
<!-- Node19 -->
<g id="node19" class="node"><title>Node19</title>
<polygon fill="none" stroke="#bfbfbf" points="1016.5,-112.5 1016.5,-142.5 1120.5,-142.5 1120.5,-112.5 1016.5,-112.5"/>
<text text-anchor="start" x="1024.5" y="-130.5" font-family="Helvetica,sans-Serif" font-size="10.00">boost/archive/binary</text>
<text text-anchor="middle" x="1068.5" y="-119.5" font-family="Helvetica,sans-Serif" font-size="10.00">_oarchive.hpp</text>
</g>
<!-- Node7&#45;&gt;Node19 -->
<g id="edge19" class="edge"><title>Node7&#45;&gt;Node19</title>
<path fill="none" stroke="midnightblue" d="M1007.08,-184.734C1016.86,-175.78 1032.41,-161.543 1045.41,-149.635"/>
<polygon fill="midnightblue" stroke="midnightblue" points="1048.1,-151.923 1053.11,-142.589 1043.37,-146.76 1048.1,-151.923"/>
</g>
<!-- Node20 -->
<g id="node20" class="node"><title>Node20</title>
<polygon fill="none" stroke="#bfbfbf" points="1138.5,-112.5 1138.5,-142.5 1242.5,-142.5 1242.5,-112.5 1138.5,-112.5"/>
<text text-anchor="start" x="1146.5" y="-130.5" font-family="Helvetica,sans-Serif" font-size="10.00">boost/archive/binary</text>
<text text-anchor="middle" x="1190.5" y="-119.5" font-family="Helvetica,sans-Serif" font-size="10.00">_iarchive.hpp</text>
</g>
<!-- Node7&#45;&gt;Node20 -->
<g id="edge20" class="edge"><title>Node7&#45;&gt;Node20</title>
<path fill="none" stroke="midnightblue" d="M1020.73,-184.952C1026.22,-182.967 1032.06,-180.885 1037.5,-179 1070.51,-167.572 1107.72,-155.276 1137.18,-145.679"/>
<polygon fill="midnightblue" stroke="midnightblue" points="1138.43,-148.953 1146.86,-142.532 1136.27,-142.296 1138.43,-148.953"/>
</g>
<!-- Node21 -->
<g id="node21" class="node"><title>Node21</title>
<polygon fill="none" stroke="#bfbfbf" points="1260.5,-118 1260.5,-137 1304.5,-137 1304.5,-118 1260.5,-118"/>
<text text-anchor="middle" x="1282.5" y="-125" font-family="Helvetica,sans-Serif" font-size="10.00">mutex</text>
</g>
<!-- Node7&#45;&gt;Node21 -->
<g id="edge21" class="edge"><title>Node7&#45;&gt;Node21</title>
<path fill="none" stroke="midnightblue" d="M1018.86,-184.948C1024.83,-182.783 1031.36,-180.616 1037.5,-179 1130.77,-154.465 1159.42,-171.694 1251.5,-143 1253.37,-142.417 1255.28,-141.743 1257.17,-141.011"/>
<polygon fill="midnightblue" stroke="midnightblue" points="1258.62,-144.199 1266.42,-137.028 1255.85,-137.77 1258.62,-144.199"/>
</g>
<!-- Node7&#45;&gt;Node22 -->
<g id="edge23" class="edge"><title>Node7&#45;&gt;Node22</title>
<path fill="none" stroke="midnightblue" d="M1023.08,-190.718C1053.62,-187.484 1106.23,-182.185 1151.5,-179 1494.14,-154.894 1586.67,-210.291 1923.5,-143 1926.94,-142.314 1930.47,-141.384 1933.95,-140.324"/>
<polygon fill="midnightblue" stroke="midnightblue" points="1935.14,-143.616 1943.49,-137.089 1932.9,-136.987 1935.14,-143.616"/>
</g>
<!-- Node23 -->
<g id="node23" class="node"><title>Node23</title>
<polygon fill="none" stroke="#bfbfbf" points="1322.5,-118 1322.5,-137 1396.5,-137 1396.5,-118 1322.5,-118"/>
<text text-anchor="middle" x="1359.5" y="-125" font-family="Helvetica,sans-Serif" font-size="10.00">dataPacket.h</text>
</g>
<!-- Node7&#45;&gt;Node23 -->
<g id="edge24" class="edge"><title>Node7&#45;&gt;Node23</title>
<path fill="none" stroke="midnightblue" d="M1018.41,-184.948C1024.48,-182.731 1031.18,-180.537 1037.5,-179 1157.7,-149.747 1192.71,-169.698 1313.5,-143 1317.35,-142.15 1321.33,-141.123 1325.27,-140.013"/>
<polygon fill="midnightblue" stroke="midnightblue" points="1326.31,-143.355 1334.89,-137.134 1324.3,-136.649 1326.31,-143.355"/>
</g>
<!-- Node24 -->
<g id="node24" class="node"><title>Node24</title>
<g id="a_node24"><a xlink:href="sensor_8h.html" target="_top" xlink:title="sensor.h">
<polygon fill="none" stroke="black" points="1511.5,-56.5 1511.5,-75.5 1565.5,-75.5 1565.5,-56.5 1511.5,-56.5"/>
<text text-anchor="middle" x="1538.5" y="-63.5" font-family="Helvetica,sans-Serif" font-size="10.00">sensor.h</text>
</a>
</g>
</g>
<!-- Node7&#45;&gt;Node24 -->
<g id="edge25" class="edge"><title>Node7&#45;&gt;Node24</title>
<path fill="none" stroke="midnightblue" d="M1017.95,-184.882C1024.13,-182.608 1031,-180.4 1037.5,-179 1139.68,-156.986 1421.7,-204.112 1506.5,-143 1524.88,-129.755 1532.76,-103.843 1536.11,-85.9866"/>
<polygon fill="midnightblue" stroke="midnightblue" points="1539.6,-86.2811 1537.68,-75.8618 1532.69,-85.2047 1539.6,-86.2811"/>
</g>
<!-- Node25 -->
<g id="node25" class="node"><title>Node25</title>
<g id="a_node25"><a xlink:href="sonar_8h.html" target="_top" xlink:title="sonar.h">
<polygon fill="none" stroke="black" points="1415,-118 1415,-137 1464,-137 1464,-118 1415,-118"/>
<text text-anchor="middle" x="1439.5" y="-125" font-family="Helvetica,sans-Serif" font-size="10.00">sonar.h</text>
</a>
</g>
</g>
<!-- Node7&#45;&gt;Node25 -->
<g id="edge27" class="edge"><title>Node7&#45;&gt;Node25</title>
<path fill="none" stroke="midnightblue" d="M1017.97,-184.968C1024.15,-182.696 1031.02,-180.468 1037.5,-179 1197.78,-142.713 1246.29,-183.708 1405.5,-143 1407.86,-142.396 1410.27,-141.653 1412.66,-140.824"/>
<polygon fill="midnightblue" stroke="midnightblue" points="1414.18,-143.988 1422.21,-137.079 1411.62,-137.471 1414.18,-143.988"/>
</g>
<!-- Node26 -->
<g id="node26" class="node"><title>Node26</title>
<g id="a_node26"><a xlink:href="heightsensor_8h.html" target="_top" xlink:title="heightsensor.h">
<polygon fill="none" stroke="black" points="1558.5,-118 1558.5,-137 1638.5,-137 1638.5,-118 1558.5,-118"/>
<text text-anchor="middle" x="1598.5" y="-125" font-family="Helvetica,sans-Serif" font-size="10.00">heightsensor.h</text>
</a>
</g>
</g>
<!-- Node7&#45;&gt;Node26 -->
<g id="edge30" class="edge"><title>Node7&#45;&gt;Node26</title>
<path fill="none" stroke="midnightblue" d="M1017.94,-184.859C1024.12,-182.584 1031,-180.381 1037.5,-179 1258.47,-132.057 1321.73,-180.463 1544.5,-143 1549.88,-142.094 1555.51,-140.887 1561.01,-139.554"/>
<polygon fill="midnightblue" stroke="midnightblue" points="1561.89,-142.942 1570.7,-137.056 1560.14,-136.164 1561.89,-142.942"/>
</g>
<!-- Node27 -->
<g id="node27" class="node"><title>Node27</title>
<g id="a_node27"><a xlink:href="rotor_8h.html" target="_top" xlink:title="rotor.h">
<polygon fill="none" stroke="black" points="1013.5,-56.5 1013.5,-75.5 1057.5,-75.5 1057.5,-56.5 1013.5,-56.5"/>
<text text-anchor="middle" x="1035.5" y="-63.5" font-family="Helvetica,sans-Serif" font-size="10.00">rotor.h</text>
</a>
</g>
</g>
<!-- Node7&#45;&gt;Node27 -->
<g id="edge32" class="edge"><title>Node7&#45;&gt;Node27</title>
<path fill="none" stroke="midnightblue" d="M971.889,-193.805C899.749,-194.063 697.453,-190.464 656.5,-143 647.499,-132.568 647.35,-122.301 656.5,-112 679.417,-86.2013 915.987,-72.5922 1003.33,-68.4172"/>
<polygon fill="midnightblue" stroke="midnightblue" points="1003.63,-71.9071 1013.45,-67.9438 1003.3,-64.9148 1003.63,-71.9071"/>
</g>
<!-- Node7&#45;&gt;Node28 -->
<g id="edge34" class="edge"><title>Node7&#45;&gt;Node28</title>
<path fill="none" stroke="midnightblue" d="M971.993,-193.466C879.777,-192.965 555.276,-187.912 292.5,-143 287.343,-142.119 281.963,-140.949 276.692,-139.656"/>
<polygon fill="midnightblue" stroke="midnightblue" points="277.339,-136.207 266.779,-137.059 275.566,-142.979 277.339,-136.207"/>
</g>
<!-- Node7&#45;&gt;Node29 -->
<g id="edge36" class="edge"><title>Node7&#45;&gt;Node29</title>
<path fill="none" stroke="midnightblue" d="M1023.26,-191.298C1060.09,-188.208 1129.94,-182.565 1189.5,-179 1550.98,-157.362 1646.89,-205.971 2003.5,-143 2007.77,-142.246 2012.19,-141.205 2016.53,-140.023"/>
<polygon fill="midnightblue" stroke="midnightblue" points="2017.81,-143.293 2026.39,-137.079 2015.81,-136.585 2017.81,-143.293"/>
</g>
<!-- Node24&#45;&gt;Node4 -->
<g id="edge26" class="edge"><title>Node24&#45;&gt;Node4</title>
<path fill="none" stroke="midnightblue" d="M1511.18,-58.8857C1506.61,-57.8983 1501.93,-56.9042 1497.5,-56 1423.92,-40.9713 1337.17,-25.0112 1291.44,-16.7331"/>
<polygon fill="midnightblue" stroke="midnightblue" points="1291.99,-13.2755 1281.53,-14.9425 1290.75,-20.1641 1291.99,-13.2755"/>
</g>
<!-- Node25&#45;&gt;Node3 -->
<g id="edge29" class="edge"><title>Node25&#45;&gt;Node3</title>
<path fill="none" stroke="midnightblue" d="M1422.61,-117.849C1417.28,-115.514 1411.26,-113.281 1405.5,-112 1277.26,-83.491 313.243,-69.7664 128.174,-67.3806"/>
<polygon fill="midnightblue" stroke="midnightblue" points="128.098,-63.8794 118.055,-67.2515 128.009,-70.8789 128.098,-63.8794"/>
</g>
<!-- Node25&#45;&gt;Node24 -->
<g id="edge28" class="edge"><title>Node25&#45;&gt;Node24</title>
<path fill="none" stroke="midnightblue" d="M1453.68,-117.975C1469.86,-108.255 1496.53,-92.2266 1515.64,-80.7372"/>
<polygon fill="midnightblue" stroke="midnightblue" points="1517.57,-83.6603 1524.34,-75.5091 1513.97,-77.6606 1517.57,-83.6603"/>
</g>
<!-- Node26&#45;&gt;Node24 -->
<g id="edge31" class="edge"><title>Node26&#45;&gt;Node24</title>
<path fill="none" stroke="midnightblue" d="M1589.9,-117.975C1580.64,-108.785 1565.68,-93.9563 1554.29,-82.656"/>
<polygon fill="midnightblue" stroke="midnightblue" points="1556.65,-80.0653 1547.08,-75.5091 1551.72,-85.0358 1556.65,-80.0653"/>
</g>
<!-- Node27&#45;&gt;Node4 -->
<g id="edge33" class="edge"><title>Node27&#45;&gt;Node4</title>
<path fill="none" stroke="midnightblue" d="M1057.8,-59.6249C1097.71,-50.0019 1181.5,-29.8028 1227.53,-18.7064"/>
<polygon fill="midnightblue" stroke="midnightblue" points="1228.39,-22.0996 1237.29,-16.3534 1226.75,-15.2945 1228.39,-22.0996"/>
</g>
<!-- Node28&#45;&gt;Node24 -->
<g id="edge35" class="edge"><title>Node28&#45;&gt;Node24</title>
<path fill="none" stroke="midnightblue" d="M265.932,-117.98C274.337,-115.62 283.73,-113.34 292.5,-112 414.431,-93.3754 1306.99,-72.2428 1501.25,-67.8326"/>
<polygon fill="midnightblue" stroke="midnightblue" points="1501.33,-71.3317 1511.25,-67.6063 1501.17,-64.3334 1501.33,-71.3317"/>
</g>
</g>
</svg>
        <g id="navigator" transform="translate(0 0)" fill="#404254">
                <rect fill="#f2f5e9" fill-opacity="0.5" stroke="#606060" stroke-width=".5" x="0" y="0" width="60" height="60"/>
                <use id="zoomplus" xlink:href="#zoomPlus" x="17" y="9" onmousedown="handleZoom(evt,'in')"/>
                <use id="zoomminus" xlink:href="#zoomMin" x="42" y="9" onmousedown="handleZoom(evt,'out')"/>
                <use id="reset" xlink:href="#resetDef" x="30" y="36" onmousedown="handleReset()"/>
                <g id="arrowUp" xlink:href="#dirArrow" transform="translate(30 24)" onmousedown="handlePan(0,-1)">
                  <use xlink:href="#rim" fill="#404040">
                        <set attributeName="fill" to="#808080" begin="arrowUp.mouseover" end="arrowUp.mouseout"/>
                  </use>
                  <path fill="none" stroke="white" stroke-width="1.5" d="M0,-3.0v7 M-2.5,-0.5L0,-3.0L2.5,-0.5"/>
                </g>
                <g id="arrowRight" xlink:href="#dirArrow" transform="rotate(90) translate(36 -43)" onmousedown="handlePan(1,0)">
                  <use xlink:href="#rim" fill="#404040">
                        <set attributeName="fill" to="#808080" begin="arrowRight.mouseover" end="arrowRight.mouseout"/>
                  </use>
                  <path fill="none" stroke="white" stroke-width="1.5" d="M0,-3.0v7 M-2.5,-0.5L0,-3.0L2.5,-0.5"/>
                </g>
                <g id="arrowDown" xlink:href="#dirArrow" transform="rotate(180) translate(-30 -48)" onmousedown="handlePan(0,1)">
                  <use xlink:href="#rim" fill="#404040">
                        <set attributeName="fill" to="#808080" begin="arrowDown.mouseover" end="arrowDown.mouseout"/>
                  </use>
                  <path fill="none" stroke="white" stroke-width="1.5" d="M0,-3.0v7 M-2.5,-0.5L0,-3.0L2.5,-0.5"/>
                </g>
                <g id="arrowLeft" xlink:href="#dirArrow" transform="rotate(270) translate(-36 17)" onmousedown="handlePan(-1,0)">
                  <use xlink:href="#rim" fill="#404040">
                        <set attributeName="fill" to="#808080" begin="arrowLeft.mouseover" end="arrowLeft.mouseout"/>
                  </use>
                  <path fill="none" stroke="white" stroke-width="1.5" d="M0,-3.0v7 M-2.5,-0.5L0,-3.0L2.5,-0.5"/>
                </g>
        </g>
        <svg viewBox="0 0 15 15" width="100%" height="30px" preserveAspectRatio="xMaxYMin meet">
         <g id="arrow_out" transform="scale(0.3 0.3)">
          <a xlink:href="finkenplugin_8cpp__incl_org.svg" target="_base">
           <rect id="button" ry="5" rx="5" y="6" x="6" height="38" width="38"
                fill="#f2f5e9" fill-opacity="0.5" stroke="#606060" stroke-width="1.0"/>
           <path id="arrow"
             d="M 11.500037,31.436501 C 11.940474,20.09759 22.043105,11.32322 32.158766,21.979434 L 37.068811,17.246167 C 37.068811,17.246167 37.088388,32 37.088388,32 L 22.160133,31.978069 C 22.160133,31.978069 26.997745,27.140456 26.997745,27.140456 C 18.528582,18.264221 13.291696,25.230495 11.500037,31.436501 z"
             style="fill:#404040;"/>
          </a>
         </g>
        </svg>
</svg>
