<?xml version="1.0" encoding="UTF-8" standalone="no"?>
<!DOCTYPE svg PUBLIC "-//W3C//DTD SVG 1.1//EN"
 "http://www.w3.org/Graphics/SVG/1.1/DTD/svg11.dtd">
<!-- Generated by graphviz version 2.38.0 (20140413.2041)
 -->
<!-- Title: thrustFromThrottle Pages: 1 -->
<svg width="263pt" height="66pt"
 viewBox="0.00 0.00 263.00 66.00" xmlns="http://www.w3.org/2000/svg" xmlns:xlink="http://www.w3.org/1999/xlink">
<g id="graph0" class="graph" transform="scale(1 1) rotate(0) translate(4 62)">
<title>thrustFromThrottle</title>
<!-- Node1 -->
<g id="node1" class="node"><title>Node1</title>
<polygon fill="#bfbfbf" stroke="black" points="0,-19.5 0,-38.5 97,-38.5 97,-19.5 0,-19.5"/>
<text text-anchor="middle" x="48.5" y="-26.5" font-family="Helvetica,sans-Serif" font-size="10.00">thrustFromThrottle</text>
</g>
<!-- Node2 -->
<g id="node2" class="node"><title>Node2</title>
<g id="a_node2"><a xlink:href="classFinken.html#aaead1098c0752c8ec5b99bccd9945f3b" target="_top" xlink:title="Applies the correct rotor speeds calculated by Paparazzi. ">
<polygon fill="none" stroke="black" points="133,-38.5 133,-57.5 255,-57.5 255,-38.5 133,-38.5"/>
<text text-anchor="middle" x="194" y="-45.5" font-family="Helvetica,sans-Serif" font-size="10.00">Finken::setRotorSpeeds</text>
</a>
</g>
</g>
<!-- Node1&#45;&gt;Node2 -->
<g id="edge1" class="edge"><title>Node1&#45;&gt;Node2</title>
<path fill="none" stroke="midnightblue" d="M107.378,-36.6633C115.789,-37.7769 124.463,-38.9255 132.916,-40.0446"/>
<polygon fill="midnightblue" stroke="midnightblue" points="107.656,-33.1697 97.2834,-35.3267 106.737,-40.1091 107.656,-33.1697"/>
</g>
<!-- Node3 -->
<g id="node3" class="node"><title>Node3</title>
<g id="a_node3"><a xlink:href="classFinken.html#aa4779668e3bf85253e371b30e0da808a" target="_top" xlink:title="Called in the accept handler, this function passes the incoming connection to the corresponding finke...">
<polygon fill="none" stroke="black" points="151,-0.5 151,-19.5 237,-19.5 237,-0.5 151,-0.5"/>
<text text-anchor="middle" x="194" y="-7.5" font-family="Helvetica,sans-Serif" font-size="10.00">Finken::connect</text>
</a>
</g>
</g>
<!-- Node1&#45;&gt;Node3 -->
<g id="edge2" class="edge"><title>Node1&#45;&gt;Node3</title>
<path fill="none" stroke="midnightblue" d="M107.616,-21.3052C122.04,-19.3955 137.226,-17.3847 150.727,-15.5971"/>
<polygon fill="midnightblue" stroke="midnightblue" points="106.737,-17.8909 97.2834,-22.6733 107.656,-24.8303 106.737,-17.8909"/>
</g>
</g>
</svg>
