<?xml version="1.0" encoding="UTF-8" standalone="no"?>
<!DOCTYPE svg PUBLIC "-//W3C//DTD SVG 1.1//EN"
 "http://www.w3.org/Graphics/SVG/1.1/DTD/svg11.dtd">
<!-- Generated by graphviz version 2.38.0 (20140413.2041)
 -->
<!-- Title: buildFinken Pages: 1 -->
<svg width="208pt" height="66pt"
 viewBox="0.00 0.00 208.00 66.00" xmlns="http://www.w3.org/2000/svg" xmlns:xlink="http://www.w3.org/1999/xlink">
<g id="graph0" class="graph" transform="scale(1 1) rotate(0) translate(4 62)">
<title>buildFinken</title>
<!-- Node1 -->
<g id="node1" class="node"><title>Node1</title>
<polygon fill="#bfbfbf" stroke="black" points="0,-19.5 0,-38.5 66,-38.5 66,-19.5 0,-19.5"/>
<text text-anchor="middle" x="33" y="-26.5" font-family="Helvetica,sans-Serif" font-size="10.00">buildFinken</text>
</g>
<!-- Node2 -->
<g id="node2" class="node"><title>Node2</title>
<g id="a_node2"><a xlink:href="classFinken.html#a2f2adb211e80a689f580b87730aeb9d1" target="_top" xlink:title="Adding sensors to the copter. ">
<polygon fill="none" stroke="black" points="102,-38.5 102,-57.5 200,-57.5 200,-38.5 102,-38.5"/>
<text text-anchor="middle" x="151" y="-45.5" font-family="Helvetica,sans-Serif" font-size="10.00">Finken::addSensor</text>
</a>
</g>
</g>
<!-- Node1&#45;&gt;Node2 -->
<g id="edge1" class="edge"><title>Node1&#45;&gt;Node2</title>
<path fill="none" stroke="midnightblue" d="M66.0046,-34.2421C73.9953,-35.551 82.8161,-36.9957 91.6478,-38.4423"/>
<polygon fill="midnightblue" stroke="midnightblue" points="91.1457,-41.9066 101.58,-40.0691 92.2772,-34.9987 91.1457,-41.9066"/>
</g>
<!-- Node3 -->
<g id="node3" class="node"><title>Node3</title>
<g id="a_node3"><a xlink:href="classFinken.html#a4ac9d9b37fba41147a83a36286fbe91b" target="_top" xlink:title="Adding rotors to the copter. ">
<polygon fill="none" stroke="black" points="105,-0.5 105,-19.5 197,-19.5 197,-0.5 105,-0.5"/>
<text text-anchor="middle" x="151" y="-7.5" font-family="Helvetica,sans-Serif" font-size="10.00">Finken::addRotor</text>
</a>
</g>
</g>
<!-- Node1&#45;&gt;Node3 -->
<g id="edge2" class="edge"><title>Node1&#45;&gt;Node3</title>
<path fill="none" stroke="midnightblue" d="M66.0046,-23.7579C74.864,-22.3068 84.7437,-20.6885 94.5273,-19.086"/>
<polygon fill="midnightblue" stroke="midnightblue" points="95.3386,-22.4999 104.641,-17.4294 94.207,-15.5919 95.3386,-22.4999"/>
</g>
</g>
</svg>
