<?xml version="1.0" encoding="UTF-8" standalone="no"?>
<!DOCTYPE svg PUBLIC "-//W3C//DTD SVG 1.1//EN"
 "http://www.w3.org/Graphics/SVG/1.1/DTD/svg11.dtd">
<!-- Generated by graphviz version 2.38.0 (20140413.2041)
 -->
<!-- Title: Graphical Class Hierarchy Pages: 1 -->
<svg width="174pt" height="142pt"
 viewBox="0.00 0.00 174.00 142.00" xmlns="http://www.w3.org/2000/svg" xmlns:xlink="http://www.w3.org/1999/xlink">
<g id="graph0" class="graph" transform="scale(1 1) rotate(0) translate(4 138)">
<title>Graphical Class Hierarchy</title>
<!-- Node1 -->
<g id="node1" class="node"><title>Node1</title>
<g id="a_node1"><a xlink:href="classSensor.html" target="_top" xlink:title="base Sensor class, all sensors should inherit from this ">
<polygon fill="none" stroke="black" points="0,-57.5 0,-76.5 47,-76.5 47,-57.5 0,-57.5"/>
<text text-anchor="middle" x="23.5" y="-64.5" font-family="Helvetica,sans-Serif" font-size="10.00">Sensor</text>
</a>
</g>
</g>
<!-- Node2 -->
<g id="node2" class="node"><title>Node2</title>
<g id="a_node2"><a xlink:href="classAttitudeSensor.html" target="_top" xlink:title="Currently unused class for an attitude sensor. ">
<polygon fill="none" stroke="black" points="84,-114.5 84,-133.5 165,-133.5 165,-114.5 84,-114.5"/>
<text text-anchor="middle" x="124.5" y="-121.5" font-family="Helvetica,sans-Serif" font-size="10.00">AttitudeSensor</text>
</a>
</g>
</g>
<!-- Node1&#45;&gt;Node2 -->
<g id="edge1" class="edge"><title>Node1&#45;&gt;Node2</title>
<path fill="none" stroke="midnightblue" d="M46.5058,-82.3193C57.2891,-89.559 70.5954,-98.1043 83,-105 88.9736,-108.321 95.626,-111.604 101.785,-114.482"/>
<polygon fill="midnightblue" stroke="midnightblue" points="48.3529,-79.3427 38.1166,-76.6099 44.4145,-85.1297 48.3529,-79.3427"/>
</g>
<!-- Node3 -->
<g id="node3" class="node"><title>Node3</title>
<g id="a_node3"><a xlink:href="classHeightSensor.html" target="_top" xlink:title="Class implementing a heightsensor. ">
<polygon fill="none" stroke="black" points="86.5,-76.5 86.5,-95.5 162.5,-95.5 162.5,-76.5 86.5,-76.5"/>
<text text-anchor="middle" x="124.5" y="-83.5" font-family="Helvetica,sans-Serif" font-size="10.00">HeightSensor</text>
</a>
</g>
</g>
<!-- Node1&#45;&gt;Node3 -->
<g id="edge2" class="edge"><title>Node1&#45;&gt;Node3</title>
<path fill="none" stroke="midnightblue" d="M57.4583,-73.3253C66.7122,-75.1013 76.8377,-77.0446 86.3192,-78.8643"/>
<polygon fill="midnightblue" stroke="midnightblue" points="57.9419,-69.8543 47.4614,-71.4067 56.6225,-76.7289 57.9419,-69.8543"/>
</g>
<!-- Node4 -->
<g id="node4" class="node"><title>Node4</title>
<g id="a_node4"><a xlink:href="classPositionSensor.html" target="_top" xlink:title="wrapper to disguise vrep API calls as a position sensor ">
<polygon fill="none" stroke="black" points="83,-38.5 83,-57.5 166,-57.5 166,-38.5 83,-38.5"/>
<text text-anchor="middle" x="124.5" y="-45.5" font-family="Helvetica,sans-Serif" font-size="10.00">PositionSensor</text>
</a>
</g>
</g>
<!-- Node1&#45;&gt;Node4 -->
<g id="edge3" class="edge"><title>Node1&#45;&gt;Node4</title>
<path fill="none" stroke="midnightblue" d="M57.3431,-60.6968C65.4941,-59.1324 74.3272,-57.4372 82.8043,-55.8103"/>
<polygon fill="midnightblue" stroke="midnightblue" points="56.6225,-57.2711 47.4614,-62.5933 57.9419,-64.1457 56.6225,-57.2711"/>
</g>
<!-- Node5 -->
<g id="node5" class="node"><title>Node5</title>
<g id="a_node5"><a xlink:href="classSonar.html" target="_top" xlink:title="implementation of a proximitysensor as sonar ">
<polygon fill="none" stroke="black" points="103.5,-0.5 103.5,-19.5 145.5,-19.5 145.5,-0.5 103.5,-0.5"/>
<text text-anchor="middle" x="124.5" y="-7.5" font-family="Helvetica,sans-Serif" font-size="10.00">Sonar</text>
</a>
</g>
</g>
<!-- Node1&#45;&gt;Node5 -->
<g id="edge4" class="edge"><title>Node1&#45;&gt;Node5</title>
<path fill="none" stroke="midnightblue" d="M46.5058,-51.6807C57.2891,-44.441 70.5954,-35.8957 83,-29 89.5167,-25.3774 96.8411,-21.7998 103.451,-18.743"/>
<polygon fill="midnightblue" stroke="midnightblue" points="44.4145,-48.8703 38.1166,-57.3901 48.3529,-54.6573 44.4145,-48.8703"/>
</g>
</g>
</svg>
