<?xml version="1.0" encoding="UTF-8" standalone="no"?>
<!DOCTYPE svg PUBLIC "-//W3C//DTD SVG 1.1//EN"
 "http://www.w3.org/Graphics/SVG/1.1/DTD/svg11.dtd">
<!-- Generated by graphviz version 2.38.0 (20140413.2041)
 -->
<!-- Title: log.cpp Pages: 1 -->
<svg width="157pt" height="140pt"
 viewBox="0.00 0.00 157.00 140.00" xmlns="http://www.w3.org/2000/svg" xmlns:xlink="http://www.w3.org/1999/xlink">
<g id="graph0" class="graph" transform="scale(1 1) rotate(0) translate(4 136)">
<title>log.cpp</title>
<!-- Node1 -->
<g id="node1" class="node"><title>Node1</title>
<polygon fill="#bfbfbf" stroke="black" points="66,-112.5 66,-131.5 114,-131.5 114,-112.5 66,-112.5"/>
<text text-anchor="middle" x="90" y="-119.5" font-family="Helvetica,sans-Serif" font-size="10.00">log.cpp</text>
</g>
<!-- Node2 -->
<g id="node2" class="node"><title>Node2</title>
<g id="a_node2"><a xlink:href="log_8h.html" target="_top" xlink:title="log.h">
<polygon fill="none" stroke="black" points="39,-56.5 39,-75.5 77,-75.5 77,-56.5 39,-56.5"/>
<text text-anchor="middle" x="58" y="-63.5" font-family="Helvetica,sans-Serif" font-size="10.00">log.h</text>
</a>
</g>
</g>
<!-- Node1&#45;&gt;Node2 -->
<g id="edge1" class="edge"><title>Node1&#45;&gt;Node2</title>
<path fill="none" stroke="midnightblue" d="M84.7159,-112.083C80.289,-104.613 73.8367,-93.7244 68.3821,-84.5199"/>
<polygon fill="midnightblue" stroke="midnightblue" points="71.2949,-82.5697 63.1858,-75.7511 65.2729,-86.1383 71.2949,-82.5697"/>
</g>
<!-- Node5 -->
<g id="node5" class="node"><title>Node5</title>
<polygon fill="none" stroke="#bfbfbf" points="95,-56.5 95,-75.5 149,-75.5 149,-56.5 95,-56.5"/>
<text text-anchor="middle" x="122" y="-63.5" font-family="Helvetica,sans-Serif" font-size="10.00">iostream</text>
</g>
<!-- Node1&#45;&gt;Node5 -->
<g id="edge4" class="edge"><title>Node1&#45;&gt;Node5</title>
<path fill="none" stroke="midnightblue" d="M95.2841,-112.083C99.711,-104.613 106.163,-93.7244 111.618,-84.5199"/>
<polygon fill="midnightblue" stroke="midnightblue" points="114.727,-86.1383 116.814,-75.7511 108.705,-82.5697 114.727,-86.1383"/>
</g>
<!-- Node3 -->
<g id="node3" class="node"><title>Node3</title>
<polygon fill="none" stroke="#bfbfbf" points="0,-0.5 0,-19.5 52,-19.5 52,-0.5 0,-0.5"/>
<text text-anchor="middle" x="26" y="-7.5" font-family="Helvetica,sans-Serif" font-size="10.00">ostream</text>
</g>
<!-- Node2&#45;&gt;Node3 -->
<g id="edge2" class="edge"><title>Node2&#45;&gt;Node3</title>
<path fill="none" stroke="midnightblue" d="M52.7159,-56.083C48.289,-48.6127 41.8367,-37.7244 36.3821,-28.5199"/>
<polygon fill="midnightblue" stroke="midnightblue" points="39.2949,-26.5697 31.1858,-19.7511 33.2729,-30.1383 39.2949,-26.5697"/>
</g>
<!-- Node4 -->
<g id="node4" class="node"><title>Node4</title>
<polygon fill="none" stroke="#bfbfbf" points="70.5,-0.5 70.5,-19.5 111.5,-19.5 111.5,-0.5 70.5,-0.5"/>
<text text-anchor="middle" x="91" y="-7.5" font-family="Helvetica,sans-Serif" font-size="10.00">string</text>
</g>
<!-- Node2&#45;&gt;Node4 -->
<g id="edge3" class="edge"><title>Node2&#45;&gt;Node4</title>
<path fill="none" stroke="midnightblue" d="M63.4493,-56.083C68.0145,-48.6127 74.6684,-37.7244 80.2934,-28.5199"/>
<polygon fill="midnightblue" stroke="midnightblue" points="83.4241,-30.109 85.6521,-19.7511 77.4511,-26.4588 83.4241,-30.109"/>
</g>
</g>
</svg>
