<?xml version="1.0" encoding="UTF-8" standalone="no"?>
<!DOCTYPE svg PUBLIC "-//W3C//DTD SVG 1.1//EN"
 "http://www.w3.org/Graphics/SVG/1.1/DTD/svg11.dtd">
<!-- Generated by graphviz version 2.38.0 (20140413.2041)
 -->
<!-- Title: vrepLog Pages: 1 -->
<svg width="218pt" height="180pt"
 viewBox="0.00 0.00 218.00 180.00" xmlns="http://www.w3.org/2000/svg" xmlns:xlink="http://www.w3.org/1999/xlink">
<g id="graph0" class="graph" transform="scale(1 1) rotate(0) translate(4 176)">
<title>vrepLog</title>
<!-- Node1 -->
<g id="node1" class="node"><title>Node1</title>
<polygon fill="#bfbfbf" stroke="black" points="0,-76.5 0,-95.5 51,-95.5 51,-76.5 0,-76.5"/>
<text text-anchor="middle" x="25.5" y="-83.5" font-family="Helvetica,sans-Serif" font-size="10.00">vrepLog</text>
</g>
<!-- Node2 -->
<g id="node2" class="node"><title>Node2</title>
<g id="a_node2"><a xlink:href="nps__fdm__vrep_8cpp.html#a17ec5b69b110d046f9db5b67d2b08779" target="_top" xlink:title="nps_fdm_init">
<polygon fill="none" stroke="black" points="112.5,-152.5 112.5,-171.5 184.5,-171.5 184.5,-152.5 112.5,-152.5"/>
<text text-anchor="middle" x="148.5" y="-159.5" font-family="Helvetica,sans-Serif" font-size="10.00">nps_fdm_init</text>
</a>
</g>
</g>
<!-- Node1&#45;&gt;Node2 -->
<g id="edge1" class="edge"><title>Node1&#45;&gt;Node2</title>
<path fill="none" stroke="midnightblue" d="M41.1127,-103.486C52.4659,-116.067 69.2276,-132.588 87,-143 94.7893,-147.563 103.796,-151.153 112.441,-153.924"/>
<polygon fill="midnightblue" stroke="midnightblue" points="43.6922,-101.119 34.4767,-95.8912 38.4209,-105.725 43.6922,-101.119"/>
</g>
<!-- Node3 -->
<g id="node3" class="node"><title>Node3</title>
<g id="a_node3"><a xlink:href="nps__fdm__vrep_8cpp.html#a1cf64ff46ec2e8373552f181459a31df" target="_top" xlink:title="nps_fdm_run_step">
<polygon fill="none" stroke="black" points="100,-114.5 100,-133.5 197,-133.5 197,-114.5 100,-114.5"/>
<text text-anchor="middle" x="148.5" y="-121.5" font-family="Helvetica,sans-Serif" font-size="10.00">nps_fdm_run_step</text>
</a>
</g>
</g>
<!-- Node1&#45;&gt;Node3 -->
<g id="edge2" class="edge"><title>Node1&#45;&gt;Node3</title>
<path fill="none" stroke="midnightblue" d="M61.2074,-96.8998C78.8817,-102.45 100.169,-109.136 117.179,-114.478"/>
<polygon fill="midnightblue" stroke="midnightblue" points="61.8674,-93.4386 51.2781,-93.7816 59.77,-100.117 61.8674,-93.4386"/>
</g>
<!-- Node4 -->
<g id="node4" class="node"><title>Node4</title>
<g id="a_node4"><a xlink:href="nps__fdm__vrep_8cpp.html#ae4550df0adab6dedcc57ae3d67205479" target="_top" xlink:title="nps_fdm_set_wind">
<polygon fill="none" stroke="black" points="99.5,-76.5 99.5,-95.5 197.5,-95.5 197.5,-76.5 99.5,-76.5"/>
<text text-anchor="middle" x="148.5" y="-83.5" font-family="Helvetica,sans-Serif" font-size="10.00">nps_fdm_set_wind</text>
</a>
</g>
</g>
<!-- Node1&#45;&gt;Node4 -->
<g id="edge3" class="edge"><title>Node1&#45;&gt;Node4</title>
<path fill="none" stroke="midnightblue" d="M61.5741,-86C73.3373,-86 86.668,-86 99.2593,-86"/>
<polygon fill="midnightblue" stroke="midnightblue" points="61.2782,-82.5001 51.2781,-86 61.2781,-89.5001 61.2782,-82.5001"/>
</g>
<!-- Node5 -->
<g id="node5" class="node"><title>Node5</title>
<g id="a_node5"><a xlink:href="nps__fdm__vrep_8cpp.html#a05c90019f11f90f6855e9b0c3224b4a3" target="_top" xlink:title="nps_fdm_set_wind_ned">
<polygon fill="none" stroke="black" points="89,-38.5 89,-57.5 208,-57.5 208,-38.5 89,-38.5"/>
<text text-anchor="middle" x="148.5" y="-45.5" font-family="Helvetica,sans-Serif" font-size="10.00">nps_fdm_set_wind_ned</text>
</a>
</g>
</g>
<!-- Node1&#45;&gt;Node5 -->
<g id="edge4" class="edge"><title>Node1&#45;&gt;Node5</title>
<path fill="none" stroke="midnightblue" d="M61.2074,-75.1002C78.8817,-69.5495 100.169,-62.8641 117.179,-57.5223"/>
<polygon fill="midnightblue" stroke="midnightblue" points="59.77,-71.8829 51.2781,-78.2184 61.8674,-78.5614 59.77,-71.8829"/>
</g>
<!-- Node6 -->
<g id="node6" class="node"><title>Node6</title>
<g id="a_node6"><a xlink:href="nps__fdm__vrep_8cpp.html#ac07a0f8dffd889c21a81979e521a8d97" target="_top" xlink:title="nps_fdm_set_turbulence">
<polygon fill="none" stroke="black" points="87,-0.5 87,-19.5 210,-19.5 210,-0.5 87,-0.5"/>
<text text-anchor="middle" x="148.5" y="-7.5" font-family="Helvetica,sans-Serif" font-size="10.00">nps_fdm_set_turbulence</text>
</a>
</g>
</g>
<!-- Node1&#45;&gt;Node6 -->
<g id="edge5" class="edge"><title>Node1&#45;&gt;Node6</title>
<path fill="none" stroke="midnightblue" d="M41.1127,-68.5141C52.4659,-55.9331 69.2276,-39.4121 87,-29 93.4594,-25.2157 100.756,-22.1012 107.989,-19.5678"/>
<polygon fill="midnightblue" stroke="midnightblue" points="38.4209,-66.2754 34.4767,-76.1088 43.6922,-70.8812 38.4209,-66.2754"/>
</g>
</g>
</svg>
