<?xml version="1.0" encoding="UTF-8" standalone="no"?>
<!DOCTYPE svg PUBLIC "-//W3C//DTD SVG 1.1//EN"
 "http://www.w3.org/Graphics/SVG/1.1/DTD/svg11.dtd">
<!-- Generated by graphviz version 2.38.0 (20140413.2041)
 -->
<!-- Title: positionsensor.h Pages: 1 -->
<svg width="337pt" height="140pt"
 viewBox="0.00 0.00 337.00 140.00" xmlns="http://www.w3.org/2000/svg" xmlns:xlink="http://www.w3.org/1999/xlink">
<g id="graph0" class="graph" transform="scale(1 1) rotate(0) translate(4 136)">
<title>positionsensor.h</title>
<!-- Node1 -->
<g id="node1" class="node"><title>Node1</title>
<polygon fill="#bfbfbf" stroke="black" points="159,-112.5 159,-131.5 247,-131.5 247,-112.5 159,-112.5"/>
<text text-anchor="middle" x="203" y="-119.5" font-family="Helvetica,sans-Serif" font-size="10.00">positionsensor.h</text>
</g>
<!-- Node2 -->
<g id="node2" class="node"><title>Node2</title>
<g id="a_node2"><a xlink:href="finken_8h.html" target="_top" xlink:title="header for the finken implementation ">
<polygon fill="none" stroke="black" points="101.5,-56.5 101.5,-75.5 152.5,-75.5 152.5,-56.5 101.5,-56.5"/>
<text text-anchor="middle" x="127" y="-63.5" font-family="Helvetica,sans-Serif" font-size="10.00">finken.h</text>
</a>
</g>
</g>
<!-- Node1&#45;&gt;Node2 -->
<g id="edge1" class="edge"><title>Node1&#45;&gt;Node2</title>
<path fill="none" stroke="midnightblue" d="M182.424,-106.38C168.688,-96.6204 151.075,-84.1057 139.433,-75.8339"/>
<polygon fill="midnightblue" stroke="midnightblue" points="180.61,-109.385 190.789,-112.324 184.665,-103.679 180.61,-109.385"/>
</g>
<!-- Node4 -->
<g id="node4" class="node"><title>Node4</title>
<g id="a_node4"><a xlink:href="finkenplugin_8cpp.html" target="_top" xlink:title="finkenplugin.cpp">
<polygon fill="none" stroke="black" points="170.5,-0.5 170.5,-19.5 257.5,-19.5 257.5,-0.5 170.5,-0.5"/>
<text text-anchor="middle" x="214" y="-7.5" font-family="Helvetica,sans-Serif" font-size="10.00">finkenplugin.cpp</text>
</a>
</g>
</g>
<!-- Node1&#45;&gt;Node4 -->
<g id="edge5" class="edge"><title>Node1&#45;&gt;Node4</title>
<path fill="none" stroke="midnightblue" d="M204.865,-102.348C207.275,-78.2538 211.369,-37.3079 213.141,-19.5914"/>
<polygon fill="midnightblue" stroke="midnightblue" points="201.376,-102.07 203.863,-112.368 208.341,-102.766 201.376,-102.07"/>
</g>
<!-- Node6 -->
<g id="node6" class="node"><title>Node6</title>
<g id="a_node6"><a xlink:href="positionsensor_8cpp.html" target="_top" xlink:title="positionsensor.cpp">
<polygon fill="none" stroke="black" points="231,-56.5 231,-75.5 329,-75.5 329,-56.5 231,-56.5"/>
<text text-anchor="middle" x="280" y="-63.5" font-family="Helvetica,sans-Serif" font-size="10.00">positionsensor.cpp</text>
</a>
</g>
</g>
<!-- Node1&#45;&gt;Node6 -->
<g id="edge6" class="edge"><title>Node1&#45;&gt;Node6</title>
<path fill="none" stroke="midnightblue" d="M223.901,-106.342C237.911,-96.5169 255.883,-83.9132 267.659,-75.6545"/>
<polygon fill="midnightblue" stroke="midnightblue" points="221.549,-103.717 215.371,-112.324 225.568,-109.448 221.549,-103.717"/>
</g>
<!-- Node3 -->
<g id="node3" class="node"><title>Node3</title>
<g id="a_node3"><a xlink:href="finken_8cpp.html" target="_top" xlink:title="finken.cpp">
<polygon fill="none" stroke="black" points="0,-0.5 0,-19.5 62,-19.5 62,-0.5 0,-0.5"/>
<text text-anchor="middle" x="31" y="-7.5" font-family="Helvetica,sans-Serif" font-size="10.00">finken.cpp</text>
</a>
</g>
</g>
<!-- Node2&#45;&gt;Node3 -->
<g id="edge2" class="edge"><title>Node2&#45;&gt;Node3</title>
<path fill="none" stroke="midnightblue" d="M102.426,-51.1774C84.7612,-41.2407 61.4875,-28.1492 46.3858,-19.6545"/>
<polygon fill="midnightblue" stroke="midnightblue" points="101.144,-54.4718 111.576,-56.324 104.576,-48.3708 101.144,-54.4718"/>
</g>
<!-- Node2&#45;&gt;Node4 -->
<g id="edge3" class="edge"><title>Node2&#45;&gt;Node4</title>
<path fill="none" stroke="midnightblue" d="M149.716,-50.9005C165.669,-40.9986 186.497,-28.0705 200.057,-19.6545"/>
<polygon fill="midnightblue" stroke="midnightblue" points="147.629,-48.0765 140.978,-56.324 151.32,-54.024 147.629,-48.0765"/>
</g>
<!-- Node5 -->
<g id="node5" class="node"><title>Node5</title>
<g id="a_node5"><a xlink:href="skeleton_8cpp.html" target="_top" xlink:title="provides the basic functionality for communication with the running vrep Simulation&quot; ...">
<polygon fill="none" stroke="black" points="80,-0.5 80,-19.5 152,-19.5 152,-0.5 80,-0.5"/>
<text text-anchor="middle" x="116" y="-7.5" font-family="Helvetica,sans-Serif" font-size="10.00">skeleton.cpp</text>
</a>
</g>
</g>
<!-- Node2&#45;&gt;Node5 -->
<g id="edge4" class="edge"><title>Node2&#45;&gt;Node5</title>
<path fill="none" stroke="midnightblue" d="M123.15,-46.1005C121.324,-37.1357 119.23,-26.8579 117.783,-19.7511"/>
<polygon fill="midnightblue" stroke="midnightblue" points="119.758,-46.9829 125.184,-56.083 126.617,-45.5856 119.758,-46.9829"/>
</g>
</g>
</svg>
