<?xml version="1.0" encoding="UTF-8" standalone="no"?>
<!DOCTYPE svg PUBLIC "-//W3C//DTD SVG 1.1//EN"
 "http://www.w3.org/Graphics/SVG/1.1/DTD/svg11.dtd">
<!-- Generated by graphviz version 2.38.0 (20140413.2041)
 -->
<!-- Title: positionsensor.cpp Pages: 1 -->
<svg width="286pt" height="196pt"
 viewBox="0.00 0.00 286.00 196.00" xmlns="http://www.w3.org/2000/svg" xmlns:xlink="http://www.w3.org/1999/xlink">
<g id="graph0" class="graph" transform="scale(1 1) rotate(0) translate(4 192)">
<title>positionsensor.cpp</title>
<!-- Node1 -->
<g id="node1" class="node"><title>Node1</title>
<polygon fill="#bfbfbf" stroke="black" points="96,-168.5 96,-187.5 194,-187.5 194,-168.5 96,-168.5"/>
<text text-anchor="middle" x="145" y="-175.5" font-family="Helvetica,sans-Serif" font-size="10.00">positionsensor.cpp</text>
</g>
<!-- Node2 -->
<g id="node2" class="node"><title>Node2</title>
<g id="a_node2"><a xlink:href="positionsensor_8h.html" target="_top" xlink:title="positionsensor.h">
<polygon fill="none" stroke="black" points="-7.10543e-15,-112.5 -7.10543e-15,-131.5 88,-131.5 88,-112.5 -7.10543e-15,-112.5"/>
<text text-anchor="middle" x="44" y="-119.5" font-family="Helvetica,sans-Serif" font-size="10.00">positionsensor.h</text>
</a>
</g>
</g>
<!-- Node1&#45;&gt;Node2 -->
<g id="edge1" class="edge"><title>Node1&#45;&gt;Node2</title>
<path fill="none" stroke="midnightblue" d="M128.773,-168.324C112.649,-159.703 87.6998,-146.364 69.0359,-136.386"/>
<polygon fill="midnightblue" stroke="midnightblue" points="70.6561,-133.283 60.1871,-131.655 67.3556,-139.456 70.6561,-133.283"/>
</g>
<!-- Node4 -->
<g id="node4" class="node"><title>Node4</title>
<polygon fill="none" stroke="#bfbfbf" points="62,-0.5 62,-19.5 106,-19.5 106,-0.5 62,-0.5"/>
<text text-anchor="middle" x="84" y="-7.5" font-family="Helvetica,sans-Serif" font-size="10.00">vector</text>
</g>
<!-- Node1&#45;&gt;Node4 -->
<g id="edge6" class="edge"><title>Node1&#45;&gt;Node4</title>
<path fill="none" stroke="midnightblue" d="M141.72,-168.075C132.077,-141.832 103.676,-64.5453 90.6573,-29.1165"/>
<polygon fill="midnightblue" stroke="midnightblue" points="93.883,-27.7472 87.1485,-19.5681 87.3126,-30.1617 93.883,-27.7472"/>
</g>
<!-- Node5 -->
<g id="node5" class="node"><title>Node5</title>
<polygon fill="none" stroke="#bfbfbf" points="144,-112.5 144,-131.5 206,-131.5 206,-112.5 144,-112.5"/>
<text text-anchor="middle" x="175" y="-119.5" font-family="Helvetica,sans-Serif" font-size="10.00">v_repLib.h</text>
</g>
<!-- Node1&#45;&gt;Node5 -->
<g id="edge4" class="edge"><title>Node1&#45;&gt;Node5</title>
<path fill="none" stroke="midnightblue" d="M149.954,-168.083C154.104,-160.613 160.153,-149.724 165.267,-140.52"/>
<polygon fill="midnightblue" stroke="midnightblue" points="168.341,-142.192 170.138,-131.751 162.222,-138.793 168.341,-142.192"/>
</g>
<!-- Node6 -->
<g id="node6" class="node"><title>Node6</title>
<polygon fill="none" stroke="#bfbfbf" points="224,-112.5 224,-131.5 278,-131.5 278,-112.5 224,-112.5"/>
<text text-anchor="middle" x="251" y="-119.5" font-family="Helvetica,sans-Serif" font-size="10.00">iostream</text>
</g>
<!-- Node1&#45;&gt;Node6 -->
<g id="edge5" class="edge"><title>Node1&#45;&gt;Node6</title>
<path fill="none" stroke="midnightblue" d="M162.031,-168.324C179.03,-159.664 205.376,-146.242 224.993,-136.249"/>
<polygon fill="midnightblue" stroke="midnightblue" points="226.69,-139.312 234.012,-131.655 223.512,-133.075 226.69,-139.312"/>
</g>
<!-- Node3 -->
<g id="node3" class="node"><title>Node3</title>
<g id="a_node3"><a xlink:href="sensor_8h.html" target="_top" xlink:title="sensor.h">
<polygon fill="none" stroke="black" points="25,-56.5 25,-75.5 79,-75.5 79,-56.5 25,-56.5"/>
<text text-anchor="middle" x="52" y="-63.5" font-family="Helvetica,sans-Serif" font-size="10.00">sensor.h</text>
</a>
</g>
</g>
<!-- Node2&#45;&gt;Node3 -->
<g id="edge2" class="edge"><title>Node2&#45;&gt;Node3</title>
<path fill="none" stroke="midnightblue" d="M45.321,-112.083C46.3811,-104.927 47.9059,-94.6353 49.2309,-85.6911"/>
<polygon fill="midnightblue" stroke="midnightblue" points="52.7002,-86.1561 50.7035,-75.7511 45.7758,-85.1302 52.7002,-86.1561"/>
</g>
<!-- Node3&#45;&gt;Node4 -->
<g id="edge3" class="edge"><title>Node3&#45;&gt;Node4</title>
<path fill="none" stroke="midnightblue" d="M57.2841,-56.083C61.711,-48.6127 68.1633,-37.7244 73.6179,-28.5199"/>
<polygon fill="midnightblue" stroke="midnightblue" points="76.7271,-30.1383 78.8142,-19.7511 70.7051,-26.5697 76.7271,-30.1383"/>
</g>
</g>
</svg>
