<?xml version="1.0" encoding="UTF-8" standalone="no"?>
<!DOCTYPE svg PUBLIC "-//W3C//DTD SVG 1.1//EN"
 "http://www.w3.org/Graphics/SVG/1.1/DTD/svg11.dtd">
<!-- Generated by graphviz version 2.38.0 (20140413.2041)
 -->
<!-- Title: rotor.h Pages: 1 -->
<svg width="266pt" height="140pt"
 viewBox="0.00 0.00 266.00 140.00" xmlns="http://www.w3.org/2000/svg" xmlns:xlink="http://www.w3.org/1999/xlink">
<g id="graph0" class="graph" transform="scale(1 1) rotate(0) translate(4 136)">
<title>rotor.h</title>
<!-- Node1 -->
<g id="node1" class="node"><title>Node1</title>
<polygon fill="#bfbfbf" stroke="black" points="137,-112.5 137,-131.5 181,-131.5 181,-112.5 137,-112.5"/>
<text text-anchor="middle" x="159" y="-119.5" font-family="Helvetica,sans-Serif" font-size="10.00">rotor.h</text>
</g>
<!-- Node2 -->
<g id="node2" class="node"><title>Node2</title>
<g id="a_node2"><a xlink:href="finken_8h.html" target="_top" xlink:title="header for the finken implementation ">
<polygon fill="none" stroke="black" points="98.5,-56.5 98.5,-75.5 149.5,-75.5 149.5,-56.5 98.5,-56.5"/>
<text text-anchor="middle" x="124" y="-63.5" font-family="Helvetica,sans-Serif" font-size="10.00">finken.h</text>
</a>
</g>
</g>
<!-- Node1&#45;&gt;Node2 -->
<g id="edge1" class="edge"><title>Node1&#45;&gt;Node2</title>
<path fill="none" stroke="midnightblue" d="M147.7,-103.566C141.678,-94.2747 134.531,-83.2484 129.672,-75.7511"/>
<polygon fill="midnightblue" stroke="midnightblue" points="144.844,-105.595 153.22,-112.083 150.719,-101.788 144.844,-105.595"/>
</g>
<!-- Node6 -->
<g id="node6" class="node"><title>Node6</title>
<g id="a_node6"><a xlink:href="rotor_8cpp.html" target="_top" xlink:title="rotor.cpp">
<polygon fill="none" stroke="black" points="167.5,-56.5 167.5,-75.5 222.5,-75.5 222.5,-56.5 167.5,-56.5"/>
<text text-anchor="middle" x="195" y="-63.5" font-family="Helvetica,sans-Serif" font-size="10.00">rotor.cpp</text>
</a>
</g>
</g>
<!-- Node1&#45;&gt;Node6 -->
<g id="edge5" class="edge"><title>Node1&#45;&gt;Node6</title>
<path fill="none" stroke="midnightblue" d="M170.623,-103.566C176.817,-94.2747 184.168,-83.2484 189.166,-75.7511"/>
<polygon fill="midnightblue" stroke="midnightblue" points="167.58,-101.821 164.945,-112.083 173.404,-105.704 167.58,-101.821"/>
</g>
<!-- Node3 -->
<g id="node3" class="node"><title>Node3</title>
<g id="a_node3"><a xlink:href="finken_8cpp.html" target="_top" xlink:title="finken.cpp">
<polygon fill="none" stroke="black" points="0,-0.5 0,-19.5 62,-19.5 62,-0.5 0,-0.5"/>
<text text-anchor="middle" x="31" y="-7.5" font-family="Helvetica,sans-Serif" font-size="10.00">finken.cpp</text>
</a>
</g>
</g>
<!-- Node2&#45;&gt;Node3 -->
<g id="edge2" class="edge"><title>Node2&#45;&gt;Node3</title>
<path fill="none" stroke="midnightblue" d="M100.194,-51.1774C83.0811,-41.2407 60.5347,-28.1492 45.905,-19.6545"/>
<polygon fill="midnightblue" stroke="midnightblue" points="98.6525,-54.3293 109.058,-56.324 102.168,-48.2758 98.6525,-54.3293"/>
</g>
<!-- Node4 -->
<g id="node4" class="node"><title>Node4</title>
<g id="a_node4"><a xlink:href="finkenplugin_8cpp.html" target="_top" xlink:title="finkenplugin.cpp">
<polygon fill="none" stroke="black" points="80.5,-0.5 80.5,-19.5 167.5,-19.5 167.5,-0.5 80.5,-0.5"/>
<text text-anchor="middle" x="124" y="-7.5" font-family="Helvetica,sans-Serif" font-size="10.00">finkenplugin.cpp</text>
</a>
</g>
</g>
<!-- Node2&#45;&gt;Node4 -->
<g id="edge3" class="edge"><title>Node2&#45;&gt;Node4</title>
<path fill="none" stroke="midnightblue" d="M124,-45.8045C124,-36.9102 124,-26.7798 124,-19.7511"/>
<polygon fill="midnightblue" stroke="midnightblue" points="120.5,-46.083 124,-56.083 127.5,-46.083 120.5,-46.083"/>
</g>
<!-- Node5 -->
<g id="node5" class="node"><title>Node5</title>
<g id="a_node5"><a xlink:href="skeleton_8cpp.html" target="_top" xlink:title="provides the basic functionality for communication with the running vrep Simulation&quot; ...">
<polygon fill="none" stroke="black" points="186,-0.5 186,-19.5 258,-19.5 258,-0.5 186,-0.5"/>
<text text-anchor="middle" x="222" y="-7.5" font-family="Helvetica,sans-Serif" font-size="10.00">skeleton.cpp</text>
</a>
</g>
</g>
<!-- Node2&#45;&gt;Node5 -->
<g id="edge4" class="edge"><title>Node2&#45;&gt;Node5</title>
<path fill="none" stroke="midnightblue" d="M148.586,-51.4526C166.678,-41.4835 190.735,-28.2279 206.294,-19.6545"/>
<polygon fill="midnightblue" stroke="midnightblue" points="146.815,-48.4324 139.745,-56.324 150.193,-54.5633 146.815,-48.4324"/>
</g>
</g>
</svg>
