<?xml version="1.0" encoding="UTF-8" standalone="no"?>
<!DOCTYPE svg PUBLIC "-//W3C//DTD SVG 1.1//EN"
 "http://www.w3.org/Graphics/SVG/1.1/DTD/svg11.dtd">
<!-- Generated by graphviz version 2.38.0 (20140413.2041)
 -->
<!-- Title: sensor.h Pages: 1 -->
<svg width="516pt" height="196pt"
 viewBox="0.00 0.00 516.00 196.00" xmlns="http://www.w3.org/2000/svg" xmlns:xlink="http://www.w3.org/1999/xlink">
<g id="graph0" class="graph" transform="scale(1 1) rotate(0) translate(4 192)">
<title>sensor.h</title>
<!-- Node1 -->
<g id="node1" class="node"><title>Node1</title>
<polygon fill="#bfbfbf" stroke="black" points="217.5,-168.5 217.5,-187.5 271.5,-187.5 271.5,-168.5 217.5,-168.5"/>
<text text-anchor="middle" x="244.5" y="-175.5" font-family="Helvetica,sans-Serif" font-size="10.00">sensor.h</text>
</g>
<!-- Node2 -->
<g id="node2" class="node"><title>Node2</title>
<g id="a_node2"><a xlink:href="attitudesensor_8h.html" target="_top" xlink:title="attitudesensor.h">
<polygon fill="none" stroke="black" points="16.5,-112.5 16.5,-131.5 102.5,-131.5 102.5,-112.5 16.5,-112.5"/>
<text text-anchor="middle" x="59.5" y="-119.5" font-family="Helvetica,sans-Serif" font-size="10.00">attitudesensor.h</text>
</a>
</g>
</g>
<!-- Node1&#45;&gt;Node2 -->
<g id="edge1" class="edge"><title>Node1&#45;&gt;Node2</title>
<path fill="none" stroke="midnightblue" d="M207.381,-166.165C172.45,-155.969 120.843,-140.906 88.7436,-131.536"/>
<polygon fill="midnightblue" stroke="midnightblue" points="206.622,-169.59 217.203,-169.032 208.584,-162.87 206.622,-169.59"/>
</g>
<!-- Node4 -->
<g id="node4" class="node"><title>Node4</title>
<g id="a_node4"><a xlink:href="finken_8h.html" target="_top" xlink:title="header for the finken implementation ">
<polygon fill="none" stroke="black" points="192,-56.5 192,-75.5 243,-75.5 243,-56.5 192,-56.5"/>
<text text-anchor="middle" x="217.5" y="-63.5" font-family="Helvetica,sans-Serif" font-size="10.00">finken.h</text>
</a>
</g>
</g>
<!-- Node1&#45;&gt;Node4 -->
<g id="edge3" class="edge"><title>Node1&#45;&gt;Node4</title>
<path fill="none" stroke="midnightblue" d="M237.834,-158.92C234.996,-150.773 231.814,-140.983 229.5,-132 224.404,-112.22 220.593,-88.5215 218.744,-75.9167"/>
<polygon fill="midnightblue" stroke="midnightblue" points="234.592,-160.249 241.264,-168.479 241.181,-157.885 234.592,-160.249"/>
</g>
<!-- Node8 -->
<g id="node8" class="node"><title>Node8</title>
<g id="a_node8"><a xlink:href="sonar_8h.html" target="_top" xlink:title="sonar.h">
<polygon fill="none" stroke="black" points="133,-112.5 133,-131.5 182,-131.5 182,-112.5 133,-112.5"/>
<text text-anchor="middle" x="157.5" y="-119.5" font-family="Helvetica,sans-Serif" font-size="10.00">sonar.h</text>
</a>
</g>
</g>
<!-- Node1&#45;&gt;Node8 -->
<g id="edge7" class="edge"><title>Node1&#45;&gt;Node8</title>
<path fill="none" stroke="midnightblue" d="M221.784,-162.901C205.831,-152.999 185.003,-140.071 171.443,-131.655"/>
<polygon fill="midnightblue" stroke="midnightblue" points="220.18,-166.024 230.522,-168.324 223.871,-160.077 220.18,-166.024"/>
</g>
<!-- Node10 -->
<g id="node10" class="node"><title>Node10</title>
<g id="a_node10"><a xlink:href="heightsensor_8h.html" target="_top" xlink:title="heightsensor.h">
<polygon fill="none" stroke="black" points="238.5,-112.5 238.5,-131.5 318.5,-131.5 318.5,-112.5 238.5,-112.5"/>
<text text-anchor="middle" x="278.5" y="-119.5" font-family="Helvetica,sans-Serif" font-size="10.00">heightsensor.h</text>
</a>
</g>
</g>
<!-- Node1&#45;&gt;Node10 -->
<g id="edge10" class="edge"><title>Node1&#45;&gt;Node10</title>
<path fill="none" stroke="midnightblue" d="M255.477,-159.566C261.327,-150.275 268.27,-139.248 272.99,-131.751"/>
<polygon fill="midnightblue" stroke="midnightblue" points="252.481,-157.756 250.114,-168.083 258.404,-161.486 252.481,-157.756"/>
</g>
<!-- Node12 -->
<g id="node12" class="node"><title>Node12</title>
<g id="a_node12"><a xlink:href="positionsensor_8h.html" target="_top" xlink:title="positionsensor.h">
<polygon fill="none" stroke="black" points="336.5,-112.5 336.5,-131.5 424.5,-131.5 424.5,-112.5 336.5,-112.5"/>
<text text-anchor="middle" x="380.5" y="-119.5" font-family="Helvetica,sans-Serif" font-size="10.00">positionsensor.h</text>
</a>
</g>
</g>
<!-- Node1&#45;&gt;Node12 -->
<g id="edge13" class="edge"><title>Node1&#45;&gt;Node12</title>
<path fill="none" stroke="midnightblue" d="M275.635,-164.638C301.157,-154.504 336.609,-140.427 359.051,-131.516"/>
<polygon fill="midnightblue" stroke="midnightblue" points="274.052,-161.5 266.05,-168.444 276.635,-168.006 274.052,-161.5"/>
</g>
<!-- Node14 -->
<g id="node14" class="node"><title>Node14</title>
<g id="a_node14"><a xlink:href="sensor_8cpp.html" target="_top" xlink:title="sensor.cpp">
<polygon fill="none" stroke="black" points="443,-112.5 443,-131.5 508,-131.5 508,-112.5 443,-112.5"/>
<text text-anchor="middle" x="475.5" y="-119.5" font-family="Helvetica,sans-Serif" font-size="10.00">sensor.cpp</text>
</a>
</g>
</g>
<!-- Node1&#45;&gt;Node14 -->
<g id="edge17" class="edge"><title>Node1&#45;&gt;Node14</title>
<path fill="none" stroke="midnightblue" d="M281.775,-168.286C326.421,-157.85 400.489,-140.535 442.935,-130.613"/>
<polygon fill="midnightblue" stroke="midnightblue" points="280.847,-164.909 271.906,-170.593 282.44,-171.725 280.847,-164.909"/>
</g>
<!-- Node3 -->
<g id="node3" class="node"><title>Node3</title>
<g id="a_node3"><a xlink:href="attitudesensor_8cpp.html" target="_top" xlink:title="attitudesensor.cpp">
<polygon fill="none" stroke="black" points="0,-56.5 0,-75.5 97,-75.5 97,-56.5 0,-56.5"/>
<text text-anchor="middle" x="48.5" y="-63.5" font-family="Helvetica,sans-Serif" font-size="10.00">attitudesensor.cpp</text>
</a>
</g>
</g>
<!-- Node2&#45;&gt;Node3 -->
<g id="edge2" class="edge"><title>Node2&#45;&gt;Node3</title>
<path fill="none" stroke="midnightblue" d="M55.6501,-102.101C53.8239,-93.1357 51.7303,-82.8579 50.2826,-75.7511"/>
<polygon fill="midnightblue" stroke="midnightblue" points="52.2579,-102.983 57.6836,-112.083 59.117,-101.586 52.2579,-102.983"/>
</g>
<!-- Node5 -->
<g id="node5" class="node"><title>Node5</title>
<g id="a_node5"><a xlink:href="finken_8cpp.html" target="_top" xlink:title="finken.cpp">
<polygon fill="none" stroke="black" points="203.5,-0.5 203.5,-19.5 265.5,-19.5 265.5,-0.5 203.5,-0.5"/>
<text text-anchor="middle" x="234.5" y="-7.5" font-family="Helvetica,sans-Serif" font-size="10.00">finken.cpp</text>
</a>
</g>
</g>
<!-- Node4&#45;&gt;Node5 -->
<g id="edge4" class="edge"><title>Node4&#45;&gt;Node5</title>
<path fill="none" stroke="midnightblue" d="M223.357,-46.3956C226.201,-37.362 229.483,-26.936 231.745,-19.7511"/>
<polygon fill="midnightblue" stroke="midnightblue" points="219.972,-45.4935 220.307,-56.083 226.649,-47.5955 219.972,-45.4935"/>
</g>
<!-- Node6 -->
<g id="node6" class="node"><title>Node6</title>
<g id="a_node6"><a xlink:href="finkenplugin_8cpp.html" target="_top" xlink:title="finkenplugin.cpp">
<polygon fill="none" stroke="black" points="319,-0.5 319,-19.5 406,-19.5 406,-0.5 319,-0.5"/>
<text text-anchor="middle" x="362.5" y="-7.5" font-family="Helvetica,sans-Serif" font-size="10.00">finkenplugin.cpp</text>
</a>
</g>
</g>
<!-- Node4&#45;&gt;Node6 -->
<g id="edge5" class="edge"><title>Node4&#45;&gt;Node6</title>
<path fill="none" stroke="midnightblue" d="M249.975,-52.9058C277.236,-42.7536 315.492,-28.5063 339.632,-19.5164"/>
<polygon fill="midnightblue" stroke="midnightblue" points="248.625,-49.6736 240.476,-56.4435 251.068,-56.2334 248.625,-49.6736"/>
</g>
<!-- Node7 -->
<g id="node7" class="node"><title>Node7</title>
<g id="a_node7"><a xlink:href="skeleton_8cpp.html" target="_top" xlink:title="provides the basic functionality for communication with the running vrep Simulation&quot; ...">
<polygon fill="none" stroke="black" points="113.5,-0.5 113.5,-19.5 185.5,-19.5 185.5,-0.5 113.5,-0.5"/>
<text text-anchor="middle" x="149.5" y="-7.5" font-family="Helvetica,sans-Serif" font-size="10.00">skeleton.cpp</text>
</a>
</g>
</g>
<!-- Node4&#45;&gt;Node7 -->
<g id="edge6" class="edge"><title>Node4&#45;&gt;Node7</title>
<path fill="none" stroke="midnightblue" d="M198.738,-50.1008C186.5,-40.3824 170.941,-28.0269 160.624,-19.8339"/>
<polygon fill="midnightblue" stroke="midnightblue" points="196.567,-52.846 206.575,-56.324 200.92,-47.3642 196.567,-52.846"/>
</g>
<!-- Node8&#45;&gt;Node4 -->
<g id="edge8" class="edge"><title>Node8&#45;&gt;Node4</title>
<path fill="none" stroke="midnightblue" d="M174.681,-105.537C185.379,-95.9087 198.756,-83.8694 207.685,-75.8339"/>
<polygon fill="midnightblue" stroke="midnightblue" points="172.232,-103.033 167.14,-112.324 176.914,-108.236 172.232,-103.033"/>
</g>
<!-- Node9 -->
<g id="node9" class="node"><title>Node9</title>
<g id="a_node9"><a xlink:href="sonar_8cpp.html" target="_top" xlink:title="sonar.cpp">
<polygon fill="none" stroke="black" points="115,-56.5 115,-75.5 174,-75.5 174,-56.5 115,-56.5"/>
<text text-anchor="middle" x="144.5" y="-63.5" font-family="Helvetica,sans-Serif" font-size="10.00">sonar.cpp</text>
</a>
</g>
</g>
<!-- Node8&#45;&gt;Node9 -->
<g id="edge9" class="edge"><title>Node8&#45;&gt;Node9</title>
<path fill="none" stroke="midnightblue" d="M152.95,-102.101C150.792,-93.1357 148.318,-82.8579 146.607,-75.7511"/>
<polygon fill="midnightblue" stroke="midnightblue" points="149.61,-103.18 155.353,-112.083 156.415,-101.542 149.61,-103.18"/>
</g>
<!-- Node10&#45;&gt;Node4 -->
<g id="edge11" class="edge"><title>Node10&#45;&gt;Node4</title>
<path fill="none" stroke="midnightblue" d="M261.033,-105.537C250.156,-95.9087 236.556,-83.8694 227.479,-75.8339"/>
<polygon fill="midnightblue" stroke="midnightblue" points="258.892,-108.316 268.699,-112.324 263.532,-103.075 258.892,-108.316"/>
</g>
<!-- Node11 -->
<g id="node11" class="node"><title>Node11</title>
<g id="a_node11"><a xlink:href="heightsensor_8cpp.html" target="_top" xlink:title="heightsensor.cpp">
<polygon fill="none" stroke="black" points="261,-56.5 261,-75.5 352,-75.5 352,-56.5 261,-56.5"/>
<text text-anchor="middle" x="306.5" y="-63.5" font-family="Helvetica,sans-Serif" font-size="10.00">heightsensor.cpp</text>
</a>
</g>
</g>
<!-- Node10&#45;&gt;Node11 -->
<g id="edge12" class="edge"><title>Node10&#45;&gt;Node11</title>
<path fill="none" stroke="midnightblue" d="M287.842,-102.983C292.595,-93.8168 298.156,-83.0922 301.962,-75.7511"/>
<polygon fill="midnightblue" stroke="midnightblue" points="284.62,-101.594 283.124,-112.083 290.834,-104.817 284.62,-101.594"/>
</g>
<!-- Node12&#45;&gt;Node4 -->
<g id="edge14" class="edge"><title>Node12&#45;&gt;Node4</title>
<path fill="none" stroke="midnightblue" d="M344.797,-109.172C314.104,-99.0039 270.581,-84.5852 243.207,-75.5164"/>
<polygon fill="midnightblue" stroke="midnightblue" points="344.079,-112.621 354.672,-112.444 346.28,-105.976 344.079,-112.621"/>
</g>
<!-- Node12&#45;&gt;Node6 -->
<g id="edge15" class="edge"><title>Node12&#45;&gt;Node6</title>
<path fill="none" stroke="midnightblue" d="M377.448,-102.348C373.505,-78.2538 366.805,-37.3079 363.906,-19.5914"/>
<polygon fill="midnightblue" stroke="midnightblue" points="374.019,-103.065 379.088,-112.368 380.927,-101.934 374.019,-103.065"/>
</g>
<!-- Node13 -->
<g id="node13" class="node"><title>Node13</title>
<g id="a_node13"><a xlink:href="positionsensor_8cpp.html" target="_top" xlink:title="positionsensor.cpp">
<polygon fill="none" stroke="black" points="408.5,-56.5 408.5,-75.5 506.5,-75.5 506.5,-56.5 408.5,-56.5"/>
<text text-anchor="middle" x="457.5" y="-63.5" font-family="Helvetica,sans-Serif" font-size="10.00">positionsensor.cpp</text>
</a>
</g>
</g>
<!-- Node12&#45;&gt;Node13 -->
<g id="edge16" class="edge"><title>Node12&#45;&gt;Node13</title>
<path fill="none" stroke="midnightblue" d="M401.401,-106.342C415.411,-96.5169 433.383,-83.9132 445.159,-75.6545"/>
<polygon fill="midnightblue" stroke="midnightblue" points="399.049,-103.717 392.871,-112.324 403.068,-109.448 399.049,-103.717"/>
</g>
</g>
</svg>
