<?xml version="1.0" encoding="UTF-8" standalone="no"?>
<!DOCTYPE svg PUBLIC "-//W3C//DTD SVG 1.1//EN"
 "http://www.w3.org/Graphics/SVG/1.1/DTD/svg11.dtd">
<!-- Generated by graphviz version 2.38.0 (20140413.2041)
 -->
<!-- Title: v_repMessage Pages: 1 -->
<!--zoomable 686 -->
<svg id="main" version="1.1" xmlns="http://www.w3.org/2000/svg" xmlns:xlink="http://www.w3.org/1999/xlink" xml:space="preserve" onload="init(evt)">
<style type="text/css"><![CDATA[
.edge:hover path { stroke: red; }
.edge:hover polygon { stroke: red; fill: red; }
]]></style>
<script type="text/javascript"><![CDATA[
var edges = document.getElementsByTagName('g');
if (edges && edges.length) {
  for (var i=0;i<edges.length;i++) {
    if (edges[i].id.substr(0,4)=='edge') {
      edges[i].setAttribute('class','edge');
    }
  }
}
]]></script>
        <defs>
                <circle id="rim" cx="0" cy="0" r="7"/>
                <circle id="rim2" cx="0" cy="0" r="3.5"/>
                <g id="zoomPlus">
                        <use xlink:href="#rim" fill="#404040">
                                <set attributeName="fill" to="#808080" begin="zoomplus.mouseover" end="zoomplus.mouseout"/>
                        </use>
                        <path d="M-4,0h8M0,-4v8" fill="none" stroke="white" stroke-width="1.5" pointer-events="none"/>
                </g>
                <g id="zoomMin">
                        <use xlink:href="#rim" fill="#404040">
                                <set attributeName="fill" to="#808080" begin="zoomminus.mouseover" end="zoomminus.mouseout"/>
                        </use>
                        <path d="M-4,0h8" fill="none" stroke="white" stroke-width="1.5" pointer-events="none"/>
                </g>
                <g id="dirArrow">
                        <path fill="none" stroke="white" stroke-width="1.5" d="M0,-3.0v7 M-2.5,-0.5L0,-3.0L2.5,-0.5"/>
                </g>
               <g id="resetDef">
                       <use xlink:href="#rim2" fill="#404040">
                               <set attributeName="fill" to="#808080" begin="reset.mouseover" end="reset.mouseout"/>
                       </use>
               </g>
        </defs>

<script type="text/javascript">
var viewWidth = 294;
var viewHeight = 686;
var sectionId = 'dynsection-3';
</script>
<script xlink:href="svgpan.js"/>
<svg id="graph" class="graph">
<g id="viewport">
<title>v_repMessage</title>
<!-- Node1 -->
<g id="node1" class="node"><title>Node1</title>
<polygon fill="#bfbfbf" stroke="black" points="0,-323.5 0,-342.5 80,-342.5 80,-323.5 0,-323.5"/>
<text text-anchor="middle" x="40" y="-330.5" font-family="Helvetica,sans-Serif" font-size="10.00">v_repMessage</text>
</g>
<!-- Node2 -->
<g id="node2" class="node"><title>Node2</title>
<g id="a_node2"><a xlink:href="classVREPPlugin.html#a6c54bebcd2d0c09e7a20dd72ae82ec71" target="_top" xlink:title="VREPPlugin::getInstance">
<polygon fill="none" stroke="black" points="137,-658.5 137,-677.5 265,-677.5 265,-658.5 137,-658.5"/>
<text text-anchor="middle" x="201" y="-665.5" font-family="Helvetica,sans-Serif" font-size="10.00">VREPPlugin::getInstance</text>
</a>
</g>
</g>
<!-- Node1&#45;&gt;Node2 -->
<g id="edge1" class="edge"><title>Node1&#45;&gt;Node2</title>
<path fill="none" stroke="midnightblue" d="M41.918,-342.514C46.723,-390.34 70.5084,-603.987 116,-649 119.471,-652.434 123.423,-655.302 127.677,-657.691"/>
<polygon fill="midnightblue" stroke="midnightblue" points="126.236,-660.88 136.777,-661.951 129.204,-654.541 126.236,-660.88"/>
</g>
<!-- Node3 -->
<g id="node3" class="node"><title>Node3</title>
<g id="a_node3"><a xlink:href="classVREPPlugin.html#aae582606dda4aff564d102358b9af579" target="_top" xlink:title="VREPPlugin::refreshDialog">
<polygon fill="none" stroke="black" points="133.5,-620.5 133.5,-639.5 268.5,-639.5 268.5,-620.5 133.5,-620.5"/>
<text text-anchor="middle" x="201" y="-627.5" font-family="Helvetica,sans-Serif" font-size="10.00">VREPPlugin::refreshDialog</text>
</a>
</g>
</g>
<!-- Node1&#45;&gt;Node3 -->
<g id="edge2" class="edge"><title>Node1&#45;&gt;Node3</title>
<path fill="none" stroke="midnightblue" d="M42.2481,-342.529C48.2377,-386.82 75.4256,-572.058 116,-611 118.559,-613.456 121.364,-615.619 124.349,-617.524"/>
<polygon fill="midnightblue" stroke="midnightblue" points="122.709,-620.616 133.179,-622.234 126.003,-614.44 122.709,-620.616"/>
</g>
<!-- Node4 -->
<g id="node4" class="node"><title>Node4</title>
<g id="a_node4"><a xlink:href="classVREPPlugin.html#a320dcb5ed4beaec82975be22b5c20e39" target="_top" xlink:title="VREPPlugin::menuItemSelected">
<polygon fill="none" stroke="black" points="121.5,-582.5 121.5,-601.5 280.5,-601.5 280.5,-582.5 121.5,-582.5"/>
<text text-anchor="middle" x="201" y="-589.5" font-family="Helvetica,sans-Serif" font-size="10.00">VREPPlugin::menuItemSelected</text>
</a>
</g>
</g>
<!-- Node1&#45;&gt;Node4 -->
<g id="edge3" class="edge"><title>Node1&#45;&gt;Node4</title>
<path fill="none" stroke="midnightblue" d="M40.8439,-342.528C40.8023,-378.622 45.7359,-508.172 116,-573 117.525,-574.407 119.131,-575.717 120.805,-576.937"/>
<polygon fill="midnightblue" stroke="midnightblue" points="119.317,-580.127 129.684,-582.312 122.942,-574.139 119.317,-580.127"/>
</g>
<!-- Node5 -->
<g id="node5" class="node"><title>Node5</title>
<g id="a_node5"><a xlink:href="classVREPPlugin.html#a7df55bb967c9f217c77add60bb0d3868" target="_top" xlink:title="VREPPlugin::sceneContent\lChange">
<polygon fill="none" stroke="black" points="132,-533 132,-563 270,-563 270,-533 132,-533"/>
<text text-anchor="start" x="140" y="-551" font-family="Helvetica,sans-Serif" font-size="10.00">VREPPlugin::sceneContent</text>
<text text-anchor="middle" x="201" y="-540" font-family="Helvetica,sans-Serif" font-size="10.00">Change</text>
</a>
</g>
</g>
<!-- Node1&#45;&gt;Node5 -->
<g id="edge4" class="edge"><title>Node1&#45;&gt;Node5</title>
<path fill="none" stroke="midnightblue" d="M41.8769,-342.523C45.236,-373.401 60.0622,-471.713 116,-523 118.208,-525.024 120.573,-526.885 123.058,-528.596"/>
<polygon fill="midnightblue" stroke="midnightblue" points="121.53,-531.759 131.916,-533.852 125.102,-525.739 121.53,-531.759"/>
</g>
<!-- Node6 -->
<g id="node6" class="node"><title>Node6</title>
<g id="a_node6"><a xlink:href="classVREPPlugin.html#affe1c1f37ffa8e04ea93e9eda9399402" target="_top" xlink:title="VREPPlugin::instancePass">
<polygon fill="none" stroke="black" points="132.5,-494.5 132.5,-513.5 269.5,-513.5 269.5,-494.5 132.5,-494.5"/>
<text text-anchor="middle" x="201" y="-501.5" font-family="Helvetica,sans-Serif" font-size="10.00">VREPPlugin::instancePass</text>
</a>
</g>
</g>
<!-- Node1&#45;&gt;Node6 -->
<g id="edge5" class="edge"><title>Node1&#45;&gt;Node6</title>
<path fill="none" stroke="midnightblue" d="M42.7713,-342.64C48.2745,-369.711 67.6962,-446.932 116,-485 118.312,-486.822 120.765,-488.476 123.324,-489.978"/>
<polygon fill="midnightblue" stroke="midnightblue" points="121.872,-493.165 132.381,-494.515 125.008,-486.906 121.872,-493.165"/>
</g>
<!-- Node7 -->
<g id="node7" class="node"><title>Node7</title>
<g id="a_node7"><a xlink:href="classVREPPlugin.html#a5aa8491d41b377e75917ab1273674f9f" target="_top" xlink:title="VREPPlugin::mainScriptCall">
<polygon fill="none" stroke="black" points="130.5,-456.5 130.5,-475.5 271.5,-475.5 271.5,-456.5 130.5,-456.5"/>
<text text-anchor="middle" x="201" y="-463.5" font-family="Helvetica,sans-Serif" font-size="10.00">VREPPlugin::mainScriptCall</text>
</a>
</g>
</g>
<!-- Node1&#45;&gt;Node7 -->
<g id="edge6" class="edge"><title>Node1&#45;&gt;Node7</title>
<path fill="none" stroke="midnightblue" d="M44.477,-342.771C52.9433,-365.074 76.8519,-419.89 116,-447 118.766,-448.915 121.694,-450.641 124.735,-452.195"/>
<polygon fill="midnightblue" stroke="midnightblue" points="123.586,-455.514 134.147,-456.361 126.42,-449.113 123.586,-455.514"/>
</g>
<!-- Node8 -->
<g id="node8" class="node"><title>Node8</title>
<g id="a_node8"><a xlink:href="classVREPPlugin.html#a58c9675c38c6ca1a75047864d3e4253c" target="_top" xlink:title="VREPPlugin::simStart">
<polygon fill="none" stroke="black" points="144,-418.5 144,-437.5 258,-437.5 258,-418.5 144,-418.5"/>
<text text-anchor="middle" x="201" y="-425.5" font-family="Helvetica,sans-Serif" font-size="10.00">VREPPlugin::simStart</text>
</a>
</g>
</g>
<!-- Node1&#45;&gt;Node8 -->
<g id="edge7" class="edge"><title>Node1&#45;&gt;Node8</title>
<path fill="none" stroke="midnightblue" d="M47.616,-342.655C59.3689,-359.019 85.5376,-392.071 116,-409 121.575,-412.098 127.624,-414.691 133.835,-416.862"/>
<polygon fill="midnightblue" stroke="midnightblue" points="133.094,-420.297 143.682,-419.936 135.18,-413.615 133.094,-420.297"/>
</g>
<!-- Node9 -->
<g id="node9" class="node"><title>Node9</title>
<g id="a_node9"><a xlink:href="classVREPPlugin.html#a13ea56c8546d762468b21ebc141b4ca3" target="_top" xlink:title="VREPPlugin::simEnd">
<polygon fill="none" stroke="black" points="146,-380.5 146,-399.5 256,-399.5 256,-380.5 146,-380.5"/>
<text text-anchor="middle" x="201" y="-387.5" font-family="Helvetica,sans-Serif" font-size="10.00">VREPPlugin::simEnd</text>
</a>
</g>
</g>
<!-- Node1&#45;&gt;Node9 -->
<g id="edge8" class="edge"><title>Node1&#45;&gt;Node9</title>
<path fill="none" stroke="midnightblue" d="M57.159,-342.663C72.006,-351.179 94.8509,-363.383 116,-371 123.22,-373.601 130.922,-375.922 138.622,-377.972"/>
<polygon fill="midnightblue" stroke="midnightblue" points="137.786,-381.371 148.338,-380.424 139.498,-374.583 137.786,-381.371"/>
</g>
<!-- Node10 -->
<g id="node10" class="node"><title>Node10</title>
<g id="a_node10"><a xlink:href="classVREPPlugin.html#a345987cf0e2e8aa3af817cc0213e5c7a" target="_top" xlink:title="VREPPlugin::name">
<polygon fill="none" stroke="black" points="150.5,-342.5 150.5,-361.5 251.5,-361.5 251.5,-342.5 150.5,-342.5"/>
<text text-anchor="middle" x="201" y="-349.5" font-family="Helvetica,sans-Serif" font-size="10.00">VREPPlugin::name</text>
</a>
</g>
</g>
<!-- Node1&#45;&gt;Node10 -->
<g id="edge9" class="edge"><title>Node1&#45;&gt;Node10</title>
<path fill="none" stroke="midnightblue" d="M80.3034,-337.697C98.3976,-339.859 120.262,-342.472 140.326,-344.869"/>
<polygon fill="midnightblue" stroke="midnightblue" points="139.97,-348.351 150.315,-346.063 140.801,-341.401 139.97,-348.351"/>
</g>
<!-- Node11 -->
<g id="node11" class="node"><title>Node11</title>
<g id="a_node11"><a xlink:href="classVREPPlugin.html#a40ededcae0889e8f8ecdf99d0f455179" target="_top" xlink:title="VREPPlugin::open">
<polygon fill="none" stroke="black" points="152,-304.5 152,-323.5 250,-323.5 250,-304.5 152,-304.5"/>
<text text-anchor="middle" x="201" y="-311.5" font-family="Helvetica,sans-Serif" font-size="10.00">VREPPlugin::open</text>
</a>
</g>
</g>
<!-- Node1&#45;&gt;Node11 -->
<g id="edge10" class="edge"><title>Node1&#45;&gt;Node11</title>
<path fill="none" stroke="midnightblue" d="M80.3034,-328.303C98.7909,-326.094 121.214,-323.415 141.632,-320.975"/>
<polygon fill="midnightblue" stroke="midnightblue" points="142.267,-324.424 151.781,-319.762 141.436,-317.473 142.267,-324.424"/>
</g>
<!-- Node12 -->
<g id="node12" class="node"><title>Node12</title>
<g id="a_node12"><a xlink:href="classVREPPlugin.html#a048e1fbf7b4b5b7b96ea6ec132218e12" target="_top" xlink:title="VREPPlugin::action">
<polygon fill="none" stroke="black" points="149,-266.5 149,-285.5 253,-285.5 253,-266.5 149,-266.5"/>
<text text-anchor="middle" x="201" y="-273.5" font-family="Helvetica,sans-Serif" font-size="10.00">VREPPlugin::action</text>
</a>
</g>
</g>
<!-- Node1&#45;&gt;Node12 -->
<g id="edge11" class="edge"><title>Node1&#45;&gt;Node12</title>
<path fill="none" stroke="midnightblue" d="M57.159,-323.337C72.006,-314.821 94.8509,-302.617 116,-295 123.319,-292.364 131.133,-290.014 138.939,-287.944"/>
<polygon fill="midnightblue" stroke="midnightblue" points="139.937,-291.302 148.783,-285.47 138.231,-284.513 139.937,-291.302"/>
</g>
<!-- Node13 -->
<g id="node13" class="node"><title>Node13</title>
<g id="a_node13"><a xlink:href="classVREPPlugin.html#af9fc2e6b9adf1436fc06e2555eaa3c2b" target="_top" xlink:title="VREPPlugin::close">
<polygon fill="none" stroke="black" points="150.5,-228.5 150.5,-247.5 251.5,-247.5 251.5,-228.5 150.5,-228.5"/>
<text text-anchor="middle" x="201" y="-235.5" font-family="Helvetica,sans-Serif" font-size="10.00">VREPPlugin::close</text>
</a>
</g>
</g>
<!-- Node1&#45;&gt;Node13 -->
<g id="edge12" class="edge"><title>Node1&#45;&gt;Node13</title>
<path fill="none" stroke="midnightblue" d="M47.616,-323.345C59.3689,-306.981 85.5376,-273.929 116,-257 123.596,-252.778 132.074,-249.494 140.64,-246.94"/>
<polygon fill="midnightblue" stroke="midnightblue" points="141.552,-250.319 150.308,-244.354 139.743,-243.557 141.552,-250.319"/>
</g>
<!-- Node14 -->
<g id="node14" class="node"><title>Node14</title>
<g id="a_node14"><a xlink:href="classVREPPlugin.html#ae288b5fdec3fee292f23e61a021f4f5e" target="_top" xlink:title="VREPPlugin::instanceSwitch">
<polygon fill="none" stroke="black" points="129,-190.5 129,-209.5 273,-209.5 273,-190.5 129,-190.5"/>
<text text-anchor="middle" x="201" y="-197.5" font-family="Helvetica,sans-Serif" font-size="10.00">VREPPlugin::instanceSwitch</text>
</a>
</g>
</g>
<!-- Node1&#45;&gt;Node14 -->
<g id="edge13" class="edge"><title>Node1&#45;&gt;Node14</title>
<path fill="none" stroke="midnightblue" d="M44.477,-323.229C52.9433,-300.926 76.8519,-246.11 116,-219 118.766,-217.085 121.694,-215.359 124.735,-213.805"/>
<polygon fill="midnightblue" stroke="midnightblue" points="126.42,-216.887 134.147,-209.639 123.586,-210.486 126.42,-216.887"/>
</g>
<!-- Node15 -->
<g id="node15" class="node"><title>Node15</title>
<g id="a_node15"><a xlink:href="classVREPPlugin.html#aa04f0d2bb1b0d73a46a99e699e11830f" target="_top" xlink:title="VREPPlugin::broadcast">
<polygon fill="none" stroke="black" points="141,-152.5 141,-171.5 261,-171.5 261,-152.5 141,-152.5"/>
<text text-anchor="middle" x="201" y="-159.5" font-family="Helvetica,sans-Serif" font-size="10.00">VREPPlugin::broadcast</text>
</a>
</g>
</g>
<!-- Node1&#45;&gt;Node15 -->
<g id="edge14" class="edge"><title>Node1&#45;&gt;Node15</title>
<path fill="none" stroke="midnightblue" d="M42.7713,-323.36C48.2745,-296.289 67.6962,-219.068 116,-181 120.664,-177.324 125.903,-174.332 131.426,-171.899"/>
<polygon fill="midnightblue" stroke="midnightblue" points="132.817,-175.115 140.938,-168.311 130.346,-168.565 132.817,-175.115"/>
</g>
<!-- Node16 -->
<g id="node16" class="node"><title>Node16</title>
<g id="a_node16"><a xlink:href="classVREPPlugin.html#af6a19ea1a3fbe91a86df1e92e6f623a2" target="_top" xlink:title="VREPPlugin::save">
<polygon fill="none" stroke="black" points="152,-114.5 152,-133.5 250,-133.5 250,-114.5 152,-114.5"/>
<text text-anchor="middle" x="201" y="-121.5" font-family="Helvetica,sans-Serif" font-size="10.00">VREPPlugin::save</text>
</a>
</g>
</g>
<!-- Node1&#45;&gt;Node16 -->
<g id="edge15" class="edge"><title>Node1&#45;&gt;Node16</title>
<path fill="none" stroke="midnightblue" d="M41.741,-323.324C44.6841,-291.976 58.3801,-192.39 116,-143 123.414,-136.645 132.513,-132.295 141.954,-129.342"/>
<polygon fill="midnightblue" stroke="midnightblue" points="143.075,-132.667 151.86,-126.745 141.299,-125.896 143.075,-132.667"/>
</g>
<!-- Node17 -->
<g id="node17" class="node"><title>Node17</title>
<g id="a_node17"><a xlink:href="classVREPPlugin.html#a77e10632cbc7ae0581a151daea83ab1f" target="_top" xlink:title="VREPPlugin::sceneLoad">
<polygon fill="none" stroke="black" points="138.5,-76.5 138.5,-95.5 263.5,-95.5 263.5,-76.5 138.5,-76.5"/>
<text text-anchor="middle" x="201" y="-83.5" font-family="Helvetica,sans-Serif" font-size="10.00">VREPPlugin::sceneLoad</text>
</a>
</g>
</g>
<!-- Node1&#45;&gt;Node17 -->
<g id="edge16" class="edge"><title>Node1&#45;&gt;Node17</title>
<path fill="none" stroke="midnightblue" d="M41.0235,-323.459C41.6565,-288.475 48.7779,-166.1 116,-105 119.911,-101.446 124.342,-98.5105 129.077,-96.0915"/>
<polygon fill="midnightblue" stroke="midnightblue" points="130.689,-99.2085 138.498,-92.0484 127.928,-92.7759 130.689,-99.2085"/>
</g>
<!-- Node18 -->
<g id="node18" class="node"><title>Node18</title>
<g id="a_node18"><a xlink:href="classVREPPlugin.html#a3fce674766334a4ad6c63a179dff64ae" target="_top" xlink:title="VREPPlugin::render">
<polygon fill="none" stroke="black" points="149,-38.5 149,-57.5 253,-57.5 253,-38.5 149,-38.5"/>
<text text-anchor="middle" x="201" y="-45.5" font-family="Helvetica,sans-Serif" font-size="10.00">VREPPlugin::render</text>
</a>
</g>
</g>
<!-- Node1&#45;&gt;Node18 -->
<g id="edge17" class="edge"><title>Node1&#45;&gt;Node18</title>
<path fill="none" stroke="midnightblue" d="M40.4994,-323.275C39.0741,-284.54 39.2561,-139.826 116,-67 122.462,-60.8682 130.465,-56.5614 138.943,-53.5623"/>
<polygon fill="midnightblue" stroke="midnightblue" points="140.054,-56.8839 148.66,-50.7042 138.078,-50.1684 140.054,-56.8839"/>
</g>
<!-- Node19 -->
<g id="node19" class="node"><title>Node19</title>
<g id="a_node19"><a xlink:href="classVREPPlugin.html#af3a92d9202afe61bf4979d0e24bd5425" target="_top" xlink:title="VREPPlugin::handleOtherMessage">
<polygon fill="none" stroke="black" points="116,-0.5 116,-19.5 286,-19.5 286,-0.5 116,-0.5"/>
<text text-anchor="middle" x="201" y="-7.5" font-family="Helvetica,sans-Serif" font-size="10.00">VREPPlugin::handleOtherMessage</text>
</a>
</g>
</g>
<!-- Node1&#45;&gt;Node19 -->
<g id="edge18" class="edge"><title>Node1&#45;&gt;Node19</title>
<path fill="none" stroke="midnightblue" d="M42.0417,-323.226C47.2695,-276.006 72.1445,-72.0114 116,-29 117.441,-27.5867 118.964,-26.2695 120.555,-25.0424"/>
<polygon fill="midnightblue" stroke="midnightblue" points="122.488,-27.9614 129.03,-19.6281 118.719,-22.0624 122.488,-27.9614"/>
</g>
</g>
</svg>
        <g id="navigator" transform="translate(0 0)" fill="#404254">
                <rect fill="#f2f5e9" fill-opacity="0.5" stroke="#606060" stroke-width=".5" x="0" y="0" width="60" height="60"/>
                <use id="zoomplus" xlink:href="#zoomPlus" x="17" y="9" onmousedown="handleZoom(evt,'in')"/>
                <use id="zoomminus" xlink:href="#zoomMin" x="42" y="9" onmousedown="handleZoom(evt,'out')"/>
                <use id="reset" xlink:href="#resetDef" x="30" y="36" onmousedown="handleReset()"/>
                <g id="arrowUp" xlink:href="#dirArrow" transform="translate(30 24)" onmousedown="handlePan(0,-1)">
                  <use xlink:href="#rim" fill="#404040">
                        <set attributeName="fill" to="#808080" begin="arrowUp.mouseover" end="arrowUp.mouseout"/>
                  </use>
                  <path fill="none" stroke="white" stroke-width="1.5" d="M0,-3.0v7 M-2.5,-0.5L0,-3.0L2.5,-0.5"/>
                </g>
                <g id="arrowRight" xlink:href="#dirArrow" transform="rotate(90) translate(36 -43)" onmousedown="handlePan(1,0)">
                  <use xlink:href="#rim" fill="#404040">
                        <set attributeName="fill" to="#808080" begin="arrowRight.mouseover" end="arrowRight.mouseout"/>
                  </use>
                  <path fill="none" stroke="white" stroke-width="1.5" d="M0,-3.0v7 M-2.5,-0.5L0,-3.0L2.5,-0.5"/>
                </g>
                <g id="arrowDown" xlink:href="#dirArrow" transform="rotate(180) translate(-30 -48)" onmousedown="handlePan(0,1)">
                  <use xlink:href="#rim" fill="#404040">
                        <set attributeName="fill" to="#808080" begin="arrowDown.mouseover" end="arrowDown.mouseout"/>
                  </use>
                  <path fill="none" stroke="white" stroke-width="1.5" d="M0,-3.0v7 M-2.5,-0.5L0,-3.0L2.5,-0.5"/>
                </g>
                <g id="arrowLeft" xlink:href="#dirArrow" transform="rotate(270) translate(-36 17)" onmousedown="handlePan(-1,0)">
                  <use xlink:href="#rim" fill="#404040">
                        <set attributeName="fill" to="#808080" begin="arrowLeft.mouseover" end="arrowLeft.mouseout"/>
                  </use>
                  <path fill="none" stroke="white" stroke-width="1.5" d="M0,-3.0v7 M-2.5,-0.5L0,-3.0L2.5,-0.5"/>
                </g>
        </g>
        <svg viewBox="0 0 15 15" width="100%" height="30px" preserveAspectRatio="xMaxYMin meet">
         <g id="arrow_out" transform="scale(0.3 0.3)">
          <a xlink:href="skeleton_8cpp_a2edf50a75bd96c6ed31c1da66828af6e_cgraph_org.svg" target="_base">
           <rect id="button" ry="5" rx="5" y="6" x="6" height="38" width="38"
                fill="#f2f5e9" fill-opacity="0.5" stroke="#606060" stroke-width="1.0"/>
           <path id="arrow"
             d="M 11.500037,31.436501 C 11.940474,20.09759 22.043105,11.32322 32.158766,21.979434 L 37.068811,17.246167 C 37.068811,17.246167 37.088388,32 37.088388,32 L 22.160133,31.978069 C 22.160133,31.978069 26.997745,27.140456 26.997745,27.140456 C 18.528582,18.264221 13.291696,25.230495 11.500037,31.436501 z"
             style="fill:#404040;"/>
          </a>
         </g>
        </svg>
</svg>
