<?xml version="1.0" encoding="UTF-8" standalone="no"?>
<!DOCTYPE svg PUBLIC "-//W3C//DTD SVG 1.1//EN"
 "http://www.w3.org/Graphics/SVG/1.1/DTD/svg11.dtd">
<!-- Generated by graphviz version 2.38.0 (20140413.2041)
 -->
<!-- Title: v_repStart Pages: 1 -->
<svg width="257pt" height="180pt"
 viewBox="0.00 0.00 257.00 180.00" xmlns="http://www.w3.org/2000/svg" xmlns:xlink="http://www.w3.org/1999/xlink">
<g id="graph0" class="graph" transform="scale(1 1) rotate(0) translate(4 176)">
<title>v_repStart</title>
<!-- Node1 -->
<g id="node1" class="node"><title>Node1</title>
<polygon fill="#bfbfbf" stroke="black" points="0,-76.5 0,-95.5 62,-95.5 62,-76.5 0,-76.5"/>
<text text-anchor="middle" x="31" y="-83.5" font-family="Helvetica,sans-Serif" font-size="10.00">v_repStart</text>
</g>
<!-- Node2 -->
<g id="node2" class="node"><title>Node2</title>
<g id="a_node2"><a xlink:href="classVREPPlugin.html#a6c54bebcd2d0c09e7a20dd72ae82ec71" target="_top" xlink:title="VREPPlugin::getInstance">
<polygon fill="none" stroke="black" points="109.5,-152.5 109.5,-171.5 237.5,-171.5 237.5,-152.5 109.5,-152.5"/>
<text text-anchor="middle" x="173.5" y="-159.5" font-family="Helvetica,sans-Serif" font-size="10.00">VREPPlugin::getInstance</text>
</a>
</g>
</g>
<!-- Node1&#45;&gt;Node2 -->
<g id="edge1" class="edge"><title>Node1&#45;&gt;Node2</title>
<path fill="none" stroke="midnightblue" d="M40.3869,-95.6081C52.0406,-108.353 74.3774,-130.671 98,-143 102.471,-145.333 107.245,-147.392 112.135,-149.206"/>
<polygon fill="midnightblue" stroke="midnightblue" points="111.038,-152.53 121.633,-152.401 113.27,-145.895 111.038,-152.53"/>
</g>
<!-- Node3 -->
<g id="node3" class="node"><title>Node3</title>
<g id="a_node3"><a xlink:href="classVREPPlugin.html#a345987cf0e2e8aa3af817cc0213e5c7a" target="_top" xlink:title="VREPPlugin::name">
<polygon fill="none" stroke="black" points="123,-114.5 123,-133.5 224,-133.5 224,-114.5 123,-114.5"/>
<text text-anchor="middle" x="173.5" y="-121.5" font-family="Helvetica,sans-Serif" font-size="10.00">VREPPlugin::name</text>
</a>
</g>
</g>
<!-- Node1&#45;&gt;Node3 -->
<g id="edge2" class="edge"><title>Node1&#45;&gt;Node3</title>
<path fill="none" stroke="midnightblue" d="M62.1737,-94.8965C73.4005,-98.1512 86.2624,-101.815 98,-105 106.517,-107.311 115.604,-109.696 124.399,-111.963"/>
<polygon fill="midnightblue" stroke="midnightblue" points="123.602,-115.371 134.158,-114.46 125.338,-108.59 123.602,-115.371"/>
</g>
<!-- Node4 -->
<g id="node4" class="node"><title>Node4</title>
<g id="a_node4"><a xlink:href="skeleton_8cpp.html#a8b710f83dc7306a1f10184e7c50cc921" target="_top" xlink:title="Function to register any FINken present in the vrep scene with the plugin. ">
<polygon fill="none" stroke="black" points="98,-76.5 98,-95.5 249,-95.5 249,-76.5 98,-76.5"/>
<text text-anchor="middle" x="173.5" y="-83.5" font-family="Helvetica,sans-Serif" font-size="10.00">LUA_REGISTER_CALLBACK</text>
</a>
</g>
</g>
<!-- Node1&#45;&gt;Node4 -->
<g id="edge3" class="edge"><title>Node1&#45;&gt;Node4</title>
<path fill="none" stroke="midnightblue" d="M62.1408,-86C69.957,-86 78.7695,-86 87.9208,-86"/>
<polygon fill="midnightblue" stroke="midnightblue" points="87.9529,-89.5001 97.9529,-86 87.9528,-82.5001 87.9529,-89.5001"/>
</g>
<!-- Node5 -->
<g id="node5" class="node"><title>Node5</title>
<g id="a_node5"><a xlink:href="classVREPPlugin.html#a4149b72b671ad72f63e9a75c58c0d628" target="_top" xlink:title="VREPPlugin::load">
<polygon fill="none" stroke="black" points="126,-38.5 126,-57.5 221,-57.5 221,-38.5 126,-38.5"/>
<text text-anchor="middle" x="173.5" y="-45.5" font-family="Helvetica,sans-Serif" font-size="10.00">VREPPlugin::load</text>
</a>
</g>
</g>
<!-- Node1&#45;&gt;Node5 -->
<g id="edge4" class="edge"><title>Node1&#45;&gt;Node5</title>
<path fill="none" stroke="midnightblue" d="M62.1737,-77.1035C73.4005,-73.8488 86.2624,-70.1854 98,-67 106.517,-64.6885 115.604,-62.3036 124.399,-60.0375"/>
<polygon fill="midnightblue" stroke="midnightblue" points="125.338,-63.41 134.158,-57.5396 123.602,-56.6286 125.338,-63.41"/>
</g>
<!-- Node6 -->
<g id="node6" class="node"><title>Node6</title>
<g id="a_node6"><a xlink:href="classVREPPlugin.html#ae5e6764e97874aa134447122bbadbf2a" target="_top" xlink:title="VREPPlugin::version">
<polygon fill="none" stroke="black" points="119,-0.5 119,-19.5 228,-19.5 228,-0.5 119,-0.5"/>
<text text-anchor="middle" x="173.5" y="-7.5" font-family="Helvetica,sans-Serif" font-size="10.00">VREPPlugin::version</text>
</a>
</g>
</g>
<!-- Node1&#45;&gt;Node6 -->
<g id="edge5" class="edge"><title>Node1&#45;&gt;Node6</title>
<path fill="none" stroke="midnightblue" d="M40.3869,-76.3919C52.0406,-63.6472 74.3774,-41.3292 98,-29 102.471,-26.6666 107.245,-24.6081 112.135,-22.7942"/>
<polygon fill="midnightblue" stroke="midnightblue" points="113.27,-26.105 121.633,-19.5994 111.038,-19.4702 113.27,-26.105"/>
</g>
</g>
</svg>
