<?xml version="1.0" encoding="UTF-8" standalone="no"?>
<!DOCTYPE svg PUBLIC "-//W3C//DTD SVG 1.1//EN"
 "http://www.w3.org/Graphics/SVG/1.1/DTD/svg11.dtd">
<!-- Generated by graphviz version 2.38.0 (20140413.2041)
 -->
<!-- Title: skeleton.cpp Pages: 1 -->
<!--zoomable 263 -->
<svg id="main" version="1.1" xmlns="http://www.w3.org/2000/svg" xmlns:xlink="http://www.w3.org/1999/xlink" xml:space="preserve" onload="init(evt)">
<style type="text/css"><![CDATA[
.edge:hover path { stroke: red; }
.edge:hover polygon { stroke: red; fill: red; }
]]></style>
<script type="text/javascript"><![CDATA[
var edges = document.getElementsByTagName('g');
if (edges && edges.length) {
  for (var i=0;i<edges.length;i++) {
    if (edges[i].id.substr(0,4)=='edge') {
      edges[i].setAttribute('class','edge');
    }
  }
}
]]></script>
        <defs>
                <circle id="rim" cx="0" cy="0" r="7"/>
                <circle id="rim2" cx="0" cy="0" r="3.5"/>
                <g id="zoomPlus">
                        <use xlink:href="#rim" fill="#404040">
                                <set attributeName="fill" to="#808080" begin="zoomplus.mouseover" end="zoomplus.mouseout"/>
                        </use>
                        <path d="M-4,0h8M0,-4v8" fill="none" stroke="white" stroke-width="1.5" pointer-events="none"/>
                </g>
                <g id="zoomMin">
                        <use xlink:href="#rim" fill="#404040">
                                <set attributeName="fill" to="#808080" begin="zoomminus.mouseover" end="zoomminus.mouseout"/>
                        </use>
                        <path d="M-4,0h8" fill="none" stroke="white" stroke-width="1.5" pointer-events="none"/>
                </g>
                <g id="dirArrow">
                        <path fill="none" stroke="white" stroke-width="1.5" d="M0,-3.0v7 M-2.5,-0.5L0,-3.0L2.5,-0.5"/>
                </g>
               <g id="resetDef">
                       <use xlink:href="#rim2" fill="#404040">
                               <set attributeName="fill" to="#808080" begin="reset.mouseover" end="reset.mouseout"/>
                       </use>
               </g>
        </defs>

<script type="text/javascript">
var viewWidth = 1986;
var viewHeight = 263;
var sectionId = 'dynsection-0';
</script>
<script xlink:href="svgpan.js"/>
<svg id="graph" class="graph">
<g id="viewport">
<title>skeleton.cpp</title>
<!-- Node1 -->
<g id="node1" class="node"><title>Node1</title>
<polygon fill="#bfbfbf" stroke="black" points="776,-235.5 776,-254.5 848,-254.5 848,-235.5 776,-235.5"/>
<text text-anchor="middle" x="812" y="-242.5" font-family="Helvetica,sans-Serif" font-size="10.00">skeleton.cpp</text>
</g>
<!-- Node2 -->
<g id="node2" class="node"><title>Node2</title>
<g id="a_node2"><a xlink:href="vrepplugin_8h.html" target="_top" xlink:title="vrepplugin.h">
<polygon fill="none" stroke="black" points="1908.5,-118 1908.5,-137 1977.5,-137 1977.5,-118 1908.5,-118"/>
<text text-anchor="middle" x="1943" y="-125" font-family="Helvetica,sans-Serif" font-size="10.00">vrepplugin.h</text>
</a>
</g>
</g>
<!-- Node1&#45;&gt;Node2 -->
<g id="edge1" class="edge"><title>Node1&#45;&gt;Node2</title>
<path fill="none" stroke="midnightblue" d="M848.004,-240.783C896.848,-235.672 986.351,-223.643 1059,-199 1077.45,-192.743 1079.17,-183.996 1098,-179 1442.44,-87.5996 1548.5,-207.369 1899,-143 1902.98,-142.269 1907.1,-141.265 1911.14,-140.124"/>
<polygon fill="midnightblue" stroke="midnightblue" points="1912.41,-143.393 1920.92,-137.082 1910.34,-136.709 1912.41,-143.393"/>
</g>
<!-- Node5 -->
<g id="node5" class="node"><title>Node5</title>
<polygon fill="none" stroke="#bfbfbf" points="0,-118 0,-137 62,-137 62,-118 0,-118"/>
<text text-anchor="middle" x="31" y="-125" font-family="Helvetica,sans-Serif" font-size="10.00">v_repLib.h</text>
</g>
<!-- Node1&#45;&gt;Node5 -->
<g id="edge4" class="edge"><title>Node1&#45;&gt;Node5</title>
<path fill="none" stroke="midnightblue" d="M775.906,-242.068C667.468,-235.632 335.671,-211.321 70,-143 67.1797,-142.275 64.2806,-141.418 61.3974,-140.49"/>
<polygon fill="midnightblue" stroke="midnightblue" points="62.3885,-137.129 51.7936,-137.143 60.0849,-143.739 62.3885,-137.129"/>
</g>
<!-- Node6 -->
<g id="node6" class="node"><title>Node6</title>
<polygon fill="none" stroke="#bfbfbf" points="1106.5,-179.5 1106.5,-198.5 1213.5,-198.5 1213.5,-179.5 1106.5,-179.5"/>
<text text-anchor="middle" x="1160" y="-186.5" font-family="Helvetica,sans-Serif" font-size="10.00">scriptFunctionData.h</text>
</g>
<!-- Node1&#45;&gt;Node6 -->
<g id="edge5" class="edge"><title>Node1&#45;&gt;Node6</title>
<path fill="none" stroke="midnightblue" d="M848.257,-238.374C906.949,-229.267 1023.52,-211.178 1096.29,-199.886"/>
<polygon fill="midnightblue" stroke="midnightblue" points="1096.91,-203.331 1106.26,-198.339 1095.84,-196.414 1096.91,-203.331"/>
</g>
<!-- Node7 -->
<g id="node7" class="node"><title>Node7</title>
<polygon fill="none" stroke="#bfbfbf" points="79.5,-118 79.5,-137 186.5,-137 186.5,-118 79.5,-118"/>
<text text-anchor="middle" x="133" y="-125" font-family="Helvetica,sans-Serif" font-size="10.00">boost/filesystem.hpp</text>
</g>
<!-- Node1&#45;&gt;Node7 -->
<g id="edge6" class="edge"><title>Node1&#45;&gt;Node7</title>
<path fill="none" stroke="midnightblue" d="M775.936,-238.218C724.891,-229.957 628.681,-214.1 547,-199 502.431,-190.761 491.672,-186.665 447,-179 335.926,-159.942 306.788,-163.657 196,-143 190.063,-141.893 183.838,-140.611 177.708,-139.276"/>
<polygon fill="midnightblue" stroke="midnightblue" points="178.075,-135.771 167.551,-137.001 176.545,-142.602 178.075,-135.771"/>
</g>
<!-- Node8 -->
<g id="node8" class="node"><title>Node8</title>
<polygon fill="none" stroke="#bfbfbf" points="205,-118 205,-137 259,-137 259,-118 205,-118"/>
<text text-anchor="middle" x="232" y="-125" font-family="Helvetica,sans-Serif" font-size="10.00">iostream</text>
</g>
<!-- Node1&#45;&gt;Node8 -->
<g id="edge7" class="edge"><title>Node1&#45;&gt;Node8</title>
<path fill="none" stroke="midnightblue" d="M782.035,-235.483C733.178,-221.86 633.15,-195.071 547,-179 424.092,-156.072 388.966,-174.612 268,-143 265.49,-142.344 262.921,-141.558 260.367,-140.694"/>
<polygon fill="midnightblue" stroke="midnightblue" points="261.344,-137.323 250.751,-137.101 258.893,-143.88 261.344,-137.323"/>
</g>
<!-- Node9 -->
<g id="node9" class="node"><title>Node9</title>
<g id="a_node9"><a xlink:href="finken_8h.html" target="_top" xlink:title="header for the finken implementation ">
<polygon fill="none" stroke="black" points="998.5,-179.5 998.5,-198.5 1049.5,-198.5 1049.5,-179.5 998.5,-179.5"/>
<text text-anchor="middle" x="1024" y="-186.5" font-family="Helvetica,sans-Serif" font-size="10.00">finken.h</text>
</a>
</g>
</g>
<!-- Node1&#45;&gt;Node9 -->
<g id="edge8" class="edge"><title>Node1&#45;&gt;Node9</title>
<path fill="none" stroke="midnightblue" d="M845.592,-235.444C884.58,-225.513 948.602,-209.205 988.419,-199.063"/>
<polygon fill="midnightblue" stroke="midnightblue" points="989.407,-202.423 998.234,-196.563 987.679,-195.64 989.407,-202.423"/>
</g>
<!-- Node3 -->
<g id="node3" class="node"><title>Node3</title>
<polygon fill="none" stroke="#bfbfbf" points="1640.5,-56.5 1640.5,-75.5 1681.5,-75.5 1681.5,-56.5 1640.5,-56.5"/>
<text text-anchor="middle" x="1661" y="-63.5" font-family="Helvetica,sans-Serif" font-size="10.00">string</text>
</g>
<!-- Node2&#45;&gt;Node3 -->
<g id="edge2" class="edge"><title>Node2&#45;&gt;Node3</title>
<path fill="none" stroke="midnightblue" d="M1918.96,-117.946C1912.53,-115.83 1905.54,-113.689 1899,-112 1825.49,-93.027 1737.3,-78.4351 1691.69,-71.4803"/>
<polygon fill="midnightblue" stroke="midnightblue" points="1691.99,-67.9847 1681.58,-69.9566 1690.94,-74.9067 1691.99,-67.9847"/>
</g>
<!-- Node4 -->
<g id="node4" class="node"><title>Node4</title>
<polygon fill="none" stroke="#bfbfbf" points="1250,-0.5 1250,-19.5 1294,-19.5 1294,-0.5 1250,-0.5"/>
<text text-anchor="middle" x="1272" y="-7.5" font-family="Helvetica,sans-Serif" font-size="10.00">vector</text>
</g>
<!-- Node2&#45;&gt;Node4 -->
<g id="edge3" class="edge"><title>Node2&#45;&gt;Node4</title>
<path fill="none" stroke="midnightblue" d="M1917.95,-117.905C1873.05,-102.857 1775.62,-71.8352 1691,-56 1548.38,-29.3118 1375.27,-16.9673 1304.51,-12.7594"/>
<polygon fill="midnightblue" stroke="midnightblue" points="1304.62,-9.26029 1294.44,-12.1749 1304.22,-16.2485 1304.62,-9.26029"/>
</g>
<!-- Node9&#45;&gt;Node4 -->
<g id="edge23" class="edge"><title>Node9&#45;&gt;Node4</title>
<path fill="none" stroke="midnightblue" d="M1049.71,-180.527C1051.5,-180.009 1053.28,-179.496 1055,-179 1110.97,-162.881 1133.69,-176.971 1181,-143 1222.7,-113.056 1251.55,-57.7426 1264.42,-29.158"/>
<polygon fill="midnightblue" stroke="midnightblue" points="1267.79,-30.1865 1268.56,-19.62 1261.37,-27.3972 1267.79,-30.1865"/>
</g>
<!-- Node9&#45;&gt;Node5 -->
<g id="edge24" class="edge"><title>Node9&#45;&gt;Node5</title>
<path fill="none" stroke="midnightblue" d="M998.47,-187.858C865.895,-186.958 254.993,-180.798 70,-143 66.7444,-142.335 63.3995,-141.441 60.1026,-140.421"/>
<polygon fill="midnightblue" stroke="midnightblue" points="61.0878,-137.058 50.493,-137.09 58.7952,-143.672 61.0878,-137.058"/>
</g>
<!-- Node9&#45;&gt;Node7 -->
<g id="edge18" class="edge"><title>Node9&#45;&gt;Node7</title>
<path fill="none" stroke="midnightblue" d="M998.436,-188.206C896.578,-188.689 509.963,-187.326 196,-143 189.205,-142.041 182.063,-140.713 175.126,-139.246"/>
<polygon fill="midnightblue" stroke="midnightblue" points="175.696,-135.788 165.174,-137.027 174.172,-142.62 175.696,-135.788"/>
</g>
<!-- Node9&#45;&gt;Node8 -->
<g id="edge11" class="edge"><title>Node9&#45;&gt;Node8</title>
<path fill="none" stroke="midnightblue" d="M998.25,-187.581C882.731,-185.53 411.673,-175.306 268,-143 265.165,-142.363 262.264,-141.528 259.399,-140.582"/>
<polygon fill="midnightblue" stroke="midnightblue" points="260.54,-137.272 249.947,-137.054 258.092,-143.83 260.54,-137.272"/>
</g>
<!-- Node10 -->
<g id="node10" class="node"><title>Node10</title>
<polygon fill="none" stroke="#bfbfbf" points="1489,-118 1489,-137 1541,-137 1541,-118 1489,-118"/>
<text text-anchor="middle" x="1515" y="-125" font-family="Helvetica,sans-Serif" font-size="10.00">memory</text>
</g>
<!-- Node9&#45;&gt;Node10 -->
<g id="edge9" class="edge"><title>Node9&#45;&gt;Node10</title>
<path fill="none" stroke="midnightblue" d="M1049.72,-181.676C1054.45,-180.667 1059.36,-179.72 1064,-179 1247.39,-150.567 1299.72,-187.03 1480,-143 1482.52,-142.386 1485.09,-141.617 1487.63,-140.757"/>
<polygon fill="midnightblue" stroke="midnightblue" points="1489.09,-143.946 1497.19,-137.112 1486.6,-137.405 1489.09,-143.946"/>
</g>
<!-- Node11 -->
<g id="node11" class="node"><title>Node11</title>
<polygon fill="none" stroke="#bfbfbf" points="1626.5,-118 1626.5,-137 1671.5,-137 1671.5,-118 1626.5,-118"/>
<text text-anchor="middle" x="1649" y="-125" font-family="Helvetica,sans-Serif" font-size="10.00">cstdlib</text>
</g>
<!-- Node9&#45;&gt;Node11 -->
<g id="edge10" class="edge"><title>Node9&#45;&gt;Node11</title>
<path fill="none" stroke="midnightblue" d="M1049.71,-181.593C1054.44,-180.593 1059.35,-179.67 1064,-179 1308.22,-143.811 1379,-204.332 1618,-143 1619.99,-142.49 1622,-141.855 1624,-141.137"/>
<polygon fill="midnightblue" stroke="midnightblue" points="1625.8,-144.172 1633.65,-137.055 1623.08,-137.725 1625.8,-144.172"/>
</g>
<!-- Node12 -->
<g id="node12" class="node"><title>Node12</title>
<polygon fill="none" stroke="#bfbfbf" points="1690,-118 1690,-137 1734,-137 1734,-118 1690,-118"/>
<text text-anchor="middle" x="1712" y="-125" font-family="Helvetica,sans-Serif" font-size="10.00">thread</text>
</g>
<!-- Node9&#45;&gt;Node12 -->
<g id="edge12" class="edge"><title>Node9&#45;&gt;Node12</title>
<path fill="none" stroke="midnightblue" d="M1049.71,-181.568C1054.44,-180.57 1059.35,-179.655 1064,-179 1336.01,-140.724 1414.71,-210.399 1681,-143 1682.99,-142.497 1685,-141.866 1687,-141.151"/>
<polygon fill="midnightblue" stroke="midnightblue" points="1688.8,-144.189 1696.66,-137.077 1686.08,-137.739 1688.8,-144.189"/>
</g>
<!-- Node13 -->
<g id="node13" class="node"><title>Node13</title>
<polygon fill="none" stroke="#bfbfbf" points="1752,-118 1752,-137 1792,-137 1792,-118 1752,-118"/>
<text text-anchor="middle" x="1772" y="-125" font-family="Helvetica,sans-Serif" font-size="10.00">utility</text>
</g>
<!-- Node9&#45;&gt;Node13 -->
<g id="edge13" class="edge"><title>Node9&#45;&gt;Node13</title>
<path fill="none" stroke="midnightblue" d="M1049.7,-181.548C1054.43,-180.552 1059.35,-179.642 1064,-179 1363.36,-137.685 1450.82,-220.196 1743,-143 1744.72,-142.545 1746.46,-141.982 1748.18,-141.343"/>
<polygon fill="midnightblue" stroke="midnightblue" points="1750,-144.366 1757.71,-137.099 1747.15,-137.972 1750,-144.366"/>
</g>
<!-- Node14 -->
<g id="node14" class="node"><title>Node14</title>
<polygon fill="none" stroke="#bfbfbf" points="1810,-118 1810,-137 1890,-137 1890,-118 1810,-118"/>
<text text-anchor="middle" x="1850" y="-125" font-family="Helvetica,sans-Serif" font-size="10.00">boost/asio.hpp</text>
</g>
<!-- Node9&#45;&gt;Node14 -->
<g id="edge14" class="edge"><title>Node9&#45;&gt;Node14</title>
<path fill="none" stroke="midnightblue" d="M1049.7,-181.532C1054.43,-180.537 1059.34,-179.633 1064,-179 1388.96,-134.842 1477.69,-197.92 1801,-143 1805.78,-142.188 1810.75,-141.063 1815.61,-139.795"/>
<polygon fill="midnightblue" stroke="midnightblue" points="1816.67,-143.132 1825.34,-137.045 1814.77,-136.395 1816.67,-143.132"/>
</g>
<!-- Node15 -->
<g id="node15" class="node"><title>Node15</title>
<polygon fill="none" stroke="#bfbfbf" points="277.5,-118 277.5,-137 372.5,-137 372.5,-118 277.5,-118"/>
<text text-anchor="middle" x="325" y="-125" font-family="Helvetica,sans-Serif" font-size="10.00">condition_variable</text>
</g>
<!-- Node9&#45;&gt;Node15 -->
<g id="edge15" class="edge"><title>Node9&#45;&gt;Node15</title>
<path fill="none" stroke="midnightblue" d="M998.427,-187.847C911.474,-186.978 619.448,-181.207 382,-143 376.187,-142.065 370.102,-140.815 364.161,-139.441"/>
<polygon fill="midnightblue" stroke="midnightblue" points="364.919,-136.023 354.374,-137.042 363.253,-142.822 364.919,-136.023"/>
</g>
<!-- Node16 -->
<g id="node16" class="node"><title>Node16</title>
<polygon fill="none" stroke="#bfbfbf" points="391,-118 391,-137 437,-137 437,-118 391,-118"/>
<text text-anchor="middle" x="414" y="-125" font-family="Helvetica,sans-Serif" font-size="10.00">chrono</text>
</g>
<!-- Node9&#45;&gt;Node16 -->
<g id="edge16" class="edge"><title>Node9&#45;&gt;Node16</title>
<path fill="none" stroke="midnightblue" d="M998.293,-187.182C900.644,-183.893 552.865,-170.466 446,-143 443.792,-142.433 441.547,-141.722 439.322,-140.921"/>
<polygon fill="midnightblue" stroke="midnightblue" points="440.459,-137.604 429.881,-137.008 437.779,-144.07 440.459,-137.604"/>
</g>
<!-- Node17 -->
<g id="node17" class="node"><title>Node17</title>
<polygon fill="none" stroke="#bfbfbf" points="455,-118 455,-137 501,-137 501,-118 455,-118"/>
<text text-anchor="middle" x="478" y="-125" font-family="Helvetica,sans-Serif" font-size="10.00">atomic</text>
</g>
<!-- Node9&#45;&gt;Node17 -->
<g id="edge17" class="edge"><title>Node9&#45;&gt;Node17</title>
<path fill="none" stroke="midnightblue" d="M998.452,-186.861C908.233,-182.667 604.97,-167.069 511,-143 508.698,-142.41 506.353,-141.677 504.029,-140.855"/>
<polygon fill="midnightblue" stroke="midnightblue" points="505.333,-137.607 494.75,-137.121 502.72,-144.101 505.333,-137.607"/>
</g>
<!-- Node18 -->
<g id="node18" class="node"><title>Node18</title>
<polygon fill="none" stroke="#bfbfbf" points="519.5,-118 519.5,-137 662.5,-137 662.5,-118 519.5,-118"/>
<text text-anchor="middle" x="591" y="-125" font-family="Helvetica,sans-Serif" font-size="10.00">boost/filesystem/fstream.hpp</text>
</g>
<!-- Node9&#45;&gt;Node18 -->
<g id="edge19" class="edge"><title>Node9&#45;&gt;Node18</title>
<path fill="none" stroke="midnightblue" d="M998.322,-185.163C940.128,-178.636 793.794,-161.674 672,-143 663.677,-141.724 654.894,-140.267 646.302,-138.78"/>
<polygon fill="midnightblue" stroke="midnightblue" points="646.799,-135.314 636.344,-137.029 645.587,-142.208 646.799,-135.314"/>
</g>
<!-- Node19 -->
<g id="node19" class="node"><title>Node19</title>
<polygon fill="none" stroke="#bfbfbf" points="681,-112.5 681,-142.5 785,-142.5 785,-112.5 681,-112.5"/>
<text text-anchor="start" x="689" y="-130.5" font-family="Helvetica,sans-Serif" font-size="10.00">boost/archive/binary</text>
<text text-anchor="middle" x="733" y="-119.5" font-family="Helvetica,sans-Serif" font-size="10.00">_oarchive.hpp</text>
</g>
<!-- Node9&#45;&gt;Node19 -->
<g id="edge20" class="edge"><title>Node9&#45;&gt;Node19</title>
<path fill="none" stroke="midnightblue" d="M998.405,-183.34C957.609,-175.837 875.098,-160.358 795.417,-143.259"/>
<polygon fill="midnightblue" stroke="midnightblue" points="795.725,-139.745 785.212,-141.057 794.249,-146.588 795.725,-139.745"/>
</g>
<!-- Node20 -->
<g id="node20" class="node"><title>Node20</title>
<polygon fill="none" stroke="#bfbfbf" points="803,-112.5 803,-142.5 907,-142.5 907,-112.5 803,-112.5"/>
<text text-anchor="start" x="811" y="-130.5" font-family="Helvetica,sans-Serif" font-size="10.00">boost/archive/binary</text>
<text text-anchor="middle" x="855" y="-119.5" font-family="Helvetica,sans-Serif" font-size="10.00">_iarchive.hpp</text>
</g>
<!-- Node9&#45;&gt;Node20 -->
<g id="edge21" class="edge"><title>Node9&#45;&gt;Node20</title>
<path fill="none" stroke="midnightblue" d="M999.786,-179.475C974.973,-170.739 935.686,-156.907 904.294,-145.855"/>
<polygon fill="midnightblue" stroke="midnightblue" points="905.425,-142.543 894.83,-142.523 903.1,-149.145 905.425,-142.543"/>
</g>
<!-- Node21 -->
<g id="node21" class="node"><title>Node21</title>
<polygon fill="none" stroke="#bfbfbf" points="925,-118 925,-137 969,-137 969,-118 925,-118"/>
<text text-anchor="middle" x="947" y="-125" font-family="Helvetica,sans-Serif" font-size="10.00">mutex</text>
</g>
<!-- Node9&#45;&gt;Node21 -->
<g id="edge22" class="edge"><title>Node9&#45;&gt;Node21</title>
<path fill="none" stroke="midnightblue" d="M1012.97,-179.475C1000.73,-170.02 980.771,-154.596 966.007,-143.187"/>
<polygon fill="midnightblue" stroke="midnightblue" points="968.065,-140.354 958.012,-137.009 963.785,-145.893 968.065,-140.354"/>
</g>
<!-- Node22 -->
<g id="node22" class="node"><title>Node22</title>
<polygon fill="none" stroke="#bfbfbf" points="987,-118 987,-137 1061,-137 1061,-118 987,-118"/>
<text text-anchor="middle" x="1024" y="-125" font-family="Helvetica,sans-Serif" font-size="10.00">dataPacket.h</text>
</g>
<!-- Node9&#45;&gt;Node22 -->
<g id="edge25" class="edge"><title>Node9&#45;&gt;Node22</title>
<path fill="none" stroke="midnightblue" d="M1024,-179.475C1024,-171.08 1024,-157.981 1024,-147.163"/>
<polygon fill="midnightblue" stroke="midnightblue" points="1027.5,-147.009 1024,-137.009 1020.5,-147.009 1027.5,-147.009"/>
</g>
<!-- Node23 -->
<g id="node23" class="node"><title>Node23</title>
<g id="a_node23"><a xlink:href="sensor_8h.html" target="_top" xlink:title="sensor.h">
<polygon fill="none" stroke="black" points="1298,-56.5 1298,-75.5 1352,-75.5 1352,-56.5 1298,-56.5"/>
<text text-anchor="middle" x="1325" y="-63.5" font-family="Helvetica,sans-Serif" font-size="10.00">sensor.h</text>
</a>
</g>
</g>
<!-- Node9&#45;&gt;Node23 -->
<g id="edge26" class="edge"><title>Node9&#45;&gt;Node23</title>
<path fill="none" stroke="midnightblue" d="M1049.81,-182.147C1054.53,-181.09 1059.41,-180.005 1064,-179 1139.02,-162.571 1163.85,-176.415 1233,-143 1249.37,-135.087 1286.56,-102.281 1308.31,-82.4483"/>
<polygon fill="midnightblue" stroke="midnightblue" points="1310.82,-84.9015 1315.82,-75.5614 1306.08,-79.7441 1310.82,-84.9015"/>
</g>
<!-- Node24 -->
<g id="node24" class="node"><title>Node24</title>
<g id="a_node24"><a xlink:href="sonar_8h.html" target="_top" xlink:title="sonar.h">
<polygon fill="none" stroke="black" points="1559.5,-118 1559.5,-137 1608.5,-137 1608.5,-118 1559.5,-118"/>
<text text-anchor="middle" x="1584" y="-125" font-family="Helvetica,sans-Serif" font-size="10.00">sonar.h</text>
</a>
</g>
</g>
<!-- Node9&#45;&gt;Node24 -->
<g id="edge28" class="edge"><title>Node9&#45;&gt;Node24</title>
<path fill="none" stroke="midnightblue" d="M1049.72,-181.628C1054.44,-180.624 1059.35,-179.691 1064,-179 1278.24,-147.141 1339.54,-194.175 1550,-143 1552.51,-142.39 1555.07,-141.613 1557.6,-140.737"/>
<polygon fill="midnightblue" stroke="midnightblue" points="1559.06,-143.928 1567.08,-137.011 1556.49,-137.413 1559.06,-143.928"/>
</g>
<!-- Node25 -->
<g id="node25" class="node"><title>Node25</title>
<g id="a_node25"><a xlink:href="heightsensor_8h.html" target="_top" xlink:title="heightsensor.h">
<polygon fill="none" stroke="black" points="1285,-118 1285,-137 1365,-137 1365,-118 1285,-118"/>
<text text-anchor="middle" x="1325" y="-125" font-family="Helvetica,sans-Serif" font-size="10.00">heightsensor.h</text>
</a>
</g>
</g>
<!-- Node9&#45;&gt;Node25 -->
<g id="edge31" class="edge"><title>Node9&#45;&gt;Node25</title>
<path fill="none" stroke="midnightblue" d="M1049.78,-182.004C1054.5,-180.961 1059.39,-179.918 1064,-179 1155.58,-160.745 1179.81,-163.129 1271,-143 1275.67,-141.969 1280.55,-140.797 1285.37,-139.578"/>
<polygon fill="midnightblue" stroke="midnightblue" points="1286.33,-142.944 1295.13,-137.036 1284.57,-136.17 1286.33,-142.944"/>
</g>
<!-- Node26 -->
<g id="node26" class="node"><title>Node26</title>
<g id="a_node26"><a xlink:href="rotor_8h.html" target="_top" xlink:title="rotor.h">
<polygon fill="none" stroke="black" points="1147,-56.5 1147,-75.5 1191,-75.5 1191,-56.5 1147,-56.5"/>
<text text-anchor="middle" x="1169" y="-63.5" font-family="Helvetica,sans-Serif" font-size="10.00">rotor.h</text>
</a>
</g>
</g>
<!-- Node9&#45;&gt;Node26 -->
<g id="edge33" class="edge"><title>Node9&#45;&gt;Node26</title>
<path fill="none" stroke="midnightblue" d="M1049.51,-181.307C1087.38,-171.134 1154.81,-152.01 1162,-143 1174.76,-127.014 1174.68,-102.671 1172.6,-85.8636"/>
<polygon fill="midnightblue" stroke="midnightblue" points="1176,-84.9549 1170.98,-75.6266 1169.09,-86.0515 1176,-84.9549"/>
</g>
<!-- Node27 -->
<g id="node27" class="node"><title>Node27</title>
<g id="a_node27"><a xlink:href="positionsensor_8h.html" target="_top" xlink:title="positionsensor.h">
<polygon fill="none" stroke="black" points="1383,-118 1383,-137 1471,-137 1471,-118 1383,-118"/>
<text text-anchor="middle" x="1427" y="-125" font-family="Helvetica,sans-Serif" font-size="10.00">positionsensor.h</text>
</a>
</g>
</g>
<!-- Node9&#45;&gt;Node27 -->
<g id="edge35" class="edge"><title>Node9&#45;&gt;Node27</title>
<path fill="none" stroke="midnightblue" d="M1049.74,-181.788C1054.47,-180.767 1059.37,-179.788 1064,-179 1200.74,-155.744 1237.83,-169.377 1374,-143 1378.84,-142.063 1383.88,-140.914 1388.85,-139.676"/>
<polygon fill="midnightblue" stroke="midnightblue" points="1390.07,-142.974 1398.86,-137.051 1388.29,-136.203 1390.07,-142.974"/>
</g>
<!-- Node28 -->
<g id="node28" class="node"><title>Node28</title>
<polygon fill="none" stroke="#bfbfbf" points="1079.5,-118 1079.5,-137 1152.5,-137 1152.5,-118 1079.5,-118"/>
<text text-anchor="middle" x="1116" y="-125" font-family="Helvetica,sans-Serif" font-size="10.00">Eigen/Dense</text>
</g>
<!-- Node9&#45;&gt;Node28 -->
<g id="edge37" class="edge"><title>Node9&#45;&gt;Node28</title>
<path fill="none" stroke="midnightblue" d="M1037.18,-179.475C1052.07,-169.843 1076.54,-154.017 1094.27,-142.552"/>
<polygon fill="midnightblue" stroke="midnightblue" points="1096.35,-145.379 1102.84,-137.009 1092.55,-139.501 1096.35,-145.379"/>
</g>
<!-- Node23&#45;&gt;Node4 -->
<g id="edge27" class="edge"><title>Node23&#45;&gt;Node4</title>
<path fill="none" stroke="midnightblue" d="M1316.25,-56.083C1308.53,-48.2195 1297.1,-36.5688 1287.78,-27.0813"/>
<polygon fill="midnightblue" stroke="midnightblue" points="1290.09,-24.4363 1280.59,-19.7511 1285.1,-29.3396 1290.09,-24.4363"/>
</g>
<!-- Node24&#45;&gt;Node3 -->
<g id="edge30" class="edge"><title>Node24&#45;&gt;Node3</title>
<path fill="none" stroke="midnightblue" d="M1595.03,-117.975C1607.27,-108.52 1627.23,-93.0961 1641.99,-81.6871"/>
<polygon fill="midnightblue" stroke="midnightblue" points="1644.22,-84.3931 1649.99,-75.5091 1639.94,-78.8541 1644.22,-84.3931"/>
</g>
<!-- Node24&#45;&gt;Node23 -->
<g id="edge29" class="edge"><title>Node24&#45;&gt;Node23</title>
<path fill="none" stroke="midnightblue" d="M1565.91,-117.969C1560.84,-115.804 1555.27,-113.632 1550,-112 1485.22,-91.9422 1407.1,-78.6612 1362.02,-72.0139"/>
<polygon fill="midnightblue" stroke="midnightblue" points="1362.51,-68.5483 1352.11,-70.5812 1361.51,-75.4762 1362.51,-68.5483"/>
</g>
<!-- Node25&#45;&gt;Node23 -->
<g id="edge32" class="edge"><title>Node25&#45;&gt;Node23</title>
<path fill="none" stroke="midnightblue" d="M1325,-117.975C1325,-109.58 1325,-96.4806 1325,-85.6631"/>
<polygon fill="midnightblue" stroke="midnightblue" points="1328.5,-85.5091 1325,-75.5091 1321.5,-85.5091 1328.5,-85.5091"/>
</g>
<!-- Node26&#45;&gt;Node4 -->
<g id="edge34" class="edge"><title>Node26&#45;&gt;Node4</title>
<path fill="none" stroke="midnightblue" d="M1185.55,-56.324C1201.99,-47.7034 1227.43,-34.3643 1246.47,-24.3855"/>
<polygon fill="midnightblue" stroke="midnightblue" points="1248.26,-27.3977 1255.49,-19.6545 1245.01,-21.198 1248.26,-27.3977"/>
</g>
<!-- Node27&#45;&gt;Node23 -->
<g id="edge36" class="edge"><title>Node27&#45;&gt;Node23</title>
<path fill="none" stroke="midnightblue" d="M1412.39,-117.975C1395.65,-108.211 1368,-92.0807 1348.28,-80.5808"/>
<polygon fill="midnightblue" stroke="midnightblue" points="1349.99,-77.5246 1339.59,-75.5091 1346.46,-83.5711 1349.99,-77.5246"/>
</g>
</g>
</svg>
        <g id="navigator" transform="translate(0 0)" fill="#404254">
                <rect fill="#f2f5e9" fill-opacity="0.5" stroke="#606060" stroke-width=".5" x="0" y="0" width="60" height="60"/>
                <use id="zoomplus" xlink:href="#zoomPlus" x="17" y="9" onmousedown="handleZoom(evt,'in')"/>
                <use id="zoomminus" xlink:href="#zoomMin" x="42" y="9" onmousedown="handleZoom(evt,'out')"/>
                <use id="reset" xlink:href="#resetDef" x="30" y="36" onmousedown="handleReset()"/>
                <g id="arrowUp" xlink:href="#dirArrow" transform="translate(30 24)" onmousedown="handlePan(0,-1)">
                  <use xlink:href="#rim" fill="#404040">
                        <set attributeName="fill" to="#808080" begin="arrowUp.mouseover" end="arrowUp.mouseout"/>
                  </use>
                  <path fill="none" stroke="white" stroke-width="1.5" d="M0,-3.0v7 M-2.5,-0.5L0,-3.0L2.5,-0.5"/>
                </g>
                <g id="arrowRight" xlink:href="#dirArrow" transform="rotate(90) translate(36 -43)" onmousedown="handlePan(1,0)">
                  <use xlink:href="#rim" fill="#404040">
                        <set attributeName="fill" to="#808080" begin="arrowRight.mouseover" end="arrowRight.mouseout"/>
                  </use>
                  <path fill="none" stroke="white" stroke-width="1.5" d="M0,-3.0v7 M-2.5,-0.5L0,-3.0L2.5,-0.5"/>
                </g>
                <g id="arrowDown" xlink:href="#dirArrow" transform="rotate(180) translate(-30 -48)" onmousedown="handlePan(0,1)">
                  <use xlink:href="#rim" fill="#404040">
                        <set attributeName="fill" to="#808080" begin="arrowDown.mouseover" end="arrowDown.mouseout"/>
                  </use>
                  <path fill="none" stroke="white" stroke-width="1.5" d="M0,-3.0v7 M-2.5,-0.5L0,-3.0L2.5,-0.5"/>
                </g>
                <g id="arrowLeft" xlink:href="#dirArrow" transform="rotate(270) translate(-36 17)" onmousedown="handlePan(-1,0)">
                  <use xlink:href="#rim" fill="#404040">
                        <set attributeName="fill" to="#808080" begin="arrowLeft.mouseover" end="arrowLeft.mouseout"/>
                  </use>
                  <path fill="none" stroke="white" stroke-width="1.5" d="M0,-3.0v7 M-2.5,-0.5L0,-3.0L2.5,-0.5"/>
                </g>
        </g>
        <svg viewBox="0 0 15 15" width="100%" height="30px" preserveAspectRatio="xMaxYMin meet">
         <g id="arrow_out" transform="scale(0.3 0.3)">
          <a xlink:href="skeleton_8cpp__incl_org.svg" target="_base">
           <rect id="button" ry="5" rx="5" y="6" x="6" height="38" width="38"
                fill="#f2f5e9" fill-opacity="0.5" stroke="#606060" stroke-width="1.0"/>
           <path id="arrow"
             d="M 11.500037,31.436501 C 11.940474,20.09759 22.043105,11.32322 32.158766,21.979434 L 37.068811,17.246167 C 37.068811,17.246167 37.088388,32 37.088388,32 L 22.160133,31.978069 C 22.160133,31.978069 26.997745,27.140456 26.997745,27.140456 C 18.528582,18.264221 13.291696,25.230495 11.500037,31.436501 z"
             style="fill:#404040;"/>
          </a>
         </g>
        </svg>
</svg>
