<?xml version="1.0" encoding="UTF-8" standalone="no"?>
<!DOCTYPE svg PUBLIC "-//W3C//DTD SVG 1.1//EN"
 "http://www.w3.org/Graphics/SVG/1.1/DTD/svg11.dtd">
<!-- Generated by graphviz version 2.38.0 (20140413.2041)
 -->
<!-- Title: v_repEnd Pages: 1 -->
<svg width="230pt" height="104pt"
 viewBox="0.00 0.00 230.00 104.00" xmlns="http://www.w3.org/2000/svg" xmlns:xlink="http://www.w3.org/1999/xlink">
<g id="graph0" class="graph" transform="scale(1 1) rotate(0) translate(4 100)">
<title>v_repEnd</title>
<!-- Node1 -->
<g id="node1" class="node"><title>Node1</title>
<polygon fill="#bfbfbf" stroke="black" points="0,-38.5 0,-57.5 58,-57.5 58,-38.5 0,-38.5"/>
<text text-anchor="middle" x="29" y="-45.5" font-family="Helvetica,sans-Serif" font-size="10.00">v_repEnd</text>
</g>
<!-- Node2 -->
<g id="node2" class="node"><title>Node2</title>
<g id="a_node2"><a xlink:href="classVREPPlugin.html#a6c54bebcd2d0c09e7a20dd72ae82ec71" target="_top" xlink:title="VREPPlugin::getInstance">
<polygon fill="none" stroke="black" points="94,-76.5 94,-95.5 222,-95.5 222,-76.5 94,-76.5"/>
<text text-anchor="middle" x="158" y="-83.5" font-family="Helvetica,sans-Serif" font-size="10.00">VREPPlugin::getInstance</text>
</a>
</g>
</g>
<!-- Node1&#45;&gt;Node2 -->
<g id="edge1" class="edge"><title>Node1&#45;&gt;Node2</title>
<path fill="none" stroke="midnightblue" d="M58.1854,-56.4334C74.9103,-61.4377 96.4275,-67.8759 115.111,-73.4662"/>
<polygon fill="midnightblue" stroke="midnightblue" points="114.282,-76.8714 124.865,-76.3849 116.288,-70.1652 114.282,-76.8714"/>
</g>
<!-- Node3 -->
<g id="node3" class="node"><title>Node3</title>
<g id="a_node3"><a xlink:href="classVREPPlugin.html#a49aff8a71c1c9f2af6e32b918eba99ff" target="_top" xlink:title="VREPPlugin::unload">
<polygon fill="none" stroke="black" points="105,-38.5 105,-57.5 211,-57.5 211,-38.5 105,-38.5"/>
<text text-anchor="middle" x="158" y="-45.5" font-family="Helvetica,sans-Serif" font-size="10.00">VREPPlugin::unload</text>
</a>
</g>
</g>
<!-- Node1&#45;&gt;Node3 -->
<g id="edge2" class="edge"><title>Node1&#45;&gt;Node3</title>
<path fill="none" stroke="midnightblue" d="M58.1854,-48C69.0259,-48 81.8797,-48 94.6702,-48"/>
<polygon fill="midnightblue" stroke="midnightblue" points="94.8747,-51.5001 104.875,-48 94.8746,-44.5001 94.8747,-51.5001"/>
</g>
<!-- Node4 -->
<g id="node4" class="node"><title>Node4</title>
<g id="a_node4"><a xlink:href="classVREPPlugin.html#a345987cf0e2e8aa3af817cc0213e5c7a" target="_top" xlink:title="VREPPlugin::name">
<polygon fill="none" stroke="black" points="107.5,-0.5 107.5,-19.5 208.5,-19.5 208.5,-0.5 107.5,-0.5"/>
<text text-anchor="middle" x="158" y="-7.5" font-family="Helvetica,sans-Serif" font-size="10.00">VREPPlugin::name</text>
</a>
</g>
</g>
<!-- Node1&#45;&gt;Node4 -->
<g id="edge3" class="edge"><title>Node1&#45;&gt;Node4</title>
<path fill="none" stroke="midnightblue" d="M58.1854,-39.5666C74.9103,-34.5623 96.4275,-28.1241 115.111,-22.5338"/>
<polygon fill="midnightblue" stroke="midnightblue" points="116.288,-25.8348 124.865,-19.6151 114.282,-19.1286 116.288,-25.8348"/>
</g>
</g>
</svg>
