<?xml version="1.0" encoding="UTF-8" standalone="no"?>
<!DOCTYPE svg PUBLIC "-//W3C//DTD SVG 1.1//EN"
 "http://www.w3.org/Graphics/SVG/1.1/DTD/svg11.dtd">
<!-- Generated by graphviz version 2.38.0 (20140413.2041)
 -->
<!-- Title: Sync::extend Pages: 1 -->
<svg width="239pt" height="28pt"
 viewBox="0.00 0.00 239.00 28.00" xmlns="http://www.w3.org/2000/svg" xmlns:xlink="http://www.w3.org/1999/xlink">
<g id="graph0" class="graph" transform="scale(1 1) rotate(0) translate(4 24)">
<title>Sync::extend</title>
<!-- Node1 -->
<g id="node1" class="node"><title>Node1</title>
<polygon fill="#bfbfbf" stroke="black" points="0,-0.5 0,-19.5 74,-19.5 74,-0.5 0,-0.5"/>
<text text-anchor="middle" x="37" y="-7.5" font-family="Helvetica,sans-Serif" font-size="10.00">Sync::extend</text>
</g>
<!-- Node2 -->
<g id="node2" class="node"><title>Node2</title>
<g id="a_node2"><a xlink:href="threadSync_8cpp.html#a82151c6adbe3e0cc4262ca4c658ffc5e" target="_top" xlink:title="signals">
<polygon fill="none" stroke="black" points="110,-0.5 110,-19.5 157,-19.5 157,-0.5 110,-0.5"/>
<text text-anchor="middle" x="133.5" y="-7.5" font-family="Helvetica,sans-Serif" font-size="10.00">signals</text>
</a>
</g>
</g>
<!-- Node1&#45;&gt;Node2 -->
<g id="edge1" class="edge"><title>Node1&#45;&gt;Node2</title>
<path fill="none" stroke="midnightblue" d="M84.5295,-10C93.3484,-10 102.201,-10 109.857,-10"/>
<polygon fill="midnightblue" stroke="midnightblue" points="84.2659,-6.5001 74.2659,-10 84.2659,-13.5001 84.2659,-6.5001"/>
</g>
<!-- Node3 -->
<g id="node3" class="node"><title>Node3</title>
<g id="a_node3"><a xlink:href="threadSync_8cpp.html#ae66f6b31b5ad750f1fe042a706a4e3d4" target="_top" xlink:title="main">
<polygon fill="none" stroke="black" points="193,-0.5 193,-19.5 231,-19.5 231,-0.5 193,-0.5"/>
<text text-anchor="middle" x="212" y="-7.5" font-family="Helvetica,sans-Serif" font-size="10.00">main</text>
</a>
</g>
</g>
<!-- Node2&#45;&gt;Node3 -->
<g id="edge2" class="edge"><title>Node2&#45;&gt;Node3</title>
<path fill="none" stroke="midnightblue" d="M167.131,-10C175.988,-10 185.256,-10 192.98,-10"/>
<polygon fill="midnightblue" stroke="midnightblue" points="167.039,-6.5001 157.039,-10 167.039,-13.5001 167.039,-6.5001"/>
</g>
</g>
</svg>
