<?xml version="1.0" encoding="UTF-8" standalone="no"?>
<!DOCTYPE svg PUBLIC "-//W3C//DTD SVG 1.1//EN"
 "http://www.w3.org/Graphics/SVG/1.1/DTD/svg11.dtd">
<!-- Generated by graphviz version 2.38.0 (20140413.2041)
 -->
<!-- Title: main Pages: 1 -->
<svg width="239pt" height="85pt"
 viewBox="0.00 0.00 239.00 85.00" xmlns="http://www.w3.org/2000/svg" xmlns:xlink="http://www.w3.org/1999/xlink">
<g id="graph0" class="graph" transform="scale(1 1) rotate(0) translate(4 81)">
<title>main</title>
<!-- Node1 -->
<g id="node1" class="node"><title>Node1</title>
<polygon fill="#bfbfbf" stroke="black" points="0,-38.5 0,-57.5 38,-57.5 38,-38.5 0,-38.5"/>
<text text-anchor="middle" x="19" y="-45.5" font-family="Helvetica,sans-Serif" font-size="10.00">main</text>
</g>
<!-- Node2 -->
<g id="node2" class="node"><title>Node2</title>
<g id="a_node2"><a xlink:href="threadSync_8cpp.html#a6e09c6c1ef60d5deaf0da4add8d5ca40" target="_top" xlink:title="waits">
<polygon fill="none" stroke="black" points="77.5,-57.5 77.5,-76.5 117.5,-76.5 117.5,-57.5 77.5,-57.5"/>
<text text-anchor="middle" x="97.5" y="-64.5" font-family="Helvetica,sans-Serif" font-size="10.00">waits</text>
</a>
</g>
</g>
<!-- Node1&#45;&gt;Node2 -->
<g id="edge1" class="edge"><title>Node1&#45;&gt;Node2</title>
<path fill="none" stroke="midnightblue" d="M38.1294,-52.5027C46.9179,-54.6855 57.6874,-57.3603 67.5723,-59.8153"/>
<polygon fill="midnightblue" stroke="midnightblue" points="66.8843,-63.2507 77.4332,-62.2644 68.5717,-56.4571 66.8843,-63.2507"/>
</g>
<!-- Node3 -->
<g id="node3" class="node"><title>Node3</title>
<g id="a_node3"><a xlink:href="threadSync_8cpp.html#a82151c6adbe3e0cc4262ca4c658ffc5e" target="_top" xlink:title="signals">
<polygon fill="none" stroke="black" points="74,-19.5 74,-38.5 121,-38.5 121,-19.5 74,-19.5"/>
<text text-anchor="middle" x="97.5" y="-26.5" font-family="Helvetica,sans-Serif" font-size="10.00">signals</text>
</a>
</g>
</g>
<!-- Node1&#45;&gt;Node3 -->
<g id="edge2" class="edge"><title>Node1&#45;&gt;Node3</title>
<path fill="none" stroke="midnightblue" d="M38.1294,-43.4973C45.8982,-41.5678 55.215,-39.2538 64.1004,-37.047"/>
<polygon fill="midnightblue" stroke="midnightblue" points="64.982,-40.4344 73.8435,-34.6271 63.2946,-33.6408 64.982,-40.4344"/>
</g>
<!-- Node4 -->
<g id="node4" class="node"><title>Node4</title>
<g id="a_node4"><a xlink:href="structSync.html#a12dd998a8af839e5e5663020f1607863" target="_top" xlink:title="Sync::extend">
<polygon fill="none" stroke="black" points="157,-38.5 157,-57.5 231,-57.5 231,-38.5 157,-38.5"/>
<text text-anchor="middle" x="194" y="-45.5" font-family="Helvetica,sans-Serif" font-size="10.00">Sync::extend</text>
</a>
</g>
</g>
<!-- Node3&#45;&gt;Node4 -->
<g id="edge3" class="edge"><title>Node3&#45;&gt;Node4</title>
<path fill="none" stroke="midnightblue" d="M121.376,-33.5994C129.075,-35.1474 137.964,-36.9345 146.803,-38.7117"/>
<polygon fill="midnightblue" stroke="midnightblue" points="146.202,-42.1609 156.696,-40.7008 147.582,-35.2983 146.202,-42.1609"/>
</g>
<!-- Node5 -->
<g id="node5" class="node"><title>Node5</title>
<g id="a_node5"><a xlink:href="structSync.html#a11ca0966d2a696487fd3eb2c5b85f393" target="_top" xlink:title="Sync::set">
<polygon fill="none" stroke="black" points="164.5,-0.5 164.5,-19.5 223.5,-19.5 223.5,-0.5 164.5,-0.5"/>
<text text-anchor="middle" x="194" y="-7.5" font-family="Helvetica,sans-Serif" font-size="10.00">Sync::set</text>
</a>
</g>
</g>
<!-- Node3&#45;&gt;Node5 -->
<g id="edge4" class="edge"><title>Node3&#45;&gt;Node5</title>
<path fill="none" stroke="midnightblue" d="M121.376,-24.4006C131.246,-22.4162 143.07,-20.0389 154.239,-17.7932"/>
<polygon fill="midnightblue" stroke="midnightblue" points="155.124,-21.1854 164.238,-15.7829 153.744,-14.3227 155.124,-21.1854"/>
</g>
</g>
</svg>
