<?xml version="1.0" encoding="UTF-8" standalone="no"?>
<!DOCTYPE svg PUBLIC "-//W3C//DTD SVG 1.1//EN"
 "http://www.w3.org/Graphics/SVG/1.1/DTD/svg11.dtd">
<!-- Generated by graphviz version 2.38.0 (20140413.2041)
 -->
<!-- Title: threadSync.cpp Pages: 1 -->
<svg width="450pt" height="84pt"
 viewBox="0.00 0.00 449.50 84.00" xmlns="http://www.w3.org/2000/svg" xmlns:xlink="http://www.w3.org/1999/xlink">
<g id="graph0" class="graph" transform="scale(1 1) rotate(0) translate(4 80)">
<title>threadSync.cpp</title>
<!-- Node1 -->
<g id="node1" class="node"><title>Node1</title>
<polygon fill="#bfbfbf" stroke="black" points="185.5,-56.5 185.5,-75.5 270.5,-75.5 270.5,-56.5 185.5,-56.5"/>
<text text-anchor="middle" x="228" y="-63.5" font-family="Helvetica,sans-Serif" font-size="10.00">threadSync.cpp</text>
</g>
<!-- Node2 -->
<g id="node2" class="node"><title>Node2</title>
<polygon fill="none" stroke="#bfbfbf" points="0,-0.5 0,-19.5 54,-19.5 54,-0.5 0,-0.5"/>
<text text-anchor="middle" x="27" y="-7.5" font-family="Helvetica,sans-Serif" font-size="10.00">iostream</text>
</g>
<!-- Node1&#45;&gt;Node2 -->
<g id="edge1" class="edge"><title>Node1&#45;&gt;Node2</title>
<path fill="none" stroke="midnightblue" d="M196.151,-56.4435C160.332,-46.8205 102.227,-31.2102 64.3112,-21.0239"/>
<polygon fill="midnightblue" stroke="midnightblue" points="64.7534,-17.5187 54.1878,-18.3042 62.9372,-24.279 64.7534,-17.5187"/>
</g>
<!-- Node3 -->
<g id="node3" class="node"><title>Node3</title>
<polygon fill="none" stroke="#bfbfbf" points="72,-0.5 72,-19.5 118,-19.5 118,-0.5 72,-0.5"/>
<text text-anchor="middle" x="95" y="-7.5" font-family="Helvetica,sans-Serif" font-size="10.00">atomic</text>
</g>
<!-- Node1&#45;&gt;Node3 -->
<g id="edge2" class="edge"><title>Node1&#45;&gt;Node3</title>
<path fill="none" stroke="midnightblue" d="M206.926,-56.4435C184.94,-47.5171 150.266,-33.4387 125.336,-23.3168"/>
<polygon fill="midnightblue" stroke="midnightblue" points="126.558,-20.0355 115.976,-19.5164 123.924,-26.5213 126.558,-20.0355"/>
</g>
<!-- Node4 -->
<g id="node4" class="node"><title>Node4</title>
<polygon fill="none" stroke="#bfbfbf" points="136.5,-0.5 136.5,-19.5 231.5,-19.5 231.5,-0.5 136.5,-0.5"/>
<text text-anchor="middle" x="184" y="-7.5" font-family="Helvetica,sans-Serif" font-size="10.00">condition_variable</text>
</g>
<!-- Node1&#45;&gt;Node4 -->
<g id="edge3" class="edge"><title>Node1&#45;&gt;Node4</title>
<path fill="none" stroke="midnightblue" d="M220.734,-56.083C214.455,-48.3768 205.212,-37.0333 197.569,-27.6531"/>
<polygon fill="midnightblue" stroke="midnightblue" points="200.161,-25.2926 191.131,-19.7511 194.734,-29.7143 200.161,-25.2926"/>
</g>
<!-- Node5 -->
<g id="node5" class="node"><title>Node5</title>
<polygon fill="none" stroke="#bfbfbf" points="250,-0.5 250,-19.5 294,-19.5 294,-0.5 250,-0.5"/>
<text text-anchor="middle" x="272" y="-7.5" font-family="Helvetica,sans-Serif" font-size="10.00">thread</text>
</g>
<!-- Node1&#45;&gt;Node5 -->
<g id="edge4" class="edge"><title>Node1&#45;&gt;Node5</title>
<path fill="none" stroke="midnightblue" d="M235.266,-56.083C241.545,-48.3768 250.788,-37.0333 258.431,-27.6531"/>
<polygon fill="midnightblue" stroke="midnightblue" points="261.266,-29.7143 264.869,-19.7511 255.839,-25.2926 261.266,-29.7143"/>
</g>
<!-- Node6 -->
<g id="node6" class="node"><title>Node6</title>
<polygon fill="none" stroke="#bfbfbf" points="312,-0.5 312,-19.5 358,-19.5 358,-0.5 312,-0.5"/>
<text text-anchor="middle" x="335" y="-7.5" font-family="Helvetica,sans-Serif" font-size="10.00">chrono</text>
</g>
<!-- Node1&#45;&gt;Node6 -->
<g id="edge5" class="edge"><title>Node1&#45;&gt;Node6</title>
<path fill="none" stroke="midnightblue" d="M245.191,-56.324C262.351,-47.6641 288.946,-34.2424 308.747,-24.249"/>
<polygon fill="midnightblue" stroke="midnightblue" points="310.501,-27.2847 317.851,-19.6545 307.347,-21.0354 310.501,-27.2847"/>
</g>
<!-- Node7 -->
<g id="node7" class="node"><title>Node7</title>
<polygon fill="none" stroke="#bfbfbf" points="376.5,-0.5 376.5,-19.5 441.5,-19.5 441.5,-0.5 376.5,-0.5"/>
<text text-anchor="middle" x="409" y="-7.5" font-family="Helvetica,sans-Serif" font-size="10.00">Eigen/Core</text>
</g>
<!-- Node1&#45;&gt;Node7 -->
<g id="edge6" class="edge"><title>Node1&#45;&gt;Node7</title>
<path fill="none" stroke="midnightblue" d="M256.68,-56.4435C287.527,-47.2406 336.728,-32.5617 370.829,-22.3879"/>
<polygon fill="midnightblue" stroke="midnightblue" points="371.872,-25.7293 380.454,-19.5164 369.871,-19.0215 371.872,-25.7293"/>
</g>
</g>
</svg>
