<?xml version="1.0" encoding="UTF-8" standalone="no"?>
<!DOCTYPE svg PUBLIC "-//W3C//DTD SVG 1.1//EN"
 "http://www.w3.org/Graphics/SVG/1.1/DTD/svg11.dtd">
<!-- Generated by graphviz version 2.38.0 (20140413.2041)
 -->
<!-- Title: vrepplugin.h Pages: 1 -->
<svg width="364pt" height="84pt"
 viewBox="0.00 0.00 364.00 84.00" xmlns="http://www.w3.org/2000/svg" xmlns:xlink="http://www.w3.org/1999/xlink">
<g id="graph0" class="graph" transform="scale(1 1) rotate(0) translate(4 80)">
<title>vrepplugin.h</title>
<!-- Node1 -->
<g id="node1" class="node"><title>Node1</title>
<polygon fill="#bfbfbf" stroke="black" points="138.5,-56.5 138.5,-75.5 207.5,-75.5 207.5,-56.5 138.5,-56.5"/>
<text text-anchor="middle" x="173" y="-63.5" font-family="Helvetica,sans-Serif" font-size="10.00">vrepplugin.h</text>
</g>
<!-- Node2 -->
<g id="node2" class="node"><title>Node2</title>
<g id="a_node2"><a xlink:href="finken_8cpp.html" target="_top" xlink:title="finken.cpp">
<polygon fill="none" stroke="black" points="0,-0.5 0,-19.5 62,-19.5 62,-0.5 0,-0.5"/>
<text text-anchor="middle" x="31" y="-7.5" font-family="Helvetica,sans-Serif" font-size="10.00">finken.cpp</text>
</a>
</g>
</g>
<!-- Node1&#45;&gt;Node2 -->
<g id="edge1" class="edge"><title>Node1&#45;&gt;Node2</title>
<path fill="none" stroke="midnightblue" d="M140.845,-52.772C114.172,-42.6287 76.9314,-28.4669 53.3951,-19.5164"/>
<polygon fill="midnightblue" stroke="midnightblue" points="139.909,-56.1604 150.5,-56.4435 142.397,-49.6176 139.909,-56.1604"/>
</g>
<!-- Node3 -->
<g id="node3" class="node"><title>Node3</title>
<g id="a_node3"><a xlink:href="finkenplugin_8cpp.html" target="_top" xlink:title="finkenplugin.cpp">
<polygon fill="none" stroke="black" points="80.5,-0.5 80.5,-19.5 167.5,-19.5 167.5,-0.5 80.5,-0.5"/>
<text text-anchor="middle" x="124" y="-7.5" font-family="Helvetica,sans-Serif" font-size="10.00">finkenplugin.cpp</text>
</a>
</g>
</g>
<!-- Node1&#45;&gt;Node3 -->
<g id="edge2" class="edge"><title>Node1&#45;&gt;Node3</title>
<path fill="none" stroke="midnightblue" d="M157.966,-48.4314C149.378,-38.9673 138.957,-27.4827 131.941,-19.7511"/>
<polygon fill="midnightblue" stroke="midnightblue" points="155.597,-51.0293 164.909,-56.083 160.781,-46.3254 155.597,-51.0293"/>
</g>
<!-- Node4 -->
<g id="node4" class="node"><title>Node4</title>
<g id="a_node4"><a xlink:href="skeleton_8cpp.html" target="_top" xlink:title="provides the basic functionality for communication with the running vrep Simulation&quot; ...">
<polygon fill="none" stroke="black" points="186,-0.5 186,-19.5 258,-19.5 258,-0.5 186,-0.5"/>
<text text-anchor="middle" x="222" y="-7.5" font-family="Helvetica,sans-Serif" font-size="10.00">skeleton.cpp</text>
</a>
</g>
</g>
<!-- Node1&#45;&gt;Node4 -->
<g id="edge3" class="edge"><title>Node1&#45;&gt;Node4</title>
<path fill="none" stroke="midnightblue" d="M188.034,-48.4314C196.622,-38.9673 207.043,-27.4827 214.059,-19.7511"/>
<polygon fill="midnightblue" stroke="midnightblue" points="185.219,-46.3254 181.091,-56.083 190.403,-51.0293 185.219,-46.3254"/>
</g>
<!-- Node5 -->
<g id="node5" class="node"><title>Node5</title>
<g id="a_node5"><a xlink:href="vrepplugin_8cpp.html" target="_top" xlink:title="vrepplugin.cpp">
<polygon fill="none" stroke="black" points="276,-0.5 276,-19.5 356,-19.5 356,-0.5 276,-0.5"/>
<text text-anchor="middle" x="316" y="-7.5" font-family="Helvetica,sans-Serif" font-size="10.00">vrepplugin.cpp</text>
</a>
</g>
</g>
<!-- Node1&#45;&gt;Node5 -->
<g id="edge4" class="edge"><title>Node1&#45;&gt;Node5</title>
<path fill="none" stroke="midnightblue" d="M205.027,-52.9058C231.912,-42.7536 269.641,-28.5063 293.447,-19.5164"/>
<polygon fill="midnightblue" stroke="midnightblue" points="203.778,-49.6364 195.659,-56.4435 206.25,-56.1851 203.778,-49.6364"/>
</g>
</g>
</svg>
