<?xml version="1.0" encoding="UTF-8" standalone="no"?>
<!DOCTYPE svg PUBLIC "-//W3C//DTD SVG 1.1//EN"
 "http://www.w3.org/Graphics/SVG/1.1/DTD/svg11.dtd">
<!-- Generated by graphviz version 2.38.0 (20140413.2041)
 -->
<!-- Title: vrepplugin.cpp Pages: 1 -->
<svg width="166pt" height="140pt"
 viewBox="0.00 0.00 165.50 140.00" xmlns="http://www.w3.org/2000/svg" xmlns:xlink="http://www.w3.org/1999/xlink">
<g id="graph0" class="graph" transform="scale(1 1) rotate(0) translate(4 136)">
<title>vrepplugin.cpp</title>
<!-- Node1 -->
<g id="node1" class="node"><title>Node1</title>
<polygon fill="#bfbfbf" stroke="black" points="50.5,-112.5 50.5,-131.5 130.5,-131.5 130.5,-112.5 50.5,-112.5"/>
<text text-anchor="middle" x="90.5" y="-119.5" font-family="Helvetica,sans-Serif" font-size="10.00">vrepplugin.cpp</text>
</g>
<!-- Node2 -->
<g id="node2" class="node"><title>Node2</title>
<g id="a_node2"><a xlink:href="vrepplugin_8h.html" target="_top" xlink:title="vrepplugin.h">
<polygon fill="none" stroke="black" points="16,-56.5 16,-75.5 85,-75.5 85,-56.5 16,-56.5"/>
<text text-anchor="middle" x="50.5" y="-63.5" font-family="Helvetica,sans-Serif" font-size="10.00">vrepplugin.h</text>
</a>
</g>
</g>
<!-- Node1&#45;&gt;Node2 -->
<g id="edge1" class="edge"><title>Node1&#45;&gt;Node2</title>
<path fill="none" stroke="midnightblue" d="M83.8948,-112.083C78.2448,-104.455 69.9552,-93.2645 63.0488,-83.9408"/>
<polygon fill="midnightblue" stroke="midnightblue" points="65.7471,-81.7034 56.9823,-75.7511 60.1221,-85.87 65.7471,-81.7034"/>
</g>
<!-- Node5 -->
<g id="node5" class="node"><title>Node5</title>
<polygon fill="none" stroke="#bfbfbf" points="103.5,-56.5 103.5,-75.5 157.5,-75.5 157.5,-56.5 103.5,-56.5"/>
<text text-anchor="middle" x="130.5" y="-63.5" font-family="Helvetica,sans-Serif" font-size="10.00">iostream</text>
</g>
<!-- Node1&#45;&gt;Node5 -->
<g id="edge4" class="edge"><title>Node1&#45;&gt;Node5</title>
<path fill="none" stroke="midnightblue" d="M97.1052,-112.083C102.755,-104.455 111.045,-93.2645 117.951,-83.9408"/>
<polygon fill="midnightblue" stroke="midnightblue" points="120.878,-85.87 124.018,-75.7511 115.253,-81.7034 120.878,-85.87"/>
</g>
<!-- Node3 -->
<g id="node3" class="node"><title>Node3</title>
<polygon fill="none" stroke="#bfbfbf" points="0,-0.5 0,-19.5 41,-19.5 41,-0.5 0,-0.5"/>
<text text-anchor="middle" x="20.5" y="-7.5" font-family="Helvetica,sans-Serif" font-size="10.00">string</text>
</g>
<!-- Node2&#45;&gt;Node3 -->
<g id="edge2" class="edge"><title>Node2&#45;&gt;Node3</title>
<path fill="none" stroke="midnightblue" d="M45.5461,-56.083C41.3959,-48.6127 35.3469,-37.7244 30.2333,-28.5199"/>
<polygon fill="midnightblue" stroke="midnightblue" points="33.2777,-26.7929 25.3617,-19.7511 27.1586,-30.1924 33.2777,-26.7929"/>
</g>
<!-- Node4 -->
<g id="node4" class="node"><title>Node4</title>
<polygon fill="none" stroke="#bfbfbf" points="59.5,-0.5 59.5,-19.5 103.5,-19.5 103.5,-0.5 59.5,-0.5"/>
<text text-anchor="middle" x="81.5" y="-7.5" font-family="Helvetica,sans-Serif" font-size="10.00">vector</text>
</g>
<!-- Node2&#45;&gt;Node4 -->
<g id="edge3" class="edge"><title>Node2&#45;&gt;Node4</title>
<path fill="none" stroke="midnightblue" d="M55.619,-56.083C59.9075,-48.6127 66.1582,-37.7244 71.4423,-28.5199"/>
<polygon fill="midnightblue" stroke="midnightblue" points="74.5329,-30.1662 76.4762,-19.7511 68.4621,-26.6811 74.5329,-30.1662"/>
</g>
</g>
</svg>
